<svg width="307" height="91" viewBox="0 0 307 91" fill="none" xmlns="http://www.w3.org/2000/svg">
<path d="M18.784 71.592C17.296 71.496 16.192 71.304 15.472 71.016C14.8 70.776 14.464 70.104 14.464 69C14.464 68.424 14.584 67.848 14.824 67.272C15.112 66.648 15.472 66.12 15.904 65.688C18.208 63.192 20.608 60.72 23.104 58.272C25.6 55.776 29.296 52.344 34.192 47.976C36.784 45.72 38.728 43.968 40.024 42.72C41.368 41.472 43 39.84 44.92 37.824C48.904 33.648 51.136 30.672 51.616 28.896C51.712 28.656 51.76 28.32 51.76 27.888C51.76 27.024 51.28 26.472 50.32 26.232C49.408 25.992 47.704 25.776 45.208 25.584C43.576 25.488 42.4 25.44 41.68 25.44C39.808 25.44 38.08 25.536 36.496 25.728C34.96 25.92 33.04 26.208 30.736 26.592L30.448 26.664C30.112 26.664 29.752 26.544 29.368 26.304C29.032 26.064 28.864 25.848 28.864 25.656C29.056 25.368 29.152 25.152 29.152 25.008C29.152 24.672 28.96 24.384 28.576 24.144C28.48 23.856 28.432 23.64 28.432 23.496C28.432 23.16 28.672 22.752 29.152 22.272C29.488 22.08 30.352 21.912 31.744 21.768C32.848 21.624 33.592 21.528 33.976 21.48C35.512 21.24 37.864 21.12 41.032 21.12C42.328 21.12 43.648 21.168 44.992 21.264L47.08 21.48C49.912 21.72 52.048 22.056 53.488 22.488C54.928 22.872 55.912 23.664 56.44 24.864C56.728 25.584 56.872 26.208 56.872 26.736C56.872 27.408 56.584 28.44 56.008 29.832C55.768 30.6 55.6 31.08 55.504 31.272C54.64 32.904 52.936 35.208 50.392 38.184C47.848 41.16 45.232 43.872 42.544 46.32C36.496 51.984 31.96 56.088 28.936 58.632C26.008 61.176 23.32 63.6 20.872 65.904C20.536 66.336 20.368 66.672 20.368 66.912C20.368 67.44 21.184 67.704 22.816 67.704C24.496 67.704 26.056 67.536 27.496 67.2C27.64 67.152 28.072 67.056 28.792 66.912C29.56 66.768 30.52 66.672 31.672 66.624C33.592 66.528 35.008 66.432 35.92 66.336C37.12 66.288 38.608 66.216 40.384 66.12C42.16 66.024 43.456 65.976 44.272 65.976C44.608 65.976 44.896 66.048 45.136 66.192C45.376 66.336 45.712 66.696 46.144 67.272C46.768 67.464 47.08 67.776 47.08 68.208C47.08 68.64 46.744 69.12 46.072 69.648C45.832 69.648 45.568 69.672 45.28 69.72C45.04 69.768 44.752 69.816 44.416 69.864C42.016 70.296 40.192 70.488 38.944 70.44C37.552 70.344 34.48 70.56 29.728 71.088C27.424 71.472 24.64 71.664 21.376 71.664C20.128 71.664 19.264 71.64 18.784 71.592ZM57.6055 67.92C57.0295 67.92 56.5735 67.824 56.2375 67.632C55.9015 67.44 55.4215 67.08 54.7975 66.552C53.2135 64.872 52.4215 63.336 52.4215 61.944C52.4215 61.608 52.4455 61.368 52.4935 61.224C52.6375 60.888 52.6855 60.552 52.6375 60.216C52.6375 59.88 52.6375 59.664 52.6375 59.568C52.4455 59.376 52.3495 59.256 52.3495 59.208C52.3495 59.112 52.3975 59.04 52.4935 58.992C52.5895 58.896 52.6615 58.8 52.7095 58.704C52.9975 58.704 53.0935 58.44 52.9975 57.912C52.9015 57.528 53.0935 56.688 53.5735 55.392C54.0535 54.048 54.6535 52.824 55.3735 51.72C55.9015 50.856 56.6695 49.776 57.6775 48.48C58.7335 47.184 59.6695 46.2 60.4855 45.528C61.6375 44.52 62.6695 43.776 63.5815 43.296C64.4935 42.816 65.5015 42.456 66.6055 42.216C67.5655 41.976 68.2135 41.856 68.5495 41.856C68.8855 41.856 69.1735 41.952 69.4135 42.144C69.7015 42.288 70.0615 42.576 70.4935 43.008C71.7895 43.584 72.6775 44.328 73.1575 45.24C73.6855 46.104 73.9495 47.472 73.9495 49.344C73.9495 52.464 72.6775 55.848 70.1335 59.496C69.0295 61.08 67.9975 62.304 67.0375 63.168C66.0775 63.984 64.8055 64.872 63.2215 65.832C62.2135 66.552 61.2775 67.08 60.4135 67.416C59.5975 67.704 58.6615 67.872 57.6055 67.92ZM64.5175 60.288C65.6695 58.992 66.5815 57.768 67.2535 56.616C67.9735 55.464 68.6455 54 69.2695 52.224C69.5095 51.408 69.6295 50.424 69.6295 49.272C69.6295 47.832 69.4375 47.016 69.0535 46.824C68.5735 46.584 68.0935 46.464 67.6135 46.464C66.5575 46.464 65.4535 46.944 64.3015 47.904C62.9095 49.104 61.6615 50.592 60.5575 52.368C59.4535 54.096 58.3255 56.256 57.1735 58.848C56.6935 59.856 56.4535 60.84 56.4535 61.8C56.4535 62.52 56.6215 63.096 56.9575 63.528C57.3415 63.96 57.8455 64.176 58.4695 64.176C60.0535 64.176 62.0695 62.88 64.5175 60.288ZM80.1803 69C80.0363 69.048 79.7963 69.072 79.4603 69.072C78.6923 69.072 78.0923 68.688 77.6603 67.92C77.2283 67.152 77.0123 66.096 77.0123 64.752C77.0123 63.648 77.1563 62.376 77.4443 60.936C77.9723 59.544 78.2363 58.536 78.2363 57.912C78.3803 57 78.8603 55.368 79.6763 53.016C80.5403 50.616 81.0923 49.176 81.3323 48.696C81.5243 48.696 81.6923 48.552 81.8363 48.264C81.9803 47.928 82.0523 47.568 82.0523 47.184C82.0523 46.752 82.1243 46.32 82.2683 45.888C82.4603 45.408 82.6523 45.072 82.8443 44.88C82.8443 44.736 82.8923 44.472 82.9883 44.088C83.1323 43.704 83.2043 43.44 83.2043 43.296C83.2043 43.2 83.2523 43.032 83.3483 42.792C83.4923 42.504 83.5643 42.288 83.5643 42.144C84.3323 40.656 85.6763 37.32 87.5963 32.136C89.5163 26.904 90.4763 24 90.4763 23.424C90.4763 22.656 90.8603 22.272 91.6283 22.272C91.8683 22.032 92.2523 21.912 92.7803 21.912L93.9323 23.064C94.2683 23.4 94.4843 23.76 94.5803 24.144C94.6763 24.48 94.7243 25.008 94.7243 25.728C94.7243 26.448 94.6283 27.072 94.4363 27.6C94.2443 28.128 93.7643 29.208 92.9963 30.84C92.8523 31.176 92.6603 31.584 92.4203 32.064C92.1803 32.496 91.9163 33.048 91.6283 33.72C91.5323 33.96 91.1483 34.824 90.4763 36.312C89.9963 37.272 89.7563 37.824 89.7563 37.968C89.7563 38.112 89.6603 38.424 89.4683 38.904C89.2763 39.336 89.1083 39.792 88.9643 40.272C88.5803 41.04 87.9563 42.408 87.0923 44.376C86.2763 46.296 85.8683 47.352 85.8683 47.544C85.8683 48.072 85.7483 48.456 85.5083 48.696C85.3643 48.696 85.2683 48.816 85.2203 49.056C85.1723 49.248 85.1483 49.392 85.1483 49.488C85.1483 49.968 84.7643 51.24 83.9963 53.304L83.3483 55.392C82.4363 58.512 81.7883 60.792 81.4043 62.232C81.0683 63.672 80.9003 64.896 80.9003 65.904C80.9003 67.104 80.8523 67.872 80.7563 68.208C80.7083 68.544 80.5163 68.808 80.1803 69ZM91.3364 65.616C90.8084 65.328 90.4244 65.04 90.1844 64.752C89.9924 64.464 89.8964 64.056 89.8964 63.528C89.8964 62.568 90.1844 61.032 90.7604 58.92C90.9044 57.72 91.0484 56.76 91.1924 56.04C91.3844 55.272 91.6964 54.528 92.1284 53.808C92.3204 53.088 92.6564 52.008 93.1364 50.568C94.1924 47.208 94.9124 44.616 95.2964 42.792C95.6804 41.736 96.0164 40.8 96.3044 39.984C96.5924 39.168 96.8564 38.424 97.0964 37.752C97.0004 38.04 97.6004 36.408 98.8964 32.856C99.2804 31.704 99.5444 30.816 99.6884 30.192C100.216 28.032 100.816 26.4 101.488 25.296C101.824 24.816 102.064 24.408 102.208 24.072C102.4 23.736 102.568 23.472 102.712 23.28C102.712 23.184 102.784 23.112 102.928 23.064C103.072 22.968 103.24 22.92 103.432 22.92C104.008 22.92 104.488 23.112 104.872 23.496C105.112 23.4 105.4 23.688 105.736 24.36C106.12 25.032 106.288 25.56 106.24 25.944C106.24 26.568 106.072 27.144 105.736 27.672C105.544 27.864 105.328 28.224 105.088 28.752C104.848 29.232 104.632 29.64 104.44 29.976C104.344 30.312 104.176 30.888 103.936 31.704C103.744 32.472 103.552 33.12 103.36 33.648C103.12 34.224 102.88 34.776 102.64 35.304C102.448 35.784 102.28 36.216 102.136 36.6C101.944 37.224 101.608 38.16 101.128 39.408C100.456 41.04 100 42.312 99.7604 43.224C99.6644 43.512 99.4964 44.112 99.2564 45.024C98.5844 47.424 97.9364 49.176 97.3124 50.28C96.9284 50.904 96.6404 51.744 96.4484 52.8C96.3044 53.856 96.2084 54.504 96.1604 54.744C95.4404 56.904 95.0804 58.176 95.0804 58.56C94.9844 58.992 94.8164 59.832 94.5764 61.08C94.2884 62.616 94.0004 63.72 93.7124 64.392C93.6164 65.496 93.2564 66.048 92.6324 66.048C92.2484 66.048 91.8164 65.904 91.3364 65.616ZM107.964 56.184C107.004 56.184 106.164 56.064 105.444 55.824C104.772 55.824 104.292 55.752 104.004 55.608C103.764 55.464 103.548 55.2 103.356 54.816C103.068 54.384 102.924 54.048 102.924 53.808C102.924 53.52 103.188 53.304 103.716 53.16C104.244 52.968 105.18 52.8 106.524 52.656C108.204 52.272 109.716 52.008 111.06 51.864C112.452 51.72 114.108 51.648 116.028 51.648C117.276 51.648 118.116 51.72 118.548 51.864C118.98 51.96 119.46 52.248 119.988 52.728C120.564 53.304 120.852 53.856 120.852 54.384C120.852 54.816 120.66 55.128 120.276 55.32C119.94 55.512 119.46 55.56 118.836 55.464L114.3 55.824C114.012 55.824 113.22 55.896 111.924 56.04C110.676 56.136 109.356 56.184 107.964 56.184ZM123.601 71.376C123.073 71.088 122.689 70.824 122.449 70.584C122.257 70.344 122.161 70.032 122.161 69.648C122.161 69.168 122.353 68.496 122.737 67.632C123.169 66.72 123.889 65.304 124.897 63.384C125.185 62.76 125.737 61.656 126.553 60.072C129.337 54.744 130.729 51.84 130.729 51.36C130.681 51.264 130.657 51.12 130.657 50.928C130.657 50.448 131.041 50.016 131.809 49.632C132.913 48.528 133.825 47.352 134.545 46.104C135.025 45.048 135.673 43.8 136.489 42.36C137.305 40.872 138.313 39.12 139.513 37.104C140.089 36.096 140.953 34.632 142.105 32.712C143.881 29.544 146.161 26.088 148.945 22.344C150.049 20.856 150.961 20.136 151.681 20.184C152.593 20.184 153.601 20.616 154.705 21.48C155.857 22.296 156.649 23.232 157.081 24.288C157.273 24.624 157.369 25.344 157.369 26.448C157.369 27.936 157.201 30.456 156.865 34.008C156.769 34.632 156.673 35.616 156.577 36.96C156.433 39.12 156.217 41.424 155.929 43.872C155.401 49.248 155.017 53.448 154.777 56.472C154.537 59.496 154.417 62.328 154.417 64.968C154.417 66.312 154.441 67.296 154.489 67.92V68.424L154.417 70.08C154.129 70.368 153.697 70.512 153.121 70.512C152.449 70.512 151.801 70.344 151.177 70.008C150.553 69.72 150.193 69.36 150.097 68.928C150.049 68.88 149.977 68.832 149.881 68.784C149.785 68.736 149.737 68.52 149.737 68.136L149.809 66.552L150.025 62.52L150.385 50.856L149.449 50.928C148.489 50.928 146.353 51.12 143.041 51.504C139.729 51.888 137.665 52.2 136.849 52.44C136.417 52.44 135.889 52.728 135.265 53.304C134.641 53.88 134.089 54.624 133.609 55.536C133.465 56.016 133.129 56.712 132.601 57.624C132.073 58.488 131.809 58.992 131.809 59.136C131.521 59.328 131.257 59.592 131.017 59.928C130.825 60.216 130.705 60.408 130.657 60.504C130.657 61.032 130.153 62.376 129.145 64.536C128.185 66.696 127.225 68.496 126.265 69.936L124.753 72.24L123.601 71.376ZM138.505 48.192C138.793 48.144 139.417 48.048 140.377 47.904C141.337 47.712 142.201 47.592 142.969 47.544C146.425 46.728 148.537 46.32 149.305 46.32C149.641 46.32 149.953 46.392 150.241 46.536C150.385 46.728 150.529 46.872 150.673 46.968C150.865 47.016 150.985 47.04 151.033 47.04C151.129 46.752 151.417 44.16 151.897 39.264C152.425 34.32 152.713 31.032 152.761 29.4L152.977 25.8C152.689 25.8 152.065 26.352 151.105 27.456C150.145 28.56 149.065 30 147.865 31.776C146.713 33.504 145.681 35.28 144.769 37.104C144.289 37.968 143.809 38.784 143.329 39.552C142.897 40.272 142.585 40.632 142.393 40.632C142.057 40.968 141.265 42.264 140.017 44.52C138.769 46.776 138.265 48 138.505 48.192ZM178.478 68.856C177.326 67.752 176.462 66.12 175.886 63.96C175.79 63.672 175.742 63.168 175.742 62.448C175.742 61.728 175.742 61.224 175.742 60.936C175.454 61.656 174.926 62.304 174.158 62.88C173.054 63.984 171.95 64.8 170.846 65.328C169.166 66.432 167.798 66.984 166.742 66.984C165.782 66.984 164.87 66.456 164.006 65.4C163.382 64.872 162.902 64.344 162.566 63.816C162.278 63.288 162.134 62.64 162.134 61.872C162.134 61.344 162.206 60.768 162.35 60.144C162.446 58.368 162.686 56.664 163.07 55.032C163.502 53.4 164.294 51.312 165.446 48.768C166.982 45.744 168.086 43.728 168.758 42.72C168.998 42.624 169.31 42.576 169.694 42.576C170.174 42.576 170.558 42.72 170.846 43.008C171.182 43.296 171.374 43.68 171.422 44.16C171.566 44.352 171.638 44.616 171.638 44.952C171.638 46.152 170.918 48.12 169.478 50.856C167.606 55.368 166.67 58.488 166.67 60.216C166.67 61.224 166.958 61.824 167.534 62.016C167.774 62.16 168.038 62.232 168.326 62.232C169.526 62.232 170.966 61.416 172.646 59.784C174.326 58.152 175.934 55.536 177.47 51.936C178.142 50.304 178.55 48.624 178.694 46.896C178.646 46.752 178.622 46.536 178.622 46.248C178.622 45.384 179.054 44.688 179.918 44.16C180.11 43.872 180.374 43.656 180.71 43.512C181.046 43.32 181.262 43.32 181.358 43.512L182.51 43.44C182.654 43.392 182.798 43.536 182.942 43.872C183.086 44.16 183.23 44.352 183.374 44.448C183.71 44.736 183.878 45.264 183.878 46.032C183.878 47.616 183.182 50.04 181.79 53.304C180.878 55.224 180.254 56.712 179.918 57.768C179.63 58.776 179.462 59.76 179.414 60.72C179.414 62.544 180.11 64.056 181.502 65.256C181.982 65.592 182.27 65.952 182.366 66.336C182.462 66.72 182.486 67.248 182.438 67.92C182.342 68.352 182.054 68.712 181.574 69C181.142 69.24 180.662 69.36 180.134 69.36C179.51 69.36 178.958 69.192 178.478 68.856ZM189.486 68.64C188.91 68.448 188.31 67.896 187.686 66.984C187.062 66.024 186.75 65.16 186.75 64.392L187.758 61.368L189.126 57.048C189.558 56.424 189.894 55.68 190.134 54.816C190.422 53.904 190.59 53.376 190.638 53.232C191.118 52.32 192.078 50.112 193.518 46.608L194.886 43.296C196.23 40.416 197.334 37.824 198.198 35.52L199.35 32.856L200.718 29.688C202.398 25.608 203.334 23.232 203.526 22.56C203.526 22.176 203.598 21.888 203.742 21.696C203.934 21.504 204.126 21.408 204.318 21.408C204.558 21.168 204.942 21.048 205.47 21.048C205.71 21.048 206.094 21.432 206.622 22.2C207.15 22.92 207.414 23.544 207.414 24.072C207.414 24.888 207.03 26.376 206.262 28.536C205.494 30.648 204.462 33 203.166 35.592C198.462 45.72 196.302 50.976 196.686 51.36C196.878 51.264 197.286 51.072 197.91 50.784C198.534 50.448 199.182 50.04 199.854 49.56C200.286 49.32 200.694 49.08 201.078 48.84C201.462 48.552 201.798 48.312 202.086 48.12C203.574 47.112 204.486 46.56 204.822 46.464C205.11 46.272 205.662 45.936 206.478 45.456C207.342 44.88 207.798 44.568 207.846 44.52C208.422 44.232 208.902 44.088 209.286 44.088C209.574 44.088 209.838 44.184 210.078 44.376C210.318 44.568 210.606 44.856 210.942 45.24C211.23 45.576 211.374 45.912 211.374 46.248C211.374 46.584 211.182 46.944 210.798 47.328C210.414 47.664 209.766 48.12 208.854 48.696C208.23 49.128 207.582 49.536 206.91 49.92C206.238 50.304 205.59 50.688 204.966 51.072C201.51 53.184 199.734 54.312 199.638 54.456C199.734 54.648 199.95 55.08 200.286 55.752C200.67 56.424 201.03 57 201.366 57.48L202.446 59.352C203.022 60.168 203.31 60.696 203.31 60.936C203.742 62.136 204.318 63.072 205.038 63.744C205.806 64.416 206.622 64.752 207.486 64.752C207.918 64.752 208.422 64.632 208.998 64.392C209.718 64.104 210.294 63.96 210.726 63.96C211.398 63.96 211.854 64.344 212.094 65.112C212.238 65.4 212.31 65.616 212.31 65.76C212.31 65.952 211.974 66.384 211.302 67.056C210.054 68.304 208.782 68.928 207.486 68.928C207.054 68.928 206.55 68.808 205.974 68.568C205.254 68.616 204.342 68.136 203.238 67.128C202.182 66.12 200.694 64.368 198.774 61.872C198.774 61.68 198.51 61.056 197.982 60C197.79 59.568 197.574 59.184 197.334 58.848C197.094 58.464 196.926 58.2 196.83 58.056C196.83 57.864 196.71 57.624 196.47 57.336C196.278 57 196.134 56.736 196.038 56.544C195.51 56.4 195.078 56.448 194.742 56.688C194.454 56.928 194.166 57.264 193.878 57.696C193.638 58.128 193.446 58.44 193.302 58.632C192.822 59.88 192.342 61.416 191.862 63.24C191.382 65.016 191.214 66.168 191.358 66.696C191.358 67.464 191.238 67.992 190.998 68.28C190.758 68.52 190.254 68.64 189.486 68.64ZM223.919 68.856C223.247 68.664 222.695 68.448 222.263 68.208C221.831 67.968 221.255 67.512 220.535 66.84C219.671 65.688 219.095 64.632 218.807 63.672C218.567 62.664 218.447 61.08 218.447 58.92C218.447 57.768 219.095 54.6 220.391 49.416C220.295 49.752 220.463 49.056 220.895 47.328C221.039 46.8 220.847 46.464 220.319 46.32C219.791 46.176 219.047 46.104 218.087 46.104C217.271 46.104 216.791 46.056 216.647 45.96C216.503 45.912 216.407 45.84 216.359 45.744C216.359 45.648 216.359 45.576 216.359 45.528C216.359 45.288 216.263 45 216.071 44.664C216.023 44.616 215.999 44.544 215.999 44.448C215.999 44.208 216.119 43.944 216.359 43.656C216.647 43.368 216.983 43.2 217.367 43.152C217.607 43.104 218.159 43.032 219.023 42.936C219.887 42.84 220.703 42.648 221.471 42.36C222.239 42.072 222.839 41.664 223.271 41.136C223.895 39.552 224.687 37.776 225.647 35.808C226.607 33.792 227.255 32.592 227.591 32.208C228.359 31.824 228.887 31.632 229.175 31.632C229.463 31.632 229.703 31.728 229.895 31.92C230.087 32.112 230.351 32.448 230.687 32.928C230.735 33.024 230.855 33.192 231.047 33.432C231.239 33.672 231.335 33.912 231.335 34.152C231.335 34.536 231.143 35.112 230.759 35.88C230.423 36.648 229.727 37.992 228.671 39.912L227.735 41.712C227.879 41.76 228.215 41.784 228.743 41.784C229.271 41.784 229.703 41.76 230.039 41.712C231.095 41.52 232.079 41.424 232.991 41.424C233.471 41.424 233.807 41.448 233.999 41.496C235.103 41.496 235.895 41.712 236.375 42.144C236.903 42.528 237.215 43.2 237.311 44.16C237.407 44.688 237.311 45 237.023 45.096C236.735 45.192 235.919 45.24 234.575 45.24C229.007 45.48 226.199 45.696 226.151 45.888C225.959 46.032 225.599 46.872 225.071 48.408C224.543 49.944 224.087 51.408 223.703 52.8C223.079 55.68 222.767 58.224 222.767 60.432C222.767 62.448 223.055 63.792 223.631 64.464C223.871 64.704 224.327 64.824 224.999 64.824C225.671 64.824 226.391 64.704 227.159 64.464C227.975 64.176 228.647 63.816 229.175 63.384C230.039 62.664 230.759 62.304 231.335 62.304C231.623 62.304 231.839 62.4 231.983 62.592C232.175 62.736 232.271 62.928 232.271 63.168C232.271 63.696 231.983 64.368 231.407 65.184C230.687 66.288 229.727 67.2 228.527 67.92C227.327 68.64 226.175 69 225.071 69C224.543 69 224.159 68.952 223.919 68.856ZM250.635 38.04C250.491 38.184 250.347 38.256 250.203 38.256C250.011 38.256 249.699 38.112 249.267 37.824C248.787 37.776 248.139 37.368 247.323 36.6C246.555 35.784 246.171 35.256 246.171 35.016C246.075 34.056 246.219 33.024 246.603 31.92C246.987 30.816 247.683 30.24 248.691 30.192C248.835 30.192 249.027 30.24 249.267 30.336C249.507 30.384 249.915 30.528 250.491 30.768C250.587 30.96 250.779 31.368 251.067 31.992C251.403 32.616 251.643 33.216 251.787 33.792C251.979 34.368 252.075 34.896 252.075 35.376C252.075 36.528 251.595 37.416 250.635 38.04ZM242.499 66.768C241.779 66.768 241.131 66.312 240.555 65.4C240.027 64.488 239.715 63.576 239.619 62.664C239.811 60.84 239.955 59.544 240.051 58.776C240.435 57 241.035 54.576 241.851 51.504C242.715 48.384 243.243 46.632 243.435 46.248C243.579 46.008 243.795 45.888 244.083 45.888C244.371 45.888 244.683 45.984 245.019 46.176C245.355 46.368 245.643 46.584 245.883 46.824C246.267 47.352 246.459 47.952 246.459 48.624C246.459 49.632 245.979 51.744 245.019 54.96C244.347 57.36 243.915 59.064 243.723 60.072C243.531 61.08 243.459 62.16 243.507 63.312C243.459 63.648 243.363 64.224 243.219 65.04C243.123 65.808 243.027 66.288 242.931 66.48C242.835 66.672 242.691 66.768 242.499 66.768ZM259.456 68.568C258.88 68.616 258.4 68.592 258.016 68.496C257.68 68.352 257.176 68.064 256.504 67.632C254.44 65.952 253.432 64.296 253.48 62.664C253.528 62.52 253.552 62.304 253.552 62.016C253.552 61.728 253.528 61.512 253.48 61.368C253.432 61.176 253.408 61.056 253.408 61.008C253.216 60.864 253.096 60.768 253.048 60.72C253.048 60.624 253.072 60.528 253.12 60.432C253.216 60.336 253.288 60.24 253.336 60.144C253.528 60.096 253.624 60 253.624 59.856C253.624 59.712 253.576 59.544 253.48 59.352C253.336 58.968 253.408 58.104 253.696 56.76C254.032 55.368 254.464 54.072 254.992 52.872C255.376 51.96 255.976 50.784 256.792 49.344C257.656 47.904 258.448 46.8 259.168 46.032C260.176 44.88 261.088 43.992 261.904 43.368C262.768 42.744 263.752 42.24 264.856 41.856C265.864 41.424 266.56 41.208 266.944 41.208C267.424 41.208 268.024 41.496 268.744 42.072C269.896 42.408 270.76 42.888 271.336 43.512C271.96 44.088 272.44 45 272.776 46.248C273.064 47.256 273.208 48.384 273.208 49.632C273.208 52.32 272.368 55.272 270.688 58.488C269.824 60.216 268.984 61.56 268.168 62.52C267.352 63.432 266.224 64.512 264.784 65.76C263.776 66.576 262.888 67.2 262.12 67.632C261.4 68.064 260.512 68.376 259.456 68.568ZM265.216 60C266.224 58.512 266.992 57.168 267.52 55.968C268.048 54.72 268.48 53.184 268.816 51.36C268.864 51.168 268.888 50.784 268.888 50.208C268.888 49.248 268.792 48.336 268.6 47.472C268.408 46.608 268.168 46.152 267.88 46.104C267.496 45.96 267.136 45.888 266.8 45.888C265.696 45.888 264.52 46.536 263.272 47.832C262.12 49.176 261.112 50.808 260.248 52.728C259.432 54.6 258.616 56.904 257.8 59.64C257.56 60.6 257.44 61.368 257.44 61.944C257.44 62.808 257.608 63.504 257.944 64.032C258.28 64.512 258.76 64.752 259.384 64.752C260.152 64.752 261.04 64.368 262.048 63.6C263.056 62.784 264.112 61.584 265.216 60ZM281.023 65.832C280.879 65.832 280.615 65.712 280.231 65.472C279.895 65.232 279.607 64.992 279.367 64.752C279.031 64.416 278.815 64.056 278.719 63.672C278.671 63.288 278.647 62.4 278.647 61.008C278.647 59.52 278.935 57.888 279.511 56.112C280.135 54.336 281.215 51.768 282.751 48.408L285.127 43.368C285.271 43.032 285.607 42.552 286.135 41.928H286.855C287.191 41.928 287.551 42.144 287.935 42.576C288.367 43.008 288.679 43.512 288.871 44.088C288.871 44.856 288.751 45.576 288.511 46.248C288.319 46.92 287.767 47.856 286.855 49.056C286.471 49.632 286.015 50.544 285.487 51.792C284.959 53.04 284.599 54.096 284.407 54.96C284.263 55.2 284.071 55.608 283.831 56.184C283.639 56.76 283.399 57.36 283.111 57.984L282.751 59.568L287.575 54.6C289.687 52.488 291.391 50.952 292.687 49.992C294.031 49.032 295.135 48.552 295.999 48.552C297.007 48.552 297.823 49.2 298.447 50.496C298.879 51.216 299.167 51.792 299.311 52.224C299.455 52.608 299.527 53.232 299.527 54.096C299.527 54.384 299.479 55.2 299.383 56.544V61.008C300.055 60.864 300.655 60.672 301.183 60.432C301.759 60.192 302.191 60.024 302.479 59.928C303.583 59.448 304.807 59.16 306.151 59.064C306.055 59.88 305.695 60.768 305.071 61.728C304.447 62.688 303.679 63.504 302.767 64.176C301.855 64.8 300.967 65.112 300.103 65.112C299.431 65.112 298.711 64.8 297.943 64.176C297.223 63.552 296.695 62.856 296.359 62.088C296.167 61.56 296.047 60.912 295.999 60.144C295.999 59.376 295.999 58.296 295.999 56.904V54.24C295.999 53.76 295.855 53.52 295.567 53.52C295.375 53.52 294.919 53.808 294.199 54.384C293.239 55.248 291.679 56.808 289.519 59.064C287.455 61.224 285.655 62.904 284.119 64.104C282.631 65.256 281.599 65.832 281.023 65.832Z" fill="black"/>
<rect y="1" width="13" height="13" rx="5" fill="black"/>
<rect y="19" width="13" height="13" rx="5" fill="#C31018"/>
<rect y="37" width="13" height="13" rx="5" fill="#FABD02"/>
</svg>
