<svg xmlns="http://www.w3.org/2000/svg" viewBox="0 0 277.13 80"><defs><style>.cls-1{fill:#fff;}.cls-2{fill:#4265ff;}</style></defs><g id="Ebene_2" data-name="Ebene 2"><g id="Ebene_1-2" data-name="Ebene 1"><path class="cls-1" d="M0,0H80V80H0Z"/><path class="cls-2" d="M10,40H70V50H10Z"/><path class="cls-2" d="M10,25H50V35H10Z"/><path class="cls-2" d="M10,10H40V20H10Z"/><path class="cls-1" d="M115.28,13.92V34.73h-5V13.92h-8.06V9.21h21.13v4.71Z"/><path class="cls-1" d="M138.93,29.66c-.9,3.05-3.71,5.61-8.07,5.61-4.85,0-9.14-3.49-9.14-9.47,0-5.65,4.18-9.32,8.71-9.32,5.47,0,8.75,3.49,8.75,9.18,0,.68-.07,1.4-.07,1.48H126.44a4.31,4.31,0,0,0,4.46,4,3.91,3.91,0,0,0,4-2.7Zm-4.47-5.8c-.07-1.76-1.22-3.49-4-3.49a3.82,3.82,0,0,0-4,3.49Z"/><path class="cls-1" d="M146.42,25.88c0,3.2,2.08,5,4.53,5a4.06,4.06,0,0,0,4.07-3l4.21,1.4a8.21,8.21,0,0,1-8.28,6,9.16,9.16,0,0,1-9.32-9.39,9.07,9.07,0,0,1,9.18-9.4c4.82,0,7.56,3,8.31,6l-4.28,1.44a3.86,3.86,0,0,0-3.92-3C148.47,20.91,146.42,22.67,146.42,25.88Z"/><path class="cls-1" d="M167.55,34.73h-4.79V8.67h4.79V18.5a6.32,6.32,0,0,1,4.79-1.95c4.49,0,6.58,3.13,6.58,7V34.73h-4.78V24.4c0-2-1-3.53-3.28-3.53-2,0-3.2,1.51-3.31,3.46Z"/><path class="cls-1" d="M102.79,54.54l9.82-13.17h6.12V55.48h3.85v4.25h-3.85v5h-4.89v-5h-11Zm11-8-6.66,8.93h6.66Z"/><path class="cls-1" d="M145.12,64.73l-.33-2.92c-1.15,1.73-3.67,3.46-7.52,3.46-6.87,0-12.74-5-12.74-13.28A12.83,12.83,0,0,1,137.6,38.67c6.69,0,10.4,3.92,11.66,7.85l-4.75,1.69a6.82,6.82,0,0,0-6.91-4.9c-3.86,0-8,2.63-8,8.68,0,5.76,3.78,8.75,8.06,8.75,4.72,0,6.55-3.17,6.84-5h-8.06V51.45h12.74V64.73Z"/><path class="cls-1" d="M169.67,59.66a8,8,0,0,1-8.06,5.61c-4.86,0-9.15-3.49-9.15-9.47,0-5.65,4.18-9.32,8.72-9.32,5.47,0,8.74,3.49,8.74,9.18,0,.68-.07,1.4-.07,1.48H157.18a4.31,4.31,0,0,0,4.46,4,3.92,3.92,0,0,0,4-2.7Zm-4.46-5.8c-.07-1.76-1.23-3.49-4-3.49a3.83,3.83,0,0,0-4,3.49Z"/><path class="cls-1" d="M184.5,51.77a7,7,0,0,0-1.44-.14c-2.44,0-4.57,1.19-4.57,5v8.1H173.7V47h4.65v2.63c1.08-2.34,3.53-2.77,5-2.77a9.87,9.87,0,0,1,1.11.07Z"/><path class="cls-1" d="M187.89,64.73V47h4.57v2.16a6.07,6.07,0,0,1,5.18-2.66,5.48,5.48,0,0,1,5.26,2.95,6.14,6.14,0,0,1,5.61-2.95c3.28,0,6.41,2,6.41,6.73V64.73h-4.64V54.22c0-1.91-.94-3.35-3.13-3.35a3.25,3.25,0,0,0-3.28,3.49V64.73h-4.75V54.22c0-1.91-1-3.35-3.13-3.35a3.24,3.24,0,0,0-3.31,3.49V64.73Z"/><path class="cls-1" d="M224,54.54l4.35-.64c1-.15,1.33-.65,1.33-1.26,0-1.26-1-2.31-3-2.31a3.15,3.15,0,0,0-3.38,2.88l-4.25-.9c.29-2.77,2.85-5.83,7.6-5.83,5.61,0,7.7,3.17,7.7,6.73v8.71a19.44,19.44,0,0,0,.22,2.81h-4.39a11.81,11.81,0,0,1-.18-2.12,5.93,5.93,0,0,1-5.22,2.62c-3.78,0-6.09-2.55-6.09-5.32C218.7,56.74,221,55,224,54.54Zm5.68,3v-.79l-4,.61a2.23,2.23,0,0,0-2.2,2.23,2.08,2.08,0,0,0,2.3,2.05C227.81,61.67,229.68,60.7,229.68,57.57Z"/><path class="cls-1" d="M244,64.73h-4.78V47h4.64v2.2a5.88,5.88,0,0,1,5.11-2.67c4.39,0,6.41,3.13,6.41,7V64.73h-4.79V54.4c0-2-1-3.53-3.27-3.53-2.09,0-3.32,1.62-3.32,3.67Z"/><path class="cls-1" d="M260.93,71.71l4.18-9.21L257.58,47H263l4.71,10.37L272,47h5.11L266,71.71Z"/></g></g></svg>