<svg width="150" height="100" viewBox="0 0 150 100" fill="none" xmlns="http://www.w3.org/2000/svg">
<rect x="130.125" y="94.75" width="1.75" height="2.625" fill="#5E463C"/>
<rect x="130.125" y="94.75" width="1.75" height="2.625" fill="#5E463C"/>
<rect x="130.125" y="94.75" width="1.75" height="2.625" fill="#5E463C"/>
<rect x="129.25" y="98.25" width="3.5" height="1.75" rx="0.875" fill="#5E463C"/>
<rect x="129.25" y="98.25" width="3.5" height="1.75" rx="0.875" fill="#5E463C"/>
<rect x="129.25" y="98.25" width="3.5" height="1.75" rx="0.875" fill="#5E463C"/>
<circle cx="131" cy="97.375" r="1.75" fill="#5E463C"/>
<circle cx="131" cy="97.375" r="1.75" fill="#5E463C"/>
<circle cx="131" cy="97.375" r="1.75" fill="#5E463C"/>
<path d="M131 90.375C131 90.375 134.938 95.0192 131 95.625C127.062 95.0192 131 90.375 131 90.375Z" fill="#5E463C"/>
<path d="M131 90.375C131 90.375 134.938 95.0192 131 95.625C127.062 95.0192 131 90.375 131 90.375Z" fill="#5E463C"/>
<path d="M131 90.375C131 90.375 134.938 95.0192 131 95.625C127.062 95.0192 131 90.375 131 90.375Z" fill="#5E463C"/>
<rect x="95.125" y="94.75" width="1.75" height="2.625" fill="#5E463C"/>
<rect x="95.125" y="94.75" width="1.75" height="2.625" fill="#5E463C"/>
<rect x="95.125" y="94.75" width="1.75" height="2.625" fill="#5E463C"/>
<rect x="94.25" y="98.25" width="3.5" height="1.75" rx="0.875" fill="#5E463C"/>
<rect x="94.25" y="98.25" width="3.5" height="1.75" rx="0.875" fill="#5E463C"/>
<rect x="94.25" y="98.25" width="3.5" height="1.75" rx="0.875" fill="#5E463C"/>
<circle cx="96" cy="97.375" r="1.75" fill="#5E463C"/>
<circle cx="96" cy="97.375" r="1.75" fill="#5E463C"/>
<circle cx="96" cy="97.375" r="1.75" fill="#5E463C"/>
<path d="M96 90.375C96 90.375 99.9375 95.0192 96 95.625C92.0625 95.0192 96 90.375 96 90.375Z" fill="#5E463C"/>
<path d="M96 90.375C96 90.375 99.9375 95.0192 96 95.625C92.0625 95.0192 96 90.375 96 90.375Z" fill="#5E463C"/>
<path d="M96 90.375C96 90.375 99.9375 95.0192 96 95.625C92.0625 95.0192 96 90.375 96 90.375Z" fill="#5E463C"/>
<rect x="94.25" y="18.625" width="38.5" height="75.25" fill="#D99F5F"/>
<path d="M99.5 93.875H127.5C127.5 96.2912 125.541 98.25 123.125 98.25H103.875C101.459 98.25 99.5 96.2912 99.5 93.875Z" fill="url(#paint0_linear)"/>
<path d="M98.625 100C98.625 99.0335 99.4085 98.25 100.375 98.25H126.625C127.591 98.25 128.375 99.0335 128.375 100H98.625Z" fill="url(#paint1_linear)"/>
<path d="M90.2998 20.2497C89.7759 19.5949 90.2421 18.625 91.0806 18.625H135.919C136.758 18.625 137.224 19.5949 136.7 20.2497L136.25 20.8125V22C136.25 22.5523 135.802 23 135.25 23H91.75C91.1977 23 90.75 22.5523 90.75 22V20.8125L90.2998 20.2497Z" fill="#D99F5F"/>
<ellipse cx="113.5" cy="25.1875" rx="15.75" ry="15.3125" fill="#D99F5F"/>
<path d="M96.875 24.75H130.125V91.25H96.875V24.75Z" fill="#865942"/>
<path d="M99.5 46.625H127.5V86.875H99.5V46.625Z" fill="#5E463C"/>
<circle cx="113.5" cy="27.375" r="13.125" fill="#865942"/>
<path d="M99.5 26.5H127.5V44H99.5V26.5Z" fill="#5E463C"/>
<path d="M126 26.5L111.5 44H127.5V26.5H126Z" fill="#4E362C"/>
<ellipse cx="113.5" cy="28.6875" rx="11.375" ry="11.8125" fill="#5E463C"/>
<path d="M110.875 86.875V46.625H127.5V51.6562V79.3281V86.875H110.875Z" fill="#4E362C"/>
<path d="M110.875 86.875V46.625H127.5V51.6562V79.3281V86.875H110.875Z" fill="#4E362C"/>
<circle cx="113.5" cy="32.625" r="10.875" fill="white" stroke="#865942"/>
<rect x="113.232" y="32.7155" width="0.607338" height="6.03448" fill="black"/>
<rect width="0.605595" height="3.63119" transform="matrix(-0.744417 -0.667715 0.67246 -0.740134 113.683 33.0919)" fill="black"/>
<ellipse cx="113.536" cy="32.7155" rx="0.911007" ry="0.905172" fill="black"/>
<rect x="95.125" y="13.375" width="1.75" height="2.625" fill="#5E463C"/>
<rect x="95.125" y="13.375" width="1.75" height="2.625" fill="#5E463C"/>
<rect x="95.125" y="13.375" width="1.75" height="2.625" fill="#5E463C"/>
<rect x="94.25" y="16.875" width="3.5" height="1.75" rx="0.875" fill="#5E463C"/>
<rect x="94.25" y="16.875" width="3.5" height="1.75" rx="0.875" fill="#5E463C"/>
<rect x="94.25" y="16.875" width="3.5" height="1.75" rx="0.875" fill="#5E463C"/>
<circle cx="96" cy="16" r="1.75" fill="#5E463C"/>
<circle cx="96" cy="16" r="1.75" fill="#5E463C"/>
<circle cx="96" cy="16" r="1.75" fill="#5E463C"/>
<path d="M96 9C96 9 99.9375 13.6442 96 14.25C92.0625 13.6442 96 9 96 9Z" fill="#5E463C"/>
<path d="M96 9C96 9 99.9375 13.6442 96 14.25C92.0625 13.6442 96 9 96 9Z" fill="#5E463C"/>
<path d="M96 9C96 9 99.9375 13.6442 96 14.25C92.0625 13.6442 96 9 96 9Z" fill="#5E463C"/>
<rect x="130.125" y="13.375" width="1.75" height="2.625" fill="#5E463C"/>
<rect x="130.125" y="13.375" width="1.75" height="2.625" fill="#5E463C"/>
<rect x="130.125" y="13.375" width="1.75" height="2.625" fill="#5E463C"/>
<rect x="129.25" y="16.875" width="3.5" height="1.75" rx="0.875" fill="#5E463C"/>
<rect x="129.25" y="16.875" width="3.5" height="1.75" rx="0.875" fill="#5E463C"/>
<rect x="129.25" y="16.875" width="3.5" height="1.75" rx="0.875" fill="#5E463C"/>
<circle cx="131" cy="16" r="1.75" fill="#5E463C"/>
<circle cx="131" cy="16" r="1.75" fill="#5E463C"/>
<circle cx="131" cy="16" r="1.75" fill="#5E463C"/>
<path d="M131 9C131 9 134.938 13.6442 131 14.25C127.062 13.6442 131 9 131 9Z" fill="#5E463C"/>
<path d="M131 9C131 9 134.938 13.6442 131 14.25C127.062 13.6442 131 9 131 9Z" fill="#5E463C"/>
<path d="M131 9C131 9 134.938 13.6442 131 14.25C127.062 13.6442 131 9 131 9Z" fill="#5E463C"/>
<rect x="89.7279" y="67.8231" width="1.128" height="12.7211" fill="#FBB447"/>
<rect x="90.8561" y="67.8231" width="0.376" height="12.7211" fill="#D99F5F"/>
<path d="M84.0583 79.4218H64.5657L65.3078 85.034H74.312H83.3162L84.0583 79.4218Z" fill="#D99F5F"/>
<path fill-rule="evenodd" clip-rule="evenodd" d="M85.592 67.8231H63.032L64.2688 77.1769H84.3551L85.592 67.8231Z" fill="#D99F5F"/>
<path d="M51 68.0102C51 55.302 61.5213 45 74.5 45C87.4787 45 98 55.302 98 68.0102H51Z" fill="#D99F5F"/>
<path d="M51 68.0102C51 55.302 61.5213 45 74.5 45C87.4787 45 98 55.302 98 68.0102H51Z" fill="#FBB447"/>
<path d="M51 67.8231C51 57.2847 59.6696 48.7415 70.364 48.7415C81.0584 48.7415 89.728 57.2847 89.728 67.8231H51Z" fill="#FEC157"/>
<path d="M51 67.8232C51 59.7643 57.6495 53.2313 65.852 53.2313C74.0545 53.2313 80.704 59.7643 80.704 67.8232H51Z" fill="#FECC6B"/>
<rect x="62.28" y="96.2585" width="24.064" height="3.7415" rx="1.87075" fill="#D99F5F"/>
<path d="M66.7921 96.2585H81.8321L83.3163 85.034H74.3121H65.3079L66.7921 96.2585Z" fill="url(#paint2_linear)"/>
<path d="M84.3551 77.1769H64.2688L64.5656 79.4218H84.0583L84.3551 77.1769Z" fill="#4E362C"/>
<path d="M81.8319 96.2585L83.3359 85.034H78.2599L77.5079 96.2585H81.8319Z" fill="#4E362C"/>
<path d="M83.3261 85.034L84.0682 79.4218H78.6756L78.26 85.034H83.3261Z" fill="#C78D4D"/>
<path d="M84.2661 77.1769L85.7602 67.8231H79.9916L78.824 77.1769H84.2661Z" fill="#C78D4D"/>
<path d="M51 67.8231C51 69.8895 53.1043 71.5646 55.7 71.5646C58.2957 71.5646 60.4 69.8895 60.4 67.8231H51Z" fill="#4E362C"/>
<path d="M60.4 67.8231C60.4 69.8895 62.5043 71.5646 65.1 71.5646C67.6958 71.5646 69.8 69.8895 69.8 67.8231H60.4Z" fill="#4E362C"/>
<path d="M69.8 67.8231C69.8 69.8895 71.9043 71.5646 74.5 71.5646C77.0958 71.5646 79.2 69.8895 79.2 67.8231H69.8Z" fill="#4E362C"/>
<path d="M79.2 67.8231C79.2 69.8895 81.3042 71.5646 83.9 71.5646C86.4957 71.5646 88.6 69.8895 88.6 67.8231H79.2Z" fill="#4E362C"/>
<path d="M88.6 67.8231C88.6 69.8895 90.7042 71.5646 93.3 71.5646C95.8957 71.5646 98 69.8895 98 67.8231H88.6Z" fill="#4E362C"/>
<path d="M78.636 79.4218L78.824 77.1769H84.276L84.088 79.4218H78.636Z" fill="#3C241A"/>
<ellipse cx="90.48" cy="79.7959" rx="3.008" ry="2.9932" fill="url(#paint3_linear)"/>
<defs>
<linearGradient id="paint0_linear" x1="94.25" y1="82.9375" x2="127.5" y2="103.5" gradientUnits="userSpaceOnUse">
<stop stop-color="#865942"/>
<stop offset="0.0001" stop-color="#865942"/>
<stop offset="0.966851" stop-color="#5E463C"/>
</linearGradient>
<linearGradient id="paint1_linear" x1="93.0469" y1="93.875" x2="106.252" y2="115.567" gradientUnits="userSpaceOnUse">
<stop stop-color="#865942"/>
<stop offset="0.0001" stop-color="#865942"/>
<stop offset="0.966851" stop-color="#5E463C"/>
</linearGradient>
<linearGradient id="paint2_linear" x1="83.3361" y1="100.561" x2="52.6115" y2="77.7803" gradientUnits="userSpaceOnUse">
<stop offset="0.566667" stop-color="#5E463C"/>
<stop offset="1" stop-color="#5E463C" stop-opacity="0"/>
</linearGradient>
<linearGradient id="paint3_linear" x1="91.796" y1="83.9116" x2="86.5614" y2="77.8996" gradientUnits="userSpaceOnUse">
<stop stop-color="#FBB447"/>
<stop offset="1" stop-color="#FEC157"/>
</linearGradient>
</defs>
</svg>
