<svg width="150" height="100" viewBox="0 0 150 100" fill="none" xmlns="http://www.w3.org/2000/svg">
<rect x="50" y="30" width="99" height="62" rx="1.66667" fill="url(#paint0_linear)"/>
<path fill-rule="evenodd" clip-rule="evenodd" d="M144 32H52.8333C52.3731 32 52 32.3731 52 32.8333V88H103.166L144 32Z" fill="#202020"/>
<path d="M147 88V32.8615C147 32.3857 146.572 32 146.043 32H99.5V88H147Z" fill="#0C0C0C"/>
<rect x="91" y="92" width="16" height="6" fill="black"/>
<path d="M79 98.8333C79 98.3731 79.3731 98 79.8333 98H118.167C118.627 98 119 98.3731 119 98.8333V100H79V98.8333Z" fill="black"/>
<g clip-path="url(#clip0)">
<path d="M39.0883 98.7941H41.5V99.397C41.5 99.73 41.2301 99.9999 40.8971 99.9999H39.6912C39.3582 99.9999 39.0883 99.73 39.0883 99.397V98.7941Z" fill="black"/>
<path d="M57.1765 98.7941H59.5883V99.397C59.5883 99.73 59.3183 99.9999 58.9853 99.9999H57.7795C57.4465 99.9999 57.1765 99.73 57.1765 99.397V98.7941Z" fill="black"/>
<path d="M36.6765 60.8088C36.6765 59.8098 37.4864 59 38.4853 59H59.5883C60.5873 59 61.3971 59.8098 61.3971 60.8088V96.9853C61.3971 97.9843 60.5873 98.7941 59.5883 98.7941H38.4853C37.4864 98.7941 36.6765 97.9843 36.6765 96.9853V60.8088Z" fill="#003E6C"/>
<path d="M49.3383 59H60.2645C61.223 59 62 59.777 62 60.7355V97.0586C62 98.0171 61.223 98.7941 60.2645 98.7941H49.3383V59Z" fill="#00305E"/>
<path d="M49.3376 96.3823C54.9986 96.3823 59.5876 91.7932 59.5876 86.1323C59.5876 80.4714 54.9986 75.8823 49.3376 75.8823C43.6767 75.8823 39.0876 80.4714 39.0876 86.1323C39.0876 91.7932 43.6767 96.3823 49.3376 96.3823Z" fill="#E59C00"/>
<path d="M49.6397 96.3824C55.1341 96.3824 59.5882 91.9283 59.5882 86.4339C59.5882 80.9395 55.1341 76.4854 49.6397 76.4854C44.1453 76.4854 39.6912 80.9395 39.6912 86.4339C39.6912 91.9283 44.1453 96.3824 49.6397 96.3824Z" fill="#E59C00"/>
<path d="M49.3383 94.5735C54.0002 94.5735 57.7794 90.7943 57.7794 86.1323C57.7794 81.4704 54.0002 77.6912 49.3383 77.6912C44.6763 77.6912 40.8971 81.4704 40.8971 86.1323C40.8971 90.7943 44.6763 94.5735 49.3383 94.5735Z" fill="#333333"/>
<path d="M40.8971 86.1323C40.8971 90.7943 44.6763 94.5735 49.3383 94.5735V77.6912C44.6763 77.6912 40.8971 81.4704 40.8971 86.1323Z" fill="#262627"/>
<path d="M49.3382 89.1471C51.0032 89.1471 52.3529 87.7974 52.3529 86.1324C52.3529 84.4674 51.0032 83.1177 49.3382 83.1177C47.6732 83.1177 46.3235 84.4674 46.3235 86.1324C46.3235 87.7974 47.6732 89.1471 49.3382 89.1471Z" fill="#BDBDBD"/>
<path d="M49.3383 89.1471C51.0032 89.1471 52.353 87.7973 52.353 86.1324C52.353 84.4674 51.0032 83.1177 49.3383 83.1177V89.1471Z" fill="#AAAAAB"/>
<path d="M49.6391 74.0735C53.1356 74.0735 55.97 71.2391 55.97 67.7426C55.97 64.2462 53.1356 61.4117 49.6391 61.4117C46.1427 61.4117 43.3082 64.2462 43.3082 67.7426C43.3082 71.2391 46.1427 74.0735 49.6391 74.0735Z" fill="#E59C00"/>
<path d="M49.6392 72.8677C52.4696 72.8677 54.7642 70.5731 54.7642 67.7427C54.7642 64.9122 52.4696 62.6177 49.6392 62.6177C46.8087 62.6177 44.5142 64.9122 44.5142 67.7427C44.5142 70.5731 46.8087 72.8677 49.6392 72.8677Z" fill="#333333"/>
<path d="M44.5142 67.7427C44.5142 70.5731 46.8087 72.8677 49.6392 72.8677V62.6177C46.8087 62.6177 44.5142 64.9122 44.5142 67.7427Z" fill="#262627"/>
<path d="M49.6391 69.2501C50.4716 69.2501 51.1464 68.5752 51.1464 67.7427C51.1464 66.9102 50.4716 66.2354 49.6391 66.2354C48.8066 66.2354 48.1317 66.9102 48.1317 67.7427C48.1317 68.5752 48.8066 69.2501 49.6391 69.2501Z" fill="#BDBDBD"/>
<path d="M49.6392 69.2501C50.4716 69.2501 51.1465 68.5752 51.1465 67.7427C51.1465 66.9102 50.4716 66.2354 49.6392 66.2354V69.2501Z" fill="#AAAAAB"/>
</g>
<defs>
<linearGradient id="paint0_linear" x1="26.8394" y1="10.9571" x2="149.78" y2="94.8505" gradientUnits="userSpaceOnUse">
<stop/>
<stop offset="0.9999"/>
</linearGradient>
<clipPath id="clip0">
<rect width="25" height="41" fill="white" transform="translate(37 59)"/>
</clipPath>
</defs>
</svg>
