<svg width="150" height="100" viewBox="0 0 150 100" fill="none" xmlns="http://www.w3.org/2000/svg">
<g clip-path="url(#clip0)">
<path d="M66 55.5L88 58.5L110 55.5L88 55L66 55.5Z" fill="black"/>
<path d="M66 55.5L88 56.5L110 55.5V80.5L88 81.5L66 80.5V55.5Z" fill="#1F3347"/>
<path d="M66 80.5C66 80.5 78.1895 80.5 86 80.5C86 88.3105 86 100.5 86 100.5H66V80.5Z" fill="#1F3347"/>
<path d="M90 80.5H110V100.5H90V80.5Z" fill="#1F3347"/>
<path fill-rule="evenodd" clip-rule="evenodd" d="M110 80.5H90V81.4091L110 80.5Z" fill="#262627"/>
<path d="M110 100.5V80.5L90 81.4091V100.5H110Z" fill="#262627"/>
<path d="M110 80.5V56.5465C110 55.9764 109.524 55.5216 108.955 55.5475L88 56.5V81.5L90 81.4091V80.5H110Z" fill="#262627"/>
<circle cx="86" cy="59.5" r="1" fill="#828282"/>
<g clip-path="url(#clip1)">
<path fill-rule="evenodd" clip-rule="evenodd" d="M94.9738 82.4399C94.3142 82.4399 93.7795 81.9053 93.7795 81.2457V45.4025C93.7795 44.3612 92.5397 43.8187 91.7749 44.5253L88.7869 47.2854C88.3023 47.7332 87.5464 47.7031 87.0989 47.2182L78.1252 37.4957C77.6888 37.0229 77.7054 36.2895 78.1626 35.8369L93.4305 20.7256C93.6541 20.5043 93.956 20.3801 94.2706 20.3801H102.585L107.281 27.0079L111.39 22.1877L113.171 25.7705V82.4399H94.9738Z" fill="#C31018"/>
<path d="M113.171 25.7705V82.4399H114.672V25.7705H113.171Z" fill="#C31018"/>
<path fill-rule="evenodd" clip-rule="evenodd" d="M130.772 82.4399C131.432 82.4399 131.966 81.9053 131.966 81.2457V45.4025C131.966 44.3612 133.206 43.8187 133.971 44.5253L136.959 47.2854C137.443 47.7332 138.199 47.7031 138.647 47.2182L147.621 37.4957C148.057 37.0229 148.04 36.2895 147.583 35.8369L132.315 20.7256C132.092 20.5043 131.79 20.3801 131.475 20.3801H123.161L118.465 27.0079L114.963 22.1285L113.171 25.7705V82.4399H130.772Z" fill="#B40109"/>
<path d="M108.991 26.9058L111.977 23.3229L111.38 22.1287L107.797 25.7115L108.991 26.9058Z" fill="#B40109"/>
<path d="M116.754 26.9058L114.366 23.3229L114.963 22.1287L117.949 25.7115L116.754 26.9058Z" fill="#A20000"/>
<path d="M102.585 20.3801L106.107 17.9485L111.39 22.1877L107.281 27.0078L102.585 20.3801Z" fill="white"/>
<path d="M123.171 20.3801L119.649 17.9485L114.963 22.1285L118.475 27.0078L123.171 20.3801Z" fill="#DEDEDE"/>
<path d="M119.734 18H106L111.374 22.18L113.166 25.7629L114.957 22.18L119.734 18Z" fill="url(#paint0_linear)"/>
</g>
</g>
<defs>
<linearGradient id="paint0_linear" x1="112.867" y1="18" x2="112.867" y2="25.7629" gradientUnits="userSpaceOnUse">
<stop stop-color="#8D8D8D"/>
<stop offset="1" stop-color="#656565"/>
</linearGradient>
<clipPath id="clip0">
<rect width="150" height="100" fill="white"/>
</clipPath>
<clipPath id="clip1">
<rect width="72" height="66" fill="white" transform="translate(77 16)"/>
</clipPath>
</defs>
</svg>
