<svg width="150" height="101" viewBox="0 0 150 101" fill="none" xmlns="http://www.w3.org/2000/svg">
<circle cx="105.5" cy="67.5" r="33.5" fill="#E59C00"/>
<path d="M135.5 67.5C135.5 84.0685 122.069 97.5 105.5 97.5C88.9315 97.5 75.5 84.0685 75.5 67.5C75.5 50.9315 88.9315 37.5 105.5 37.5C122.069 37.5 135.5 50.9315 135.5 67.5Z" fill="#FFBE2C" stroke="#FFBE2C"/>
<path d="M105.5 98C122.345 98 136 84.3447 136 67.5C136 50.6553 122.345 37 105.5 37V98Z" fill="#F5B422"/>
<path d="M89.7633 64.7071L90.1546 65.8861C90.2687 66.2296 90.1881 66.608 89.9441 66.8753L87.2615 69.814C87.0933 69.9982 87 70.2398 87 70.4893C87 70.8977 87.2483 71.267 87.6273 71.4192L88.3226 71.6985C88.4484 71.749 88.5512 71.844 88.6116 71.9653C88.6498 72.0419 88.6696 72.1263 88.6696 72.2119V73.7584V74.2156C88.6696 74.1373 88.5721 74.1013 88.5212 74.1609L88.2927 74.4286C88.244 74.4856 88.2287 74.5639 88.2523 74.6351L88.32 74.8389C88.3499 74.929 88.3499 75.0264 88.32 75.1165L88.3158 75.1293C88.2558 75.3099 88.3238 75.5083 88.4819 75.6141C88.5992 75.6926 88.6696 75.8245 88.6696 75.9657V76.4624C88.6696 76.5892 88.6456 76.7148 88.5986 76.8325L88.4921 77.1001C88.4104 77.3052 88.3988 77.5315 88.4592 77.7438L88.6311 78.3479C88.6567 78.4377 88.6942 78.5231 88.7467 78.6003C88.9261 78.8637 89.3948 79.5025 89.8998 79.7877C89.9874 79.8371 90.0866 79.8601 90.1867 79.8702L91.4193 79.994C91.5084 80.0029 91.5974 80 91.6857 79.985C92.1 79.9149 93.3988 79.6953 94.2857 79.5502C96.1806 79.2402 97.2567 79.147 99.1429 78.7881C99.3651 78.7458 99.6336 78.6925 99.8826 78.6423C100.338 78.5504 100.799 78.782 100.994 79.2042L102.634 82.7509L104.277 87.9547C104.454 88.5158 105.075 88.8034 105.618 88.5756L112.76 85.5766C112.889 85.5224 113.005 85.4417 113.101 85.3397L114.918 83.4073C115.269 83.0343 115.282 82.4565 114.947 82.0688L113.639 80.5532C113.588 80.4944 113.544 80.4299 113.509 80.3609L111.807 77.0853C111.763 77.0016 111.732 76.9121 111.713 76.8196L111.55 76.0017C111.481 75.651 111.603 75.2898 111.872 75.0542L116.328 71.1505C116.441 71.0515 116.531 70.9281 116.589 70.7898L117.581 68.459C117.634 68.3352 117.661 68.202 117.661 68.0675V66.882C117.661 66.257 118.241 65.8255 118.857 65.7201C118.916 65.7099 118.974 65.6969 119.027 65.6803C119.829 65.431 120.145 64.8952 120.545 64.1561C120.895 63.5086 121.159 63.0458 121 62.3271C120.915 61.9425 120.777 61.7447 120.553 61.4249L120.545 61.4126C120.109 60.7893 119.682 60.5786 119.027 60.1933C118.551 59.9139 118.519 59.1858 119.019 58.9539L119.479 58.7408C119.581 58.6935 119.673 58.626 119.748 58.5423L120.806 57.3613C120.933 57.22 121.017 57.0459 121.04 56.8575C121.095 56.3964 121.172 55.4802 121 54.8587C120.795 54.1168 120.082 53.2378 119.776 52.884C119.684 52.7777 119.611 52.6559 119.558 52.5256C119.409 52.1575 119.05 51.3788 118.571 51.0483C117.662 50.4203 115.76 51.0251 115.689 51.0477L115.684 51.0494L114.728 51.3694C114.08 51.5863 113.411 51.1042 113.411 50.4212V50.1978C113.411 49.9598 113.326 49.7295 113.171 49.5485L112.698 48.9941C112.569 48.8429 112.398 48.7335 112.206 48.6801L110.087 48.0891C109.88 48.0313 109.659 48.0419 109.458 48.1195L108.008 48.6796C107.868 48.7339 107.742 48.8192 107.636 48.9261C107.402 49.161 106.955 49.5912 106.58 49.829C104.729 51.005 103.135 49.5179 100.964 49.829C99.142 50.0901 98.0304 50.1732 96.4107 51.0483C95.4392 51.5732 94.958 51.99 94.1339 52.7249C93.2869 53.4804 92.5489 54.0353 92.1607 54.8587C91.8495 55.519 91.7446 56.5903 91.7153 56.989C91.7076 57.0927 91.6868 57.1946 91.6504 57.2921L90.7946 59.5836L90.381 61.245C90.3534 61.3559 90.307 61.4613 90.2437 61.5565L89.7321 62.3271L89.3626 63.0694C89.2141 63.3676 89.2238 63.7202 89.3886 64.0097L89.6833 64.5276C89.7158 64.5846 89.7426 64.6448 89.7633 64.7071Z" fill="#E59C00"/>
<path d="M107.636 48.9261C107.402 49.161 106.955 49.5912 106.58 49.829C106.212 50.0628 105.854 50.1914 105.5 50.2497V88.6251L112.76 85.5766C112.889 85.5224 113.005 85.4417 113.101 85.3397L114.918 83.4073C115.269 83.0343 115.282 82.4565 114.947 82.0688L113.639 80.5532C113.588 80.4944 113.544 80.4299 113.509 80.3609L111.807 77.0853C111.763 77.0016 111.732 76.9121 111.713 76.8196L111.55 76.0017C111.481 75.651 111.603 75.2898 111.872 75.0542L116.328 71.1505C116.441 71.0515 116.531 70.9281 116.589 70.7898L117.581 68.459C117.634 68.3352 117.661 68.202 117.661 68.0675V66.882C117.661 66.257 118.241 65.8255 118.857 65.7201C118.916 65.7099 118.974 65.6969 119.027 65.6803C119.829 65.431 120.145 64.8952 120.545 64.1561C120.895 63.5086 121.159 63.0458 121 62.3271C120.915 61.9425 120.777 61.7447 120.553 61.4249L120.545 61.4126C120.109 60.7893 119.682 60.5786 119.027 60.1933C118.551 59.9139 118.519 59.1858 119.019 58.9539L119.479 58.7408C119.581 58.6935 119.673 58.626 119.748 58.5423L120.806 57.3613C120.933 57.22 121.017 57.0459 121.04 56.8575C121.095 56.3964 121.172 55.4802 121 54.8587C120.795 54.1168 120.082 53.2378 119.776 52.884C119.684 52.7777 119.611 52.6559 119.558 52.5256C119.409 52.1575 119.05 51.3788 118.571 51.0483C117.662 50.4203 115.76 51.0251 115.689 51.0477L115.684 51.0494L114.728 51.3694C114.08 51.5863 113.411 51.1042 113.411 50.4212V50.1978C113.411 49.9598 113.326 49.7295 113.171 49.5485L112.698 48.9941C112.569 48.8429 112.398 48.7335 112.206 48.6801L110.087 48.0891C109.88 48.0313 109.659 48.0419 109.458 48.1195L108.008 48.6796C107.868 48.7339 107.742 48.8192 107.636 48.9261Z" fill="#D18800"/>
<path d="M105.5 101C124.002 101 139 86.0015 139 67.5C139 48.9985 124.002 34 105.5 34V101Z" fill="#CE8500"/>
<path d="M135.5 67.5C135.5 84.0685 122.069 97.5 105.5 97.5C88.9315 97.5 75.5 84.0685 75.5 67.5C75.5 50.9315 88.9315 37.5 105.5 37.5C122.069 37.5 135.5 50.9315 135.5 67.5Z" fill="#FFBE2C" stroke="#FFBE2C"/>
<path d="M105.5 98C122.345 98 136 84.3447 136 67.5C136 50.6553 122.345 37 105.5 37V98Z" fill="#F5B422"/>
<path d="M89.7633 64.7071L90.1546 65.8861C90.2687 66.2296 90.1881 66.608 89.9441 66.8753L87.2615 69.814C87.0933 69.9982 87 70.2398 87 70.4893C87 70.8977 87.2483 71.267 87.6273 71.4192L88.3226 71.6985C88.4484 71.749 88.5512 71.844 88.6116 71.9653C88.6498 72.0419 88.6696 72.1263 88.6696 72.2119V73.7584V74.2156C88.6696 74.1373 88.5721 74.1013 88.5212 74.1609L88.2927 74.4286C88.244 74.4856 88.2287 74.5639 88.2523 74.6351L88.32 74.8389C88.3499 74.929 88.3499 75.0264 88.32 75.1165L88.3158 75.1293C88.2558 75.3099 88.3238 75.5083 88.4819 75.6141C88.5992 75.6926 88.6696 75.8245 88.6696 75.9657V76.4624C88.6696 76.5892 88.6456 76.7148 88.5986 76.8325L88.4921 77.1001C88.4104 77.3052 88.3988 77.5315 88.4592 77.7438L88.6311 78.3479C88.6567 78.4377 88.6942 78.5231 88.7467 78.6003C88.9261 78.8637 89.3948 79.5025 89.8998 79.7877C89.9874 79.8371 90.0866 79.8601 90.1867 79.8702L91.4193 79.994C91.5084 80.0029 91.5974 80 91.6857 79.985C92.1 79.9149 93.3988 79.6953 94.2857 79.5502C96.1806 79.2402 97.2567 79.147 99.1429 78.7881C99.3651 78.7458 99.6336 78.6925 99.8826 78.6423C100.338 78.5504 100.799 78.782 100.994 79.2042L102.634 82.7509L104.277 87.9547C104.454 88.5158 105.075 88.8034 105.618 88.5756L112.76 85.5766C112.889 85.5224 113.005 85.4417 113.101 85.3397L114.918 83.4073C115.269 83.0343 115.282 82.4565 114.947 82.0688L113.639 80.5532C113.588 80.4944 113.544 80.4299 113.509 80.3609L111.807 77.0853C111.763 77.0016 111.732 76.9121 111.713 76.8196L111.55 76.0017C111.481 75.651 111.603 75.2898 111.872 75.0542L116.328 71.1505C116.441 71.0515 116.531 70.9281 116.589 70.7898L117.581 68.459C117.634 68.3352 117.661 68.202 117.661 68.0675V66.882C117.661 66.257 118.241 65.8255 118.857 65.7201C118.916 65.7099 118.974 65.6969 119.027 65.6803C119.829 65.431 120.145 64.8952 120.545 64.1561C120.895 63.5086 121.159 63.0458 121 62.3271C120.915 61.9425 120.777 61.7447 120.553 61.4249L120.545 61.4126C120.109 60.7893 119.682 60.5786 119.027 60.1933C118.551 59.9139 118.519 59.1858 119.019 58.9539L119.479 58.7408C119.581 58.6935 119.673 58.626 119.748 58.5423L120.806 57.3613C120.933 57.22 121.017 57.0459 121.04 56.8575C121.095 56.3964 121.172 55.4802 121 54.8587C120.795 54.1168 120.082 53.2378 119.776 52.884C119.684 52.7777 119.611 52.6559 119.558 52.5256C119.409 52.1575 119.05 51.3788 118.571 51.0483C117.662 50.4203 115.76 51.0251 115.689 51.0477L115.684 51.0494L114.728 51.3694C114.08 51.5863 113.411 51.1042 113.411 50.4212V50.1978C113.411 49.9598 113.326 49.7295 113.171 49.5485L112.698 48.9941C112.569 48.8429 112.398 48.7335 112.206 48.6801L110.087 48.0891C109.88 48.0313 109.659 48.0419 109.458 48.1195L108.008 48.6796C107.868 48.7339 107.742 48.8192 107.636 48.9261C107.402 49.161 106.955 49.5912 106.58 49.829C104.729 51.005 103.135 49.5179 100.964 49.829C99.142 50.0901 98.0304 50.1732 96.4107 51.0483C95.4392 51.5732 94.958 51.99 94.1339 52.7249C93.2869 53.4804 92.5489 54.0353 92.1607 54.8587C91.8495 55.519 91.7446 56.5903 91.7153 56.989C91.7076 57.0927 91.6868 57.1946 91.6504 57.2921L90.7946 59.5836L90.381 61.245C90.3534 61.3559 90.307 61.4613 90.2437 61.5565L89.7321 62.3271L89.3626 63.0694C89.2141 63.3676 89.2238 63.7202 89.3886 64.0097L89.6833 64.5276C89.7158 64.5846 89.7426 64.6448 89.7633 64.7071Z" fill="#DD9408"/>
<path d="M107.636 48.9261C107.402 49.161 106.955 49.5912 106.58 49.829C106.212 50.0628 105.854 50.1914 105.5 50.2497V88.6251L112.76 85.5766C112.889 85.5224 113.005 85.4417 113.101 85.3397L114.918 83.4073C115.269 83.0343 115.282 82.4565 114.947 82.0688L113.639 80.5532C113.588 80.4944 113.544 80.4299 113.509 80.3609L111.807 77.0853C111.763 77.0016 111.732 76.9121 111.713 76.8196L111.55 76.0017C111.481 75.651 111.603 75.2898 111.872 75.0542L116.328 71.1505C116.441 71.0515 116.531 70.9281 116.589 70.7898L117.581 68.459C117.634 68.3352 117.661 68.202 117.661 68.0675V66.882C117.661 66.257 118.241 65.8255 118.857 65.7201C118.916 65.7099 118.974 65.6969 119.027 65.6803C119.829 65.431 120.145 64.8952 120.545 64.1561C120.895 63.5086 121.159 63.0458 121 62.3271C120.915 61.9425 120.777 61.7447 120.553 61.4249L120.545 61.4126C120.109 60.7893 119.682 60.5786 119.027 60.1933C118.551 59.9139 118.519 59.1858 119.019 58.9539L119.479 58.7408C119.581 58.6935 119.673 58.626 119.748 58.5423L120.806 57.3613C120.933 57.22 121.017 57.0459 121.04 56.8575C121.095 56.3964 121.172 55.4802 121 54.8587C120.795 54.1168 120.082 53.2378 119.776 52.884C119.684 52.7777 119.611 52.6559 119.558 52.5256C119.409 52.1575 119.05 51.3788 118.571 51.0483C117.662 50.4203 115.76 51.0251 115.689 51.0477L115.684 51.0494L114.728 51.3694C114.08 51.5863 113.411 51.1042 113.411 50.4212V50.1978C113.411 49.9598 113.326 49.7295 113.171 49.5485L112.698 48.9941C112.569 48.8429 112.398 48.7335 112.206 48.6801L110.087 48.0891C109.88 48.0313 109.659 48.0419 109.458 48.1195L108.008 48.6796C107.868 48.7339 107.742 48.8192 107.636 48.9261Z" fill="#E59C00"/>
</svg>
