<svg width="150" height="100" viewBox="0 0 150 100" fill="none" xmlns="http://www.w3.org/2000/svg">
<path d="M129.219 64H69.7869C69.7869 64 64 64 64 73.7101C64 81.9926 68.2103 83.6321 69.4484 83.9352L129.148 84C129.619 84 130 83.6107 130 83.1304C130 82.6502 129.619 82.2609 129.148 82.2609L70.3175 82.197C69.2073 81.9196 65.6848 80.5026 65.6848 73.686C65.6848 65.5942 70.6485 65.5942 70.6485 65.5942H129.219C129.65 65.5942 130 65.2373 130 64.7971C130 64.3569 129.65 64 129.219 64Z" fill="#E59C00"/>
<path d="M129 66H71.0175C71.0175 66 66 66 66 73.7681C66 81.5362 71.0175 82 71.0175 82H129C129 82 123.982 81.5362 123.982 73.7681C123.982 66 129 66 129 66Z" fill="#FBF9ED"/>
<path d="M129 66H71.0175C71.0175 66 66 66 66 73.7681C66 81.5362 71.0175 82 71.0175 82H129C129 82 123.982 81.5362 123.982 73.7681C123.982 66 129 66 129 66Z" fill="#FBF9ED"/>
<path d="M66 74C66 81.5493 71.0175 82 71.0175 82H129C129 82 123.982 81.5493 123.982 74H66Z" fill="#EDEBDF"/>
<path d="M61.7893 48.0037H118.149C118.149 48.0037 124 47.5791 124 55.7895C124 64 119.743 63.6407 118.491 63.9367L61.861 64C61.3855 64 61 63.6197 61 63.1506C61 62.6816 61.3855 62.3013 61.861 62.3013L117.612 62.2389C118.735 61.968 122.163 61.971 122.153 55.7659C122.143 49.5609 117.278 49.5609 117.278 49.5609H61.7893C61.3534 49.5609 61 49.2123 61 48.7823C61 48.3523 61.3534 48.0037 61.7893 48.0037Z" fill="#0A407A"/>
<path d="M63 50H117.921C117.921 50 123 50 123 55.8444C123 61.6889 117.921 62 117.921 62H63C63 62 68.0794 61.6889 68.0794 55.8444C68.0794 50 63 50 63 50Z" fill="#FBF9ED"/>
<path d="M63 50H117.921C117.921 50 123 50 123 55.8444C123 61.6889 117.921 62 117.921 62H63C63 62 68.0794 61.6889 68.0794 55.8444C68.0794 50 63 50 63 50Z" fill="#FBF9ED"/>
<path d="M117.945 61.9998C117.945 61.9998 123 62.1297 123 56H68.344C68.344 61.7557 63.6322 61.9923 63.0573 61.9998H63C63 61.9998 63.0199 62.0003 63.0573 61.9998H117.945Z" fill="#EDEBDF"/>
<path d="M131.186 31.004H73.0369C73.0369 31.004 67.0001 30.5527 67.0001 39.2764C67.0001 48 71.3922 47.6182 72.6837 47.9328L131.112 48C131.602 48 132 47.596 132 47.0976C132 46.5992 131.602 46.1951 131.112 46.1951L73.5904 46.1288C72.4323 45.841 68.8955 45.8442 68.9057 39.2513C68.916 32.6584 73.9357 32.6584 73.9357 32.6584H131.186C131.636 32.6584 132 32.2881 132 31.8312C132 31.3743 131.636 31.004 131.186 31.004Z" fill="#C31018"/>
<path d="M130 33H74.1641C74.1641 33 69.0001 33 69.0001 39.3315C69.0001 45.663 74.1641 46 74.1641 46H130C130 46 124.836 45.663 124.836 39.3315C124.836 33 130 33 130 33Z" fill="#FBF9ED"/>
<path d="M130 33H74.1641C74.1641 33 69.0001 33 69.0001 39.3315C69.0001 45.663 74.1641 46 74.1641 46H130C130 46 124.836 45.663 124.836 39.3315C124.836 33 130 33 130 33Z" fill="#FBF9ED"/>
<path d="M74.1392 45.9997C74.1392 45.9997 69.0001 46.1514 69.0001 39H124.567C124.567 45.715 129.357 45.9911 129.942 45.9997H130C130 45.9997 129.98 46.0003 129.942 45.9997H74.1392Z" fill="#EDEBDF"/>
<path d="M55 86H122.735C122.735 86 129 86 129 91.8444C129 97.6889 122.735 98 122.735 98H55C55 98 61.2645 97.6889 61.2645 91.8444C61.2645 86 55 86 55 86Z" fill="#FBF9ED"/>
<path d="M55 86H122.735C122.735 86 129 86 129 91.8444C129 97.6889 122.735 98 122.735 98H55C55 98 61.2645 97.6889 61.2645 91.8444C61.2645 86 55 86 55 86Z" fill="#FBF9ED"/>
<path d="M122.766 97.9998C122.766 97.9998 129 98.1297 129 92H61.5909C61.5909 97.7557 55.7798 97.9923 55.0706 97.9998H55C55 97.9998 55.0245 98.0003 55.0706 97.9998H122.766Z" fill="#EDEBDF"/>
<path d="M52.9898 84H123.663C123.663 84 131 85.5575 131 91.7876C131 98.0177 125.662 99.6406 124.092 99.9367L53.0797 100C52.4834 100 52 99.6196 52 99.1504C52 98.6812 52.4834 98.3009 53.0797 98.3009L87.7353 98.2385C89.1429 97.9675 93.4414 97.9705 93.4289 91.764C93.4165 85.5575 87.3156 85.5575 87.3156 85.5575H52.9898C52.4431 85.5575 52 85.2089 52 84.7788C52 84.3487 52.4431 84 52.9898 84Z" fill="#003E6C"/>
<path d="M52.9898 84H123.663C123.663 84 131 85.5575 131 91.7876C131 98.0177 125.662 99.6406 124.092 99.9367L53.0797 100C52.4834 100 52 99.6196 52 99.1504C52 98.6812 52.4834 98.3009 53.0797 98.3009L87.7353 98.2385C89.1429 97.9675 93.4414 97.9705 93.4289 91.764C93.4165 85.5575 87.3156 85.5575 87.3156 85.5575H52.9898C52.4431 85.5575 52 85.2089 52 84.7788C52 84.3487 52.4431 84 52.9898 84Z" fill="url(#paint0_linear)"/>
<path d="M116.578 84C116.578 84 124 85.6638 124 91.7526C124 97.8414 118.6 99.7106 117.012 100L113.424 99.9981C114.848 99.7333 121.802 97.7953 121.789 91.7295C121.777 85.6638 113 84.0028 113 84.0028L116.578 84Z" fill="url(#paint1_linear)"/>
<defs>
<linearGradient id="paint0_linear" x1="91.5" y1="84" x2="91.5" y2="100" gradientUnits="userSpaceOnUse">
<stop stop-color="#013861"/>
<stop offset="1" stop-color="white" stop-opacity="0"/>
</linearGradient>
<linearGradient id="paint1_linear" x1="118.645" y1="84" x2="118.645" y2="100" gradientUnits="userSpaceOnUse">
<stop stop-color="#B87E02"/>
<stop offset="1" stop-color="#E59C00"/>
</linearGradient>
</defs>
</svg>
