<svg width="150" height="100" viewBox="0 0 150 100" fill="none" xmlns="http://www.w3.org/2000/svg">
<rect x="71" y="55" width="65" height="19" rx="2" fill="#E0E0E0"/>
<path fill-rule="evenodd" clip-rule="evenodd" d="M74 22C72.8954 22 72 22.8954 72 24L71 60L74.5634 61.5837C75.1514 61.8451 75.5778 62.3734 75.709 63.0034L78 74H129L131.291 63.0034C131.422 62.3734 131.849 61.8451 132.437 61.5837L136 60L135 24C135 22.8954 134.105 22 133 22H74Z" fill="#C31018"/>
<path d="M135 24L136 60L132.437 61.5837C131.849 61.8451 131.422 62.3734 131.291 63.0034L129 74H103.5V24C103.5 22.8954 104.395 22 105.5 22H133C134.105 22 135 22.8954 135 24Z" fill="#A80000"/>
<rect x="71" y="75" width="65" height="12" rx="2" fill="#E0E0E0"/>
<path d="M136 85V77C136 75.8954 135.105 75 134 75H103.5V87H134C135.105 87 136 86.1046 136 85Z" fill="#CBCBCB"/>
<rect x="72" y="87" width="62" height="3" rx="1.5" fill="black"/>
<rect x="72" y="74" width="62" height="1" rx="0.5" fill="black"/>
<path d="M125 84C125 83.4477 125.448 83 126 83H135V84.095C135 84.6088 134.611 85.0389 134.1 85.09L126.1 85.89C125.511 85.9489 125 85.4866 125 84.895V84Z" fill="#ABABAB"/>
<path d="M82 84C82 83.4477 81.5523 83 81 83H72V84.095C72 84.6088 72.3893 85.0389 72.9005 85.09L80.9005 85.89C81.4892 85.9489 82 85.4866 82 84.895V84Z" fill="#C4C4C4"/>
<path d="M74 90H84V98C84 99.1046 83.1046 100 82 100H76C74.8954 100 74 99.1046 74 98V90Z" fill="black"/>
<path d="M122 90H132V98C132 99.1046 131.105 100 130 100H124C122.895 100 122 99.1046 122 98V90Z" fill="black"/>
<path d="M91 82H115L113.553 84.8944C113.214 85.572 112.521 86 111.764 86H94.2361C93.4785 86 92.786 85.572 92.4472 84.8944L91 82Z" fill="#262627"/>
<rect x="95.25" y="77.25" width="16.5" height="3.5" rx="0.75" stroke="black" stroke-width="0.5"/>
<path d="M83.2143 61.1789C83.1027 60.565 83.5743 60 84.1982 60H121.802C122.426 60 122.897 60.565 122.786 61.1789L121.299 69.3578C121.126 70.3088 120.297 71 119.331 71H86.6692C85.7026 71 84.8743 70.3088 84.7014 69.3578L83.2143 61.1789Z" fill="black"/>
<path d="M71.9512 23.95C71.9784 22.8653 72.8655 22 73.9506 22H133.049C134.134 22 135.022 22.8653 135.049 23.95L135.5 42H71.5L71.9512 23.95Z" fill="#262627"/>
<path d="M104 24C104 22.8954 104.895 22 106 22H133.049C134.134 22 135.022 22.8653 135.049 23.95L135.5 42H104V24Z" fill="black"/>
<path d="M75.11 33.0995C75.0511 32.5108 75.5134 32 76.105 32H130.895C131.487 32 131.949 32.5108 131.89 33.0995L130.27 49.2985C130.117 50.8321 128.826 52 127.285 52H79.715C78.1737 52 76.8832 50.8321 76.7299 49.2985L75.11 33.0995Z" fill="#90C2E0"/>
<path d="M130.27 49.2985L131.89 33.0995C131.949 32.5108 131.487 32 130.895 32H103.5V52H127.285C128.826 52 130.117 50.8321 130.27 49.2985Z" fill="#7EB0CE"/>
<circle cx="102.5" cy="20.5" r="1.5" fill="#C4C4C4"/>
<circle cx="99.5" cy="20.5" r="1.5" fill="#C4C4C4"/>
<circle cx="105.5" cy="20.5" r="1.5" fill="#C4C4C4"/>
<circle cx="108.5" cy="20.5" r="1.5" fill="#C4C4C4"/>
<rect x="63" y="32" width="5" height="12" rx="2" fill="#262627"/>
<path d="M65.5 32L66 29.5H72" stroke="#262627" stroke-linecap="square" stroke-linejoin="round"/>
<rect width="5" height="12" rx="2" transform="matrix(-1 0 0 1 144 32.5)" fill="black"/>
<path d="M141.5 32.5L141 30H135" stroke="black" stroke-linecap="square" stroke-linejoin="round"/>
<path d="M82 79C82 77.8954 81.1046 77 80 77H73C72.4477 77 72 77.4477 72 78V81C72 81.5523 72.4477 82 73 82H81C81.5523 82 82 81.5523 82 81V79Z" fill="#F7D100"/>
<path d="M82 79C82 77.8954 81.1046 77 80 77H73C72.4477 77 72 77.4477 72 78V81C72 81.5523 72.4477 82 73 82H81C81.5523 82 82 81.5523 82 81V79Z" fill="#F7D100"/>
<circle cx="75" cy="79" r="2" fill="#E3BD01"/>
<circle cx="78.5" cy="79.5" r="1.5" fill="#E3BD01"/>
<path d="M125 79C125 77.8954 125.895 77 127 77H134C134.552 77 135 77.4477 135 78V81C135 81.5523 134.552 82 134 82H126C125.448 82 125 81.5523 125 81V79Z" fill="#F7D100"/>
<path d="M125 79C125 77.8954 125.895 77 127 77H134C134.552 77 135 77.4477 135 78V81C135 81.5523 134.552 82 134 82H126C125.448 82 125 81.5523 125 81V79Z" fill="#F7D100"/>
<circle r="2" transform="matrix(-1 0 0 1 132 79)" fill="#E3BD01"/>
<circle r="1.5" transform="matrix(-1 0 0 1 128.5 79.5)" fill="#E3BD01"/>
</svg>
