<svg width="150" height="100" viewBox="0 0 150 100" fill="none" xmlns="http://www.w3.org/2000/svg">
<ellipse cx="129.971" cy="67.9999" rx="2" ry="8" fill="#E59C00"/>
<rect x="68.9706" y="53.9999" width="45" height="27" rx="1" fill="#1F3347"/>
<path d="M101.68 54.28C101.866 54.1003 102.115 53.9999 102.374 53.9999H112.971C113.523 53.9999 113.971 54.4476 113.971 54.9999V79.9999C113.971 80.5522 113.523 80.9999 112.971 80.9999H76.4483C75.5486 80.9999 75.1065 79.9045 75.7541 79.28L101.68 54.28Z" fill="#102438"/>
<rect x="113.971" y="60.9999" width="8" height="14" rx="2" fill="#1F3347"/>
<path d="M119.783 61.8741C119.893 61.3642 120.343 60.9999 120.865 60.9999C121.475 60.9999 121.971 61.495 121.971 62.1058V72.9999C121.971 74.1044 121.075 74.9999 119.971 74.9999H119.445C118.171 74.9999 117.222 73.8258 117.489 72.5808L119.783 61.8741Z" fill="#102438"/>
<path d="M121.971 61.5541C121.971 61.2093 122.148 60.8889 122.441 60.7061L128.441 56.9561C129.107 56.5398 129.971 57.0187 129.971 57.8041V78.1956C129.971 78.9811 129.107 79.4599 128.441 79.0436L122.441 75.2936C122.148 75.1109 121.971 74.7904 121.971 74.4456V61.5541Z" fill="#1F3347"/>
<path d="M80.9706 80.9999H101.971V84.9999C101.971 86.1044 101.075 86.9999 99.9706 86.9999H82.9706C81.866 86.9999 80.9706 86.1044 80.9706 84.9999V80.9999Z" fill="#102438"/>
<path d="M93.9706 86.9999H97.9706L105.971 99.9999H101.971L93.9706 86.9999Z" fill="#262627"/>
<path d="M88.9706 86.9999H84.9706L76.9706 99.9999H80.9706L88.9706 86.9999Z" fill="#262627"/>
<rect x="89.9706" y="86.9999" width="3" height="13" fill="black"/>
<rect x="74.9706" y="51.9999" width="31" height="2" fill="#1F3347"/>
<rect x="74.9706" y="51.9999" width="31" height="2" fill="#1F3347"/>
<rect x="74.9706" y="51.9999" width="31" height="2" fill="#1F3347"/>
<rect x="74.9706" y="51.9999" width="31" height="2" fill="#102438"/>
<rect x="72.9706" y="40.9999" width="35" height="11" fill="#1F3347"/>
<rect x="72.9706" y="40.9999" width="35" height="11" fill="#1F3347"/>
<rect x="72.9706" y="40.9999" width="35" height="11" fill="#1F3347"/>
<rect x="72.9706" y="40.9999" width="35" height="11" fill="#1F3347"/>
<circle cx="74.9706" cy="36.9999" r="13" fill="#262627" stroke="#E59C00" stroke-width="2"/>
<circle cx="104.471" cy="33.4999" r="16.5" fill="#262627" stroke="#E59C00" stroke-width="2"/>
<path d="M66.4853 28.5146C61.799 33.2009 61.799 40.7989 66.4853 45.4852L83.4558 28.5146C78.7696 23.8283 71.1716 23.8283 66.4853 28.5146Z" fill="black"/>
<path d="M93.5104 22.5397C87.4573 28.5928 87.4573 38.4069 93.5104 44.46L115.431 22.5397C109.378 16.4866 99.5636 16.4866 93.5104 22.5397Z" fill="black"/>
</svg>
