<svg width="150" height="100" viewBox="0 0 150 100" fill="none" xmlns="http://www.w3.org/2000/svg">
<rect x="105" y="29" width="9" height="5" fill="black"/>
<rect x="60" y="32" width="60" height="68" fill="#262627"/>
<rect x="65" y="36" width="23" height="23" fill="#F4728C"/>
<path d="M65 36V59L88 36H65Z" fill="#E5637D"/>
<rect x="65" y="63" width="23" height="23" fill="#FEC1C0"/>
<rect x="92" y="36" width="23" height="23" fill="#FBD7D1"/>
<rect x="92" y="63" width="23" height="23" fill="#FC9B95"/>
<rect x="65" y="90" width="50" height="6" fill="black"/>
<path d="M106 92L111.02 91.2828C112.065 91.1336 113 91.9444 113 93C113 94.0556 112.065 94.8664 111.02 94.7172L106 94V92Z" fill="white"/>
<path d="M74 92L68.9799 91.2828C67.9349 91.1336 67 91.9444 67 93C67 94.0556 67.9349 94.8664 68.9799 94.7172L74 94V92Z" fill="white"/>
<path d="M74 92H106V94H74V92Z" fill="#F2F2F2"/>
<path d="M92 36V59L115 36H92Z" fill="#ECC8C2"/>
<path d="M92 36V59L115 36H92Z" fill="#ECC8C2"/>
<path d="M92 63V86L115 63H92Z" fill="#E78680"/>
<path d="M65 63V86L88 63H65Z" fill="#EDB0AE"/>
<path d="M109 86H134V99C134 99.5523 133.552 100 133 100H110C109.448 100 109 99.5523 109 99V86Z" fill="#084A74"/>
<path d="M122 86H134V100H122V86Z" fill="#1F3347"/>
<path d="M103.099 21.0905C103.046 20.5049 103.507 20 104.095 20H138.905C139.493 20 139.954 20.5049 139.901 21.0905L134 86H109L103.099 21.0905Z" fill="white"/>
<path d="M122 20H138.905C139.493 20 139.954 20.5049 139.901 21.0905L134 86H122V20Z" fill="#F2F2F2"/>
<path d="M117 95H127L126.553 95.8944C126.214 96.572 125.521 97 124.764 97H119.236C118.479 97 117.786 96.572 117.447 95.8944L117 95Z" fill="#001125"/>
<rect x="103" y="20" width="37" height="3" fill="#D8D8D8"/>
</svg>
