<svg width="150" height="102" viewBox="0 0 150 102" fill="none" xmlns="http://www.w3.org/2000/svg">
<path d="M78.25 14.475C75.0606 14.475 72.475 17.0606 72.475 20.25V94.75C72.475 97.9394 75.0606 100.525 78.25 100.525H107.75C110.939 100.525 113.525 97.9394 113.525 94.75V20.25C113.525 17.0606 110.939 14.475 107.75 14.475H78.25Z" fill="white" stroke="#D5D5D6" stroke-width="1.05"/>
<path d="M93 15H107.75C110.649 15 113 17.3505 113 20.25V94.75C113 97.6495 110.649 100 107.75 100H93V15Z" fill="#F5F5F5"/>
<rect x="74" y="22" width="38" height="70" rx="1" fill="#262627"/>
<path d="M93.0444 22H110.95C111.53 22 112 22.4701 112 23.05V90.95C112 91.5299 111.53 92 110.95 92H93L93.0444 22Z" fill="black"/>
<rect x="92" y="18" width="2" height="2" rx="1" fill="#262627"/>
<rect x="87.75" y="94.75" width="10.5" height="2.5" rx="1.25" fill="#F2F2F2" stroke="#E0E0E0" stroke-width="0.5"/>
<path d="M88 96C88 95.4477 88.4477 95 89 95H93V97H89C88.4477 97 88 96.5523 88 96Z" fill="#F2F2F2"/>
<rect width="1" height="36" transform="matrix(-1 0 0 1 116 65)" fill="black"/>
<path fill-rule="evenodd" clip-rule="evenodd" d="M121 47V59C119.738 59 118.221 58.3562 117 57.3101V63V65.5C117 66.3284 116.328 67 115.5 67C114.672 67 114 66.3284 114 65.5V63V57.4V57V53.8C114 52.8811 114.228 51.8034 114.335 51.3488C114.341 51.275 114.358 51.2017 114.389 51.1291C115.396 48.7315 118.931 47 121 47Z" fill="#0F62BD"/>
<path d="M117 56.8462L116 56V67C116.552 67 117 66.5523 117 66V56.8462Z" fill="#09308B"/>
<rect width="3" height="8" transform="matrix(-1 0 0 1 124 49)" fill="black"/>
<path d="M122.024 54.6C122.024 57.9137 121.667 59 123.685 59C125.703 59 129 57.9137 129 54.6C129 53.8626 129 52.2 129 51.4C129 47.8 125.254 47 123.685 47C121.832 47 121.982 47.6645 122.019 50.6C122.022 50.8617 122.024 54.3288 122.024 54.6Z" fill="#262627"/>
<path d="M123.685 59C121.667 59 122.024 57.722 122.024 51L129 53.8235C129 57.722 125.703 59 123.685 59Z" fill="black"/>
<rect x="133" y="91" width="1" height="10" fill="black"/>
<path fill-rule="evenodd" clip-rule="evenodd" d="M128 73V85C129.262 85 130.779 84.3562 132 83.3101V89V91.5C132 92.3284 132.672 93 133.5 93C134.328 93 135 92.3284 135 91.5V89V83.4V83V79.8C135 78.8811 134.772 77.8034 134.665 77.3488C134.659 77.275 134.642 77.2017 134.611 77.1291C133.604 74.7315 130.069 73 128 73Z" fill="#0F62BD"/>
<path d="M132 82.8462L133 82V93C132.448 93 132 92.5523 132 92V82.8462Z" fill="#09308B"/>
<rect x="125" y="75" width="3" height="8" fill="black"/>
<path d="M126.976 80.6C126.976 83.9137 127.333 85 125.315 85C123.297 85 120 83.9137 120 80.6C120 79.8626 120 78.2 120 77.4C120 73.8 123.746 73 125.315 73C127.168 73 127.018 73.6645 126.981 76.6C126.978 76.8617 126.976 80.3288 126.976 80.6Z" fill="#262627"/>
<path d="M125.315 85C127.333 85 126.976 83.722 126.976 77L120 79.8235C120 83.722 123.297 85 125.315 85Z" fill="black"/>
</svg>
