<svg width="150" height="100" viewBox="0 0 150 100" fill="none" xmlns="http://www.w3.org/2000/svg">
<g clip-path="url(#clip0)">
<path d="M92.119 45.135L95.3168 43.4143L97.6713 47.79L92.119 45.135Z" fill="#CAE6F1"/>
<path d="M95.3168 43.4143L92.119 45.135L91.6449 44.2545L95.1141 43.0377L95.3168 43.4143Z" fill="#CAE6F1"/>
<path d="M97.6535 47.7364L91.9209 44.7492L94.4544 49.4578L96.988 54.1663L97.6535 47.7364Z" fill="#90C2E0"/>
<path d="M99.5215 58.8747L100.187 52.4448L96.9879 54.1662L99.5215 58.8747Z" fill="#A3D5F3"/>
<path d="M96.9879 54.1662L100.187 52.4448L100.064 52.2156L97.7452 53.4631L96.9879 54.1662Z" fill="#A3D5F3"/>
<path fill-rule="evenodd" clip-rule="evenodd" d="M89.3872 40.0407L91.9208 44.7492L95.1198 43.0279L89.3872 40.0407Z" fill="#B2E4FF"/>
<path d="M82.1106 58.7646L99.5214 58.8746L96.9879 54.1662L82.1106 58.7646Z" fill="#3F6997"/>
<path d="M89.3872 40.0407L79.8865 54.6314L91.9207 44.7492L89.3872 40.0407Z" fill="#CAE6F1"/>
<path d="M79.8865 54.6314L82.1106 58.7648L96.9879 54.1663L91.9207 44.7492L79.8865 54.6314Z" fill="#7CAECC"/>
<path d="M96.9825 54.1561L100.182 52.4347L97.6534 47.7363L96.9825 54.1561Z" fill="#BAD6E1"/>
<path d="M77.6923 49.7029L77.6923 47.4683L80.7501 47.4683L77.6923 49.7029Z" fill="#CAE6F1"/>
<path d="M77.6923 47.4683L77.6923 49.7029L77.0769 49.7031L77.4291 47.4683L77.6923 47.4683Z" fill="#CAE6F1"/>
<path d="M80.7158 47.4624L77.4255 49.6979L80.7159 49.6979L84.0063 49.6979L80.7158 47.4624Z" fill="#90C2E0"/>
<path d="M87.2966 49.6979L84.0062 47.4624L84.0063 49.6979L87.2966 49.6979Z" fill="#A3D5F3"/>
<path d="M84.0063 49.6979L84.0062 47.4624L83.8461 47.4624L83.8461 49.0825L84.0063 49.6979Z" fill="#A3D5F3"/>
<path fill-rule="evenodd" clip-rule="evenodd" d="M74.1351 49.6979L77.4255 49.6979L77.4255 47.4623L74.1351 49.6979Z" fill="#B2E4FF"/>
<path d="M82.16 59.101L87.2965 49.698L84.0062 49.6979L82.16 59.101Z" fill="#3F6997"/>
<path d="M74.1351 49.6979L79.2717 59.101L77.4255 49.6979L74.1351 49.6979Z" fill="#CAE6F1"/>
<path d="M79.2716 59.101L82.16 59.101L84.0062 49.6979L77.4254 49.6979L79.2716 59.101Z" fill="#7CAECC"/>
<path d="M83.9993 49.6979L83.9993 47.4624L80.7159 47.4624L83.9993 49.6979Z" fill="#BAD6E1"/>
<path d="M113.5 72H75V86H117L113.5 72Z" fill="#E59C00"/>
<path d="M75.6524 72.755C75.5401 72.311 75.1407 72 74.6828 72H60.3172C59.8593 72 59.4599 72.311 59.3476 72.755L56.3147 84.755C56.155 85.3867 56.6326 86 57.2842 86H77.7158C78.3674 86 78.845 85.3867 78.6853 84.755L75.6524 72.755Z" fill="#FABD02"/>
<path d="M111.5 72H73V86H115L111.5 72Z" fill="#E59C00"/>
<path d="M73.6524 72.755C73.5401 72.311 73.1407 72 72.6828 72H58.3172C57.8593 72 57.4599 72.311 57.3476 72.755L54.3147 84.755C54.155 85.3867 54.6326 86 55.2842 86H75.7158C76.3674 86 76.845 85.3867 76.6853 84.755L73.6524 72.755Z" fill="#FABD02"/>
<path d="M99.5 86H61V100H103L99.5 86Z" fill="#E59C00"/>
<path d="M62.6524 86.755C62.5401 86.311 62.1407 86 61.6828 86H47.3172C46.8593 86 46.4599 86.311 46.3476 86.755L43.3147 98.755C43.155 99.3867 43.6326 100 44.2842 100H64.7158C65.3674 100 65.845 99.3867 65.6853 98.755L62.6524 86.755Z" fill="#FABD02"/>
<path d="M122.5 86H84V100H126L122.5 86Z" fill="#E59C00"/>
<path d="M85.6524 86.755C85.5401 86.311 85.1407 86 84.6828 86H70.3172C69.8593 86 69.4599 86.311 69.3476 86.755L66.3147 98.755C66.155 99.3867 66.6326 100 67.2842 100H87.7158C88.3674 100 88.845 99.3867 88.6853 98.755L85.6524 86.755Z" fill="#FABD02"/>
<path d="M122.5 86H84V100H126L122.5 86Z" fill="#E59C00"/>
<path d="M85.6524 86.755C85.5401 86.311 85.1407 86 84.6828 86H70.3172C69.8593 86 69.4599 86.311 69.3476 86.755L66.3147 98.755C66.155 99.3867 66.6326 100 67.2842 100H87.7158C88.3674 100 88.845 99.3867 88.6853 98.755L85.6524 86.755Z" fill="#FABD02"/>
<path d="M145.689 86.7575C145.578 86.3123 145.178 86 144.719 86H107V100H149L145.689 86.7575Z" fill="url(#paint0_linear)"/>
<path d="M107.8 86.765C107.692 86.3162 107.29 86 106.828 86H93.1717C92.7099 86 92.3082 86.3162 92.1997 86.765L89.2986 98.765C89.1464 99.3942 89.6232 100 90.2706 100H109.729C110.377 100 110.854 99.3943 110.701 98.765L107.8 86.765Z" fill="#FABD02"/>
<path d="M134.689 72.7575C134.578 72.3123 134.178 72 133.719 72H96V86H138L134.689 72.7575Z" fill="url(#paint1_linear)"/>
<path d="M96.6524 72.755C96.5401 72.311 96.1407 72 95.6828 72H81.3172C80.8593 72 80.4599 72.311 80.3476 72.755L77.3147 84.755C77.155 85.3867 77.6326 86 78.2842 86H98.7158C99.3674 86 99.845 85.3867 99.6853 84.755L96.6524 72.755Z" fill="#FABD02"/>
<path d="M123.689 58.7575C123.578 58.3123 123.178 58 122.719 58H85V72H127L123.689 58.7575Z" fill="url(#paint2_linear)"/>
<path d="M85.8003 58.765C85.6918 58.3162 85.2901 58 84.8283 58H71.1717C70.7099 58 70.3082 58.3162 70.1997 58.765L67.2986 70.765C67.1464 71.3942 67.6232 72 68.2706 72H87.7294C88.3768 72 88.8536 71.3943 88.7014 70.765L85.8003 58.765Z" fill="#FABD02"/>
<path d="M122.692 76.7029L122.692 74.4683L125.75 74.4683L122.692 76.7029Z" fill="#CAE6F1"/>
<path d="M122.692 74.4683L122.692 76.7029L122.077 76.7031L122.429 74.4683L122.692 74.4683Z" fill="#CAE6F1"/>
<path d="M125.716 74.4624L122.425 76.6979L125.716 76.6979L129.006 76.6979L125.716 74.4624Z" fill="#90C2E0"/>
<path d="M132.297 76.6979L129.006 74.4624L129.006 76.6979L132.297 76.6979Z" fill="#A3D5F3"/>
<path d="M129.006 76.6979L129.006 74.4624L128.846 74.4624L128.846 76.0825L129.006 76.6979Z" fill="#A3D5F3"/>
<path fill-rule="evenodd" clip-rule="evenodd" d="M119.135 76.6979L122.425 76.6979L122.425 74.4623L119.135 76.6979Z" fill="#B2E4FF"/>
<path d="M127.16 86.101L132.297 76.698L129.006 76.6979L127.16 86.101Z" fill="#3F6997"/>
<path d="M119.135 76.6979L124.272 86.101L122.425 76.6979L119.135 76.6979Z" fill="#CAE6F1"/>
<path d="M124.272 86.101L127.16 86.101L129.006 76.6979L122.425 76.6979L124.272 86.101Z" fill="#7CAECC"/>
<path d="M128.999 76.6979L128.999 74.4624L125.716 74.4624L128.999 76.6979Z" fill="#BAD6E1"/>
<path d="M120.776 87.135L117.578 85.4143L115.224 89.79L120.776 87.135Z" fill="#CAE6F1"/>
<path d="M117.578 85.4143L120.776 87.135L121.25 86.2545L117.781 85.0377L117.578 85.4143Z" fill="#CAE6F1"/>
<path d="M115.241 89.7364L120.974 86.7492L118.44 91.4578L115.907 96.1663L115.241 89.7364Z" fill="#90C2E0"/>
<path d="M113.373 100.875L112.708 94.4448L115.907 96.1662L113.373 100.875Z" fill="#A3D5F3"/>
<path d="M115.907 96.1662L112.708 94.4448L112.831 94.2156L115.15 95.4631L115.907 96.1662Z" fill="#A3D5F3"/>
<path fill-rule="evenodd" clip-rule="evenodd" d="M123.508 82.0407L120.974 86.7492L117.775 85.0279L123.508 82.0407Z" fill="#B2E4FF"/>
<path d="M130.784 100.765L113.373 100.875L115.907 96.1662L130.784 100.765Z" fill="#3F6997"/>
<path d="M123.508 82.0407L133.008 96.6314L120.974 86.7492L123.508 82.0407Z" fill="#CAE6F1"/>
<path d="M133.008 96.6314L130.784 100.765L115.907 96.1663L120.974 86.7492L133.008 96.6314Z" fill="#7CAECC"/>
<path d="M115.912 96.1561L112.713 94.4347L115.241 89.7363L115.912 96.1561Z" fill="#BAD6E1"/>
</g>
<defs>
<linearGradient id="paint0_linear" x1="128" y1="86" x2="128" y2="100" gradientUnits="userSpaceOnUse">
<stop stop-color="#E59C00"/>
<stop offset="1" stop-color="#DB9200"/>
</linearGradient>
<linearGradient id="paint1_linear" x1="117" y1="72" x2="117" y2="86" gradientUnits="userSpaceOnUse">
<stop stop-color="#E59C00"/>
<stop offset="1" stop-color="#DC9300"/>
</linearGradient>
<linearGradient id="paint2_linear" x1="106" y1="58" x2="106" y2="72" gradientUnits="userSpaceOnUse">
<stop stop-color="#E59C00"/>
<stop offset="1" stop-color="#DB9200"/>
</linearGradient>
<clipPath id="clip0">
<rect width="150" height="100" fill="white"/>
</clipPath>
</defs>
</svg>
