<svg width="150" height="100" viewBox="0 0 150 100" fill="none" xmlns="http://www.w3.org/2000/svg">
<path fill-rule="evenodd" clip-rule="evenodd" d="M63.2279 85.5443L57 86V91C57.5523 91 58 91.4477 58 92C58 92.5523 57.5523 93 57 93V95.0854C57.1564 95.0301 57.3247 95 57.5 95C58.3284 95 59 95.6716 59 96.5C59 97.3284 58.3284 98 57.5 98C57.3247 98 57.1564 97.9699 57 97.9146V100H98V83L78.7498 84.4086C78.9101 84.7383 79 85.1087 79 85.5C79 86.8807 77.8807 88 76.5 88C75.1193 88 74 86.8807 74 85.5C74 85.2378 74.0404 84.9851 74.1152 84.7477L67.9 85.2024C67.5964 86.2412 66.6368 87 65.5 87C64.4921 87 63.6235 86.4035 63.2279 85.5443Z" fill="#E59C00"/>
<path d="M84 84L98 83V100H84V84Z" fill="#D08700"/>
<circle cx="66.5" cy="93.5" r="1.5" fill="#D08700"/>
<circle cx="75" cy="92" r="2" fill="#D08700"/>
<circle cx="87" cy="88" r="2" fill="#BE7500"/>
<circle cx="93" cy="92" r="3" fill="#BE7500"/>
<path d="M72 98C70.8954 98 70 98.8954 70 100H74C74 98.8954 73.1046 98 72 98Z" fill="#C68005"/>
<g clip-path="url(#clip0)">
<path d="M125.875 19.25H121.125C120.469 19.25 119.938 19.7817 119.938 20.4375V33.5C119.938 34.1558 120.469 34.6875 121.125 34.6875H125.875C126.531 34.6875 127.062 34.1558 127.062 33.5V20.4375C127.062 19.7817 126.531 19.25 125.875 19.25Z" fill="#1B1B1C"/>
<path d="M123.5 19.25H125.875C126.531 19.25 127.062 19.7817 127.062 20.4375V33.5C127.062 34.1559 126.531 34.6875 125.875 34.6875H123.5V19.25Z" fill="black"/>
<path d="M119.344 37.6562C118.975 38.4933 117.156 40.4375 117.156 40.4375H124.5V32.9062H119.938C119.938 32.9062 120.162 35.7989 119.344 37.6562Z" fill="#900202"/>
<path d="M125.5 100H115.188C114.532 100 114 99.4684 114 98.8125V47.75C114 47.75 114.311 44.6994 115.188 43C116.017 41.3903 118.156 39.4375 118.156 39.4375H125.5V100Z" fill="#900202"/>
<path d="M127.062 15.6875H119.938C119.282 15.6875 118.75 16.2192 118.75 16.875V20.4375C118.75 21.0933 119.282 21.625 119.938 21.625H127.062C127.718 21.625 128.25 21.0933 128.25 20.4375V16.875C128.25 16.2192 127.718 15.6875 127.062 15.6875Z" fill="#1B1B1C"/>
<path d="M123.5 15.6875H127.062C127.718 15.6875 128.25 16.2192 128.25 16.875V20.4375C128.25 21.0933 127.718 21.625 127.062 21.625H123.5V15.6875Z" fill="black"/>
<path d="M123.5 100H131.812C132.468 100 133 99.4684 133 98.8125V47.75C133 47.75 132.689 44.6994 131.812 43C130.983 41.3903 128.844 39.4375 128.844 39.4375H123.5V100Z" fill="#730000"/>
<path d="M127.656 37.6562C127.988 38.4236 128.844 39.4375 128.844 39.4375H123.5V32.9062H127.062C127.062 32.9062 126.92 35.9536 127.656 37.6562Z" fill="#730000"/>
</g>
<path d="M106.5 74C114.508 74 121 67.732 121 60H106.5V74Z" fill="#900202"/>
<path d="M106.5 74C98.4919 74 92 67.732 92 60H106.5V74Z" fill="#900202"/>
<path d="M98 99.5H114.5V100H98V99.5Z" fill="#C4C4C4"/>
<path d="M105.5 73H107.5V98H105.5V73Z" fill="#F2F2F2"/>
<path d="M106.5 73H107.5V98H106.5V73Z" fill="#E4E4E4"/>
<path d="M106.5 99.5H114.5C114.5 99.5 111.106 98.3787 109.5 97.5C107.894 96.6213 106.5 95 106.5 95V99.5Z" fill="#E4E4E4"/>
<path d="M106.5 99.5H98C98 99.5 101.894 98.3787 103.5 97.5C105.106 96.6213 106.5 95 106.5 95V99.5Z" fill="#F2F2F2"/>
<path d="M106.5 74C114.508 74 121 67.732 121 60C121 52.268 117 48 117 48H96C96 48 92 52.268 92 60C92 67.732 98.4919 74 106.5 74Z" fill="#F2F2F2"/>
<path d="M106.5 74C114.508 74 121 67.732 121 60C121 52.268 117 48 117 48H106.5V74Z" fill="#E4E4E4"/>
<path d="M106.5 74C114.508 74 121 67.732 121 60H106.5V61V74Z" fill="#730000"/>
<path d="M106.5 74C98.4919 74 92 67.732 92 60H106.5V61V74Z" fill="#900202"/>
<defs>
<clipPath id="clip0">
<rect width="19" height="84" fill="white" transform="translate(114 16)"/>
</clipPath>
</defs>
</svg>
