<svg width="150" height="101" viewBox="0 0 150 101" fill="none" xmlns="http://www.w3.org/2000/svg">
<g clip-path="url(#clip0)">
<path d="M139 85.3176C139 96.0575 129.636 101 119.5 101C109.364 101 100 96.0575 100 85.3176C100 74.5778 109.364 60.853 119.5 60.853C129.636 60.853 139 74.5778 139 85.3176Z" fill="#D99F5F"/>
<path d="M119.5 101C129.636 101 139 96.0575 139 85.3176C139 74.5778 129.636 60.853 119.5 60.853V101Z" fill="#C98F4F"/>
<path d="M134.412 62C133.265 68.9685 127.103 74.6176 119.5 74.6176C111.898 74.6176 105.736 68.9685 104.589 62C104.589 59.0967 104.511 56.4223 106.309 54.2901C108.827 51.3048 115.066 49.3823 119.5 49.3823C123.935 49.3823 130.174 51.3048 132.692 54.2901C134.49 56.4223 134.412 57.9496 134.412 62Z" fill="#D99F5F"/>
<path d="M119.501 74.6176C127.103 74.6176 133.265 68.9685 134.412 62C134.412 57.9496 134.49 56.4223 132.692 54.2901C130.174 51.3048 123.935 49.3823 119.501 49.3823V74.6176Z" fill="#C98F4F"/>
<path d="M117.042 20.7058H121.958L122.941 55.1176H116.059L117.042 20.7058Z" fill="#5E463C"/>
<path d="M117.042 20.7058H121.958L122.941 55.1176H116.059L117.042 20.7058Z" fill="#5E463C"/>
<path d="M117.042 20.7058H119.664L119.5 55.1176H116.059L117.042 20.7058Z" fill="#865942"/>
<path d="M119.5 71.1766C123.301 71.1766 126.382 68.0952 126.382 64.2942C126.382 60.4932 123.301 57.4119 119.5 57.4119C115.699 57.4119 112.618 60.4932 112.618 64.2942C112.618 68.0952 115.699 71.1766 119.5 71.1766Z" fill="#865942"/>
<path d="M119.5 70.0294C122.667 70.0294 125.235 67.4616 125.235 64.2941C125.235 61.1266 122.667 58.5588 119.5 58.5588C116.332 58.5588 113.765 61.1266 113.765 64.2941C113.765 67.4616 116.332 70.0294 119.5 70.0294Z" fill="#A0735C"/>
<path d="M119.5 68.8823C122.034 68.8823 124.088 66.8281 124.088 64.294C124.088 61.76 122.034 59.7058 119.5 59.7058C116.966 59.7058 114.912 61.76 114.912 64.294C114.912 66.8281 116.966 68.8823 119.5 68.8823Z" fill="#865942"/>
<path d="M119.5 68.8823C122.034 68.8823 124.088 66.828 124.088 64.294C124.088 61.7601 122.034 59.7058 119.5 59.7058V68.8823Z" fill="#5E463C"/>
<path d="M119.5 71.1766C123.301 71.1766 126.382 68.0952 126.382 64.2942C126.382 60.4932 123.301 57.4119 119.5 57.4119V71.1766Z" fill="#5E463C"/>
<path d="M119.5 70.0294C122.667 70.0294 125.235 67.4616 125.235 64.2941C125.235 61.1266 122.667 58.5588 119.5 58.5588C116.332 58.5588 113.765 61.1266 113.765 64.2941C113.765 67.4616 116.332 70.0294 119.5 70.0294Z" fill="#A0735C"/>
<path d="M119.5 70.0294C122.667 70.0294 125.235 67.4616 125.235 64.2941C125.235 61.1266 122.667 58.5588 119.5 58.5588V70.0294Z" fill="#946750"/>
<path d="M119.5 68.8823C122.034 68.8823 124.088 66.8281 124.088 64.294C124.088 61.76 122.034 59.7058 119.5 59.7058C116.966 59.7058 114.912 61.76 114.912 64.294C114.912 66.8281 116.966 68.8823 119.5 68.8823Z" fill="#865942"/>
<path d="M119.5 68.8823C122.034 68.8823 124.088 66.828 124.088 64.294C124.088 61.7601 122.034 59.7058 119.5 59.7058V68.8823Z" fill="#5E463C"/>
<path d="M113.765 78.0588H125.235V79.2059C125.235 81.1065 123.695 82.6471 121.794 82.6471H117.206C115.305 82.6471 113.765 81.1065 113.765 79.2059V78.0588Z" fill="#5E463C"/>
<path d="M113.765 78.0588H119.5V82.6471H117.206C115.305 82.6471 113.765 81.1065 113.765 79.2059V78.0588Z" fill="#865942"/>
<path d="M115.253 12.9881C115.07 10.9729 116.656 9.23535 118.68 9.23535H120.32C122.343 9.23535 123.93 10.9729 123.747 12.9881L123.131 19.7666C123.023 20.9482 122.033 21.853 120.846 21.853H118.154C116.967 21.853 115.976 20.9482 115.869 19.7666L115.253 12.9881Z" fill="#D99F5F"/>
<path d="M123.131 19.7666L123.747 12.9881C123.93 10.9729 122.344 9.23535 120.32 9.23535H119.5V21.853H120.846C122.033 21.853 123.023 20.9482 123.131 19.7666Z" fill="#C98F4F"/>
</g>
<path d="M89.5 88.434C99.7172 88.434 108 75.8063 108 65.3962H71C71 75.8063 79.2828 88.434 89.5 88.434Z" fill="#1F3347"/>
<path d="M89.5 88.434C99.7172 88.434 108 75.8063 108 65.3962H89.5V88.434Z" fill="#112539"/>
<path d="M80.7735 92.6226H98.2264L100.321 101H78.6792L80.7735 92.6226Z" fill="#003E6C"/>
<path d="M100.321 101L98.2264 92.6226H89.5V101H100.321Z" fill="#003260"/>
<path d="M82.4626 86.3396H96.5374L98.2264 92.8036H80.7736L82.4626 86.3396Z" fill="#E59C00"/>
<path d="M98.2264 92.8036L96.5374 86.3396H89.5V92.8036H98.2264Z" fill="#D48B00"/>
<path d="M71 64.6981C71 64.3126 71.3126 64 71.6981 64H107.302C107.687 64 108 64.3126 108 64.6981V65.3962H71V64.6981Z" fill="#C68005"/>
<path d="M89.5 64H107.302C107.687 64 108 64.3126 108 64.6981V65.3962H89.5V64Z" fill="#B67000"/>
<defs>
<clipPath id="clip0">
<rect width="39" height="92" fill="white" transform="translate(100 9)"/>
</clipPath>
</defs>
</svg>
