<svg width="150" height="101" viewBox="0 0 150 101" fill="none" xmlns="http://www.w3.org/2000/svg">
<path d="M99.5389 39H102V78H99.5389L98.9236 74.1L94 58.5C94 58.5 99.1229 41.8549 98.9236 42.9C98.7377 43.875 99.5389 39 99.5389 39Z" fill="#C4C4C4"/>
<path d="M102 39H99.3861L99 42.9H102V39Z" fill="#AAAAAB"/>
<path d="M99.3861 78H102V74.1H99.0934L99.3861 78Z" fill="#AAAAAB"/>
<path d="M126.461 39H124V78H126.461L127.076 74.1L132 58.5C132 58.5 126.823 41.9549 127.023 43C127.209 43.975 126.461 39 126.461 39Z" fill="#C4C4C4"/>
<path d="M124 39H126.698L127 43H124V39Z" fill="#AAAAAB"/>
<path d="M126.698 78H124V74.1H127L126.698 78Z" fill="#AAAAAB"/>
<rect x="101" y="15" width="24" height="86" fill="url(#paint0_angular)"/>
<rect x="113" y="15" width="12" height="86" fill="#032F50"/>
<ellipse cx="112.5" cy="58.5" rx="19.5" ry="18.5" fill="#E0E0E0"/>
<path d="M127.471 58.5C127.471 66.1836 120.802 72.4714 112.5 72.4714C104.198 72.4714 97.5286 66.1836 97.5286 58.5C97.5286 50.8164 104.198 44.5286 112.5 44.5286C120.802 44.5286 127.471 50.8164 127.471 58.5Z" fill="#F6F6F6" stroke="white" stroke-width="1.05715"/>
<rect x="112" y="57" width="1" height="11" fill="black"/>
<rect width="1.10608" height="6.58316" transform="matrix(-0.768002 -0.640447 0.698929 -0.715191 112.849 57.4166)" fill="black"/>
<circle cx="112.5" cy="57.5" r="1.5" fill="black"/>
<path d="M80 69L80 65.3687L84.969 65.3687L80 69Z" fill="#CAE6F1"/>
<path d="M80 65.3687L80 69L79 69.0002L79.5724 65.3687L80 65.3687Z" fill="#CAE6F1"/>
<path d="M84.9132 65.3589L79.5664 68.9917L84.9133 68.9917L90.2602 68.9917L84.9132 65.3589Z" fill="#90C2E0"/>
<path d="M95.607 68.9916L90.2601 65.3589L90.2601 68.9916L95.607 68.9916Z" fill="#A3D5F3"/>
<path d="M90.2601 68.9916L90.2601 65.3589L89.9999 65.3589L89.9999 67.9916L90.2601 68.9916Z" fill="#A3D5F3"/>
<path fill-rule="evenodd" clip-rule="evenodd" d="M74.2194 68.9917L79.5663 68.9917L79.5663 65.3589L74.2194 68.9917Z" fill="#B2E4FF"/>
<path d="M87.2601 84.2717L95.607 68.9917L90.2601 68.9917L87.2601 84.2717Z" fill="#3F6997"/>
<path d="M74.2195 68.9917L82.5665 84.2717L79.5664 68.9917L74.2195 68.9917Z" fill="#CAE6F1"/>
<path d="M82.5664 84.2717L87.2602 84.2717L90.2602 68.9917L79.5664 68.9917L82.5664 84.2717Z" fill="#7CAECC"/>
<path d="M90.2486 68.9918L90.2486 65.359L84.9132 65.359L90.2486 68.9918Z" fill="#BAD6E1"/>
<path fill-rule="evenodd" clip-rule="evenodd" d="M107 101C107 88.8497 97.1503 79 85 79C72.8497 79 63 88.8497 63 101H68.5036C68.6865 92.2359 75.8483 85.1875 84.6562 85.1875C93.4642 85.1875 100.626 92.2359 100.809 101H107Z" fill="url(#paint1_linear)"/>
<defs>
<radialGradient id="paint0_angular" cx="0" cy="0" r="1" gradientUnits="userSpaceOnUse" gradientTransform="translate(113 58) rotate(90) scale(43 12)">
<stop offset="0.454941" stop-color="#084A74"/>
<stop offset="0.894929" stop-color="#03385F"/>
</radialGradient>
<linearGradient id="paint1_linear" x1="85" y1="79" x2="85" y2="123" gradientUnits="userSpaceOnUse">
<stop stop-color="#FFBE2C"/>
<stop offset="1" stop-color="#E59C00"/>
</linearGradient>
</defs>
</svg>
