<svg width="150" height="101" viewBox="0 0 150 101" fill="none" xmlns="http://www.w3.org/2000/svg">
<path d="M99 58H106V101H99V58Z" fill="#262627"/>
<path d="M103 58H106V101H103V58Z" fill="black"/>
<path d="M69.5 71.5V44.5H126.425C126.783 44.5 127.13 44.6285 127.402 44.8621L142.698 58L127.402 71.1379C127.13 71.3715 126.783 71.5 126.425 71.5H69.5Z" fill="#003E6C" stroke="#E0E0E0" stroke-width="3"/>
<path d="M102 44C102 43.4477 102.448 43 103 43H126.425C127.142 43 127.835 43.2569 128.379 43.7242L144.117 57.2414C144.581 57.6404 144.581 58.3596 144.117 58.7586L128.379 72.2758C127.835 72.7431 127.142 73 126.425 73H103C102.448 73 102 72.5523 102 72V44Z" fill="#003260"/>
<path d="M69.5 71.5V44.5H126.425C126.783 44.5 127.13 44.6285 127.402 44.8621L142.698 58L127.402 71.1379C127.13 71.3715 126.783 71.5 126.425 71.5H69.5Z" stroke="#E0E0E0" stroke-width="3"/>
</svg>
