<svg width="150" height="100" viewBox="0 0 150 100" fill="none" xmlns="http://www.w3.org/2000/svg">
<g clip-path="url(#clip0)">
<ellipse cx="134.325" cy="72.5018" rx="4.58022" ry="11.6332" transform="rotate(-20 134.325 72.5018)" fill="#452D23"/>
<ellipse rx="4.58022" ry="11.6332" transform="matrix(-0.939693 -0.34202 -0.34202 0.939693 99.3251 72.5018)" fill="#573F35"/>
<ellipse cx="117.5" cy="77" rx="23" ry="16.5" transform="rotate(-90 117.5 77)" fill="#5E463C"/>
<path d="M134 77C134 64.2975 126.389 54 117 54V100C126.389 100 134 89.7025 134 77Z" fill="#553D33"/>
<ellipse cx="101.5" cy="37" rx="6.5" ry="6" fill="#865942"/>
<ellipse cx="131.5" cy="37" rx="6.5" ry="6" fill="#865942"/>
<ellipse cx="131" cy="37.5" rx="4" ry="3.5" fill="#A0735C"/>
<ellipse cx="131" cy="37.5" rx="4" ry="3.5" fill="#A0735C"/>
<ellipse cx="131" cy="37.5" rx="4" ry="3.5" fill="#A0735C"/>
<ellipse cx="131" cy="37.5" rx="4" ry="3.5" fill="#A0735C"/>
<ellipse cx="102" cy="37.5" rx="4" ry="3.5" fill="#A0735C"/>
<ellipse cx="102" cy="37.5" rx="4" ry="3.5" fill="#A0735C"/>
<ellipse cx="102" cy="37.5" rx="4" ry="3.5" fill="#A0735C"/>
<ellipse cx="102" cy="37.5" rx="4" ry="3.5" fill="#A0735C"/>
<ellipse cx="117" cy="47.5" rx="18" ry="16.5" fill="url(#paint0_linear)"/>
<ellipse cx="117" cy="54.5" rx="8" ry="7.5" fill="#A1745D"/>
<path d="M117 62C121.418 62 125 58.6421 125 54.5C125 50.3579 121.418 47 117 47V62Z" fill="#946750"/>
<path d="M104.681 84.6231C110.018 83.6334 113.672 88.4797 114.337 92.0618C115.001 95.6439 107.149 98.6504 101.812 99.6401C96.4754 100.63 98.3108 98.2053 97.6465 94.6233C96.9823 91.0412 99.3441 85.6128 104.681 84.6231Z" fill="#573F35"/>
<path d="M130.232 84.6231C124.895 83.6334 121.241 88.4797 120.577 92.0618C119.912 95.6439 127.764 98.6504 133.101 99.6401C138.438 100.63 136.603 98.2053 137.267 94.6233C137.931 91.0412 135.569 85.6128 130.232 84.6231Z" fill="#452D23"/>
<ellipse cx="100" cy="89" rx="11" ry="10" transform="rotate(-90 100 89)" fill="#865942"/>
<ellipse rx="11" ry="10" transform="matrix(0 -1 -1 0 134.631 89)" fill="#865942"/>
<path d="M119 54C119 54.5523 118.105 56 117 56C115.895 56 115 54.5523 115 54C115 53.4477 115.895 53 117 53C118.105 53 119 53.4477 119 54Z" fill="#262627"/>
<circle cx="125.5" cy="47.5" r="2.5" fill="#F2F2F2"/>
<circle cx="108.5" cy="47.5" r="2.5" fill="#F2F2F2"/>
<circle cx="108.5" cy="47.5" r="1.5" fill="#262627"/>
<circle cx="125.5" cy="47.5" r="1.5" fill="#262627"/>
<g clip-path="url(#clip1)">
<path d="M66.021 74.0994H60.0246C59.7589 74.0994 59.5436 74.3147 59.5436 74.5804V74.7781C59.5436 75.0437 59.7589 75.2591 60.0246 75.2591H66.021C66.2866 75.2591 66.502 75.0437 66.502 74.7781V74.5804C66.502 74.3147 66.2866 74.0994 66.021 74.0994Z" fill="#C31018"/>
<path d="M56.7044 76.113C56.8731 75.3865 57.5204 74.8723 58.2662 74.8723H69.9241C70.8097 74.8723 71.5275 75.5902 71.5275 76.4757V85.6965L54.5181 85.5274L56.7044 76.113Z" fill="#E0E0E0"/>
<path d="M54.5181 85.3101H71.5275V95.7191C71.5275 96.1619 71.1686 96.5208 70.7258 96.5208H55.9611C55.1641 96.5208 54.5181 95.8748 54.5181 95.0778V85.3101Z" fill="#C31018"/>
<path d="M58.7704 89.4964C58.7704 89.3194 58.914 89.1758 59.0911 89.1758H71.5275V90.7221H59.0911C58.914 90.7221 58.7704 90.5785 58.7704 90.4014V89.4964Z" fill="#E0E0E0"/>
<path d="M72.3005 85.3101H104V95.7191C104 96.1619 103.641 96.5208 103.198 96.5208H73.1022C72.6595 96.5208 72.3005 96.1619 72.3005 95.7191V85.3101Z" fill="#C31018"/>
<path d="M94.0595 85.3101H104V95.7191C104 96.1619 103.641 96.5208 103.198 96.5208H91.2181C90.6645 96.5208 90.2775 95.973 90.4626 95.4512L94.0595 85.3101Z" fill="#B30008"/>
<path d="M104 89.1758H72.3005V90.7221H104V89.1758Z" fill="#E0E0E0"/>
<path d="M104 85.3099V82.0482V76.7224C104 75.7006 103.171 74.8723 102.15 74.8723H73.1022C72.6595 74.8723 72.3005 75.2313 72.3005 75.674V85.3099H104Z" fill="#C31018"/>
<path d="M104 85.3099V82.0482V76.7224C104 75.7006 103.172 74.8723 102.15 74.8723H98.4132C98.0583 74.8723 97.7456 75.1058 97.6447 75.4463L94.7222 85.3099H104Z" fill="#B30008"/>
<path d="M104 83.7637H72.3005V85.31H104V83.7637Z" fill="#E0E0E0"/>
<path fill-rule="evenodd" clip-rule="evenodd" d="M60.7033 66.3677H57.2241L54.1315 66.3677V71.3932H57.2241H60.7033H61.0899H64.1825H64.5691H66.8885H67.6617H70.7543H71.1409H73.4604H74.2335H76.553H77.3261H80.0322H80.4188H83.1248H83.5114H86.2174H86.9906H89.6966H90.0832H92.7892H93.1758H96.2684H96.655H99.3611H99.7476H103.613V66.3677H99.7476H99.3611H96.655H96.2684H93.1758H92.7892H90.0832H89.6966H86.9906H86.2174H83.5114H83.1248H80.4188H80.0322H77.3261H76.553H74.2335H73.4604H71.1409H70.7543H67.6617H66.8885H64.5691H64.1825H61.0899H60.7033ZM99.3611 67.1408H97.0416V71.0066H99.3611V67.1408ZM96.2684 67.1408V71.0066H93.5624V67.1408H96.2684ZM92.7892 67.1408H90.4698V71.0066H92.7892V67.1408ZM89.6966 67.1408V71.0066H86.9906V67.1408H89.6966ZM86.2174 67.1408H83.898V71.0066H86.2174V67.1408ZM83.1248 67.1408V71.0066H80.8053V67.1408H83.1248ZM80.0322 67.1408H77.3261V71.0066H80.0322V67.1408ZM76.553 67.1408V71.0066H74.2335V67.1408H76.553ZM73.4604 67.1408H71.1409V71.0066H73.4604V67.1408ZM63.7959 71.0066H61.0899V67.1408H63.7959V71.0066ZM60.3167 67.1408H57.6107V71.0066H60.3167V67.1408ZM64.5691 71.0066H66.8885V67.1408H64.5691V71.0066ZM70.3677 71.0066H67.6617V67.1408H70.3677V71.0066ZM54.518 67.1408H56.8375V71.0066H54.518V67.1408ZM100.134 67.1408H102.84V71.0066H100.134V67.1408Z" fill="#E0E0E0"/>
<path d="M70.2075 76.0322H60.4771C60.3886 76.0322 60.3168 76.104 60.3168 76.1926V83.6034C60.3168 83.692 60.3886 83.7638 60.4771 83.7638H70.2075C70.296 83.7638 70.3678 83.692 70.3678 83.6034V76.1926C70.3678 76.104 70.296 76.0322 70.2075 76.0322Z" fill="#06446D"/>
<path d="M67.6214 76.133C67.6457 76.0722 67.7047 76.0322 67.7702 76.0322H70.2074C70.2959 76.0322 70.3677 76.104 70.3677 76.1926V83.6034C70.3677 83.692 70.2959 83.7638 70.2074 83.7638H64.8059C64.6925 83.7638 64.6149 83.6492 64.657 83.5439L67.6214 76.133Z" fill="#03345D"/>
<path d="M56.6765 76.0322H59.3832C59.4718 76.0322 59.5436 76.104 59.5436 76.1926V83.4431C59.5436 83.6202 59.4 83.7638 59.2229 83.7638H54.9047L56.6765 76.0322Z" fill="#06446D"/>
<path d="M75.0067 76.8997C75.0067 76.6341 75.2221 76.4187 75.4877 76.4187H93.0815C93.3471 76.4187 93.5624 76.6341 93.5624 76.8997V78.3516H75.0067V76.8997Z" fill="#E0E0E0"/>
<path d="M93.5624 78.3516H75.0067V79.8979H93.5624V78.3516Z" fill="#E0E0E0"/>
<path d="M93.5624 79.8979H75.0067V81.8308H93.5624V79.8979Z" fill="#E0E0E0"/>
<path d="M62.3155 85.6965H59.8643C59.6872 85.6965 59.5436 85.8401 59.5436 86.0172V86.149C59.5436 86.3261 59.6872 86.4697 59.8643 86.4697H62.3155C62.4926 86.4697 62.6362 86.3261 62.6362 86.149V86.0172C62.6362 85.8401 62.4926 85.6965 62.3155 85.6965Z" fill="black"/>
<path d="M95.1087 88.4026C91.9062 88.4026 89.3101 91.0751 89.3101 94.3718C89.3101 95.1294 89.4471 95.854 89.6972 96.5207H100.52C100.77 95.854 100.907 95.1294 100.907 94.3718C100.907 91.0751 98.3111 88.4026 95.1087 88.4026Z" fill="#900202"/>
<path d="M95.1087 100C97.898 100 100.159 97.5769 100.159 94.5879C100.159 91.5989 97.898 89.1758 95.1087 89.1758C92.3194 89.1758 90.0582 91.5989 90.0582 94.5879C90.0582 97.5769 92.3194 100 95.1087 100Z" fill="black"/>
<path d="M95.1087 99.2268C97.4848 99.2268 99.411 97.1499 99.411 94.5879C99.411 92.0259 97.4848 89.949 95.1087 89.949C92.7327 89.949 90.8065 92.0259 90.8065 94.5879C90.8065 97.1499 92.7327 99.2268 95.1087 99.2268Z" fill="#262627"/>
<path d="M95.1087 97.2939C96.6583 97.2939 97.9145 96.0824 97.9145 94.5879C97.9145 93.0934 96.6583 91.8818 95.1087 91.8818C93.5591 91.8818 92.3029 93.0934 92.3029 94.5879C92.3029 96.0824 93.5591 97.2939 95.1087 97.2939Z" fill="#C4C4C4"/>
<path d="M95.1087 96.9075C96.4517 96.9075 97.5404 95.869 97.5404 94.588C97.5404 93.307 96.4517 92.2686 95.1087 92.2686C93.7657 92.2686 92.677 93.307 92.677 94.588C92.677 95.869 93.7657 96.9075 95.1087 96.9075Z" fill="#900202"/>
<path d="M95.0584 92.2686C93.7433 92.2686 92.6771 93.2929 92.6771 94.5565C92.6771 95.1682 92.9269 95.7238 93.3339 96.1343C93.3339 96.1343 92.9531 94.5565 93.8268 93.5308C94.7001 92.5053 96.0438 92.473 96.0438 92.473C95.7438 92.3417 95.4098 92.2686 95.0584 92.2686Z" fill="#730000"/>
<path d="M95.0403 89.949C92.7019 89.949 90.8064 91.9976 90.8064 94.5248C90.8064 95.7483 91.2507 96.8596 91.9744 97.6805C91.9744 97.6805 90.3518 94.8617 92.3029 92.2846C94.254 89.7074 96.7922 90.3579 96.7922 90.3579C96.2584 90.0953 95.665 89.949 95.0403 89.949Z" fill="#1B1B1C"/>
<path d="M95.1088 95.3611C95.4187 95.3611 95.6699 95.1015 95.6699 94.7813C95.6699 94.461 95.4187 94.2014 95.1088 94.2014C94.7988 94.2014 94.5476 94.461 94.5476 94.7813C94.5476 95.1015 94.7988 95.3611 95.1088 95.3611Z" fill="#C4C4C4"/>
<path d="M64.5691 88.4026C61.3665 88.4026 58.7704 91.0751 58.7704 94.3718C58.7704 95.1294 58.9075 95.854 59.1575 96.5207H69.9806C70.2306 95.854 70.3677 95.1294 70.3677 94.3718C70.3677 91.0751 67.7716 88.4026 64.5691 88.4026Z" fill="#900202"/>
<path d="M64.5691 100C67.3584 100 69.6196 97.5769 69.6196 94.5879C69.6196 91.5989 67.3584 89.1758 64.5691 89.1758C61.7798 89.1758 59.5187 91.5989 59.5187 94.5879C59.5187 97.5769 61.7798 100 64.5691 100Z" fill="black"/>
<path d="M64.5691 99.2268C66.9451 99.2268 68.8713 97.1499 68.8713 94.5879C68.8713 92.0259 66.9451 89.949 64.5691 89.949C62.193 89.949 60.2668 92.0259 60.2668 94.5879C60.2668 97.1499 62.193 99.2268 64.5691 99.2268Z" fill="#262627"/>
<path d="M64.5691 97.2939C66.1187 97.2939 67.3749 96.0824 67.3749 94.5879C67.3749 93.0934 66.1187 91.8818 64.5691 91.8818C63.0195 91.8818 61.7633 93.0934 61.7633 94.5879C61.7633 96.0824 63.0195 97.2939 64.5691 97.2939Z" fill="#C4C4C4"/>
<path d="M64.569 96.9075C65.912 96.9075 67.0007 95.869 67.0007 94.588C67.0007 93.307 65.912 92.2686 64.569 92.2686C63.226 92.2686 62.1373 93.307 62.1373 94.588C62.1373 95.869 63.226 96.9075 64.569 96.9075Z" fill="#900202"/>
<path d="M64.519 92.2686C63.2037 92.2686 62.1375 93.2929 62.1375 94.5565C62.1375 95.1682 62.3873 95.7238 62.7944 96.1343C62.7944 96.1343 62.4137 94.5565 63.2872 93.5308C64.1606 92.5053 65.5044 92.473 65.5044 92.473C65.2041 92.3417 64.8704 92.2686 64.519 92.2686Z" fill="#730000"/>
<path d="M64.5006 89.949C62.1623 89.949 60.2667 91.9976 60.2667 94.5248C60.2667 95.7483 60.711 96.8596 61.4347 97.6805C61.4347 97.6805 59.8121 94.8617 61.7632 92.2846C63.7142 89.7074 66.2525 90.3579 66.2525 90.3579C65.7186 90.0953 65.1254 89.949 64.5006 89.949Z" fill="#1B1B1C"/>
<path d="M64.5691 95.3611C64.879 95.3611 65.1303 95.1015 65.1303 94.7813C65.1303 94.461 64.879 94.2014 64.5691 94.2014C64.2592 94.2014 64.0079 94.461 64.0079 94.7813C64.0079 95.1015 64.2592 95.3611 64.5691 95.3611Z" fill="#C4C4C4"/>
<path d="M93.5624 79.8979H75.0067V80.2845H93.5624V79.8979Z" fill="#C4C4C4"/>
<path d="M93.5624 81.8308H75.0067V82.2174H93.5624V81.8308Z" fill="#C4C4C4"/>
<path d="M71.9799 77.1919H71.8481C71.671 77.1919 71.5275 77.3355 71.5275 77.5126V95.0404C71.5275 95.2175 71.671 95.361 71.8481 95.361H71.9799C72.157 95.361 72.3006 95.2175 72.3006 95.0404V77.5126C72.3006 77.3355 72.157 77.1919 71.9799 77.1919Z" fill="#262627"/>
<path d="M54.5181 86.4697H56.3565C56.6222 86.4697 56.8375 86.6851 56.8375 86.9507V89.8545C56.8375 90.1201 56.6222 90.3355 56.3565 90.3355H54.5181V86.4697Z" fill="#262627"/>
<path d="M54.5181 86.8564H56.1303C56.3074 86.8564 56.451 87 56.451 87.1771V89.6284C56.451 89.8055 56.3074 89.9491 56.1303 89.9491H54.5181V86.8564Z" fill="#FABD02"/>
<path d="M56.0644 86.8564H56.1303C56.3074 86.8564 56.451 87 56.451 87.1771V89.6284C56.451 89.8055 56.3074 89.9491 56.1303 89.9491H54.9047L56.0644 86.8564Z" fill="#E4A702"/>
<path d="M61.4764 73.3262V74.0994H62.6362V72.1665C61.9957 72.1665 61.4764 72.6858 61.4764 73.3262Z" fill="#0F62BD"/>
<path d="M63.7958 73.3262V74.0994H62.6361V72.1665C63.2766 72.1665 63.7958 72.6858 63.7958 73.3262Z" fill="#084A74"/>
<path d="M60.7032 74.0333C60.7032 73.8562 60.8468 73.7126 61.0239 73.7126H63.8618C64.0389 73.7126 64.1824 73.8562 64.1824 74.0333V74.0992H60.7032V74.0333Z" fill="#C4C4C4"/>
<path d="M103.613 71.3933H53.3583V71.7799H103.613V71.3933Z" fill="#C4C4C4"/>
<path d="M101.294 72.553H97.4282V74.8724H101.294V72.553Z" fill="#C4C4C4"/>
<path d="M101.294 72.553H100.907V74.8724H101.294V72.553Z" fill="#ABABAB"/>
<path d="M54.1314 66.3677H53.3583V71.7798H54.1314V66.3677Z" fill="#C31018"/>
<path d="M102.067 72.6189C102.067 72.7959 101.924 72.9395 101.746 72.9395H99.1678H96.5893C96.4119 72.9395 96.2684 72.7959 96.2684 72.6189V71.7798H102.067V72.6189Z" fill="#C31018"/>
<path d="M93.5624 77.9651H75.0067V78.3517H93.5624V77.9651Z" fill="#C4C4C4"/>
<path d="M59.1166 76.133C59.141 76.0722 59.1999 76.0322 59.2655 76.0322H59.3831C59.4717 76.0322 59.5435 76.104 59.5435 76.1926V83.6034C59.5435 83.692 59.4717 83.7638 59.3831 83.7638H56.3011C56.1877 83.7638 56.1101 83.6492 56.1523 83.5439L59.1166 76.133Z" fill="#03345D"/>
</g>
</g>
<defs>
<linearGradient id="paint0_linear" x1="117" y1="31" x2="117" y2="64" gradientUnits="userSpaceOnUse">
<stop stop-color="#5E463C"/>
<stop offset="0.933702" stop-color="#533B31"/>
</linearGradient>
<clipPath id="clip0">
<rect width="150" height="100" fill="white"/>
</clipPath>
<clipPath id="clip1">
<rect width="51" height="33" fill="white" transform="translate(53 67)"/>
</clipPath>
</defs>
</svg>
