<svg width="150" height="101" viewBox="0 0 150 101" fill="none" xmlns="http://www.w3.org/2000/svg">
<g clip-path="url(#clip0)">
<path d="M66.5503 48.527C66.5503 44.6914 69.6596 41.582 73.4953 41.582H133.685V55.472H66.5503V48.527Z" fill="#003E6C"/>
<path d="M66.5503 50.8418H133.685V55.4718H66.5503V50.8418Z" fill="#002D5B"/>
<path d="M90.2986 55.4719H72.5503V58.5586H90.2986V55.4719Z" fill="#ABABAB"/>
<path d="M90.2985 55.4719H81.0386V58.5586H90.2985V55.4719Z" fill="#9D9D9D"/>
<path d="M74.0935 58.5586H88.7551L87.2118 64.7319H75.6368L74.0935 58.5586Z" fill="#828282"/>
<path d="M81.0386 58.5586H88.7552L87.2119 64.7319H81.0386V58.5586Z" fill="#767676"/>
<path d="M87.2119 64.7319H75.637V65.5036H87.2119V64.7319Z" fill="#ABABAB"/>
<path d="M87.2119 64.7319H81.0386V65.5036H87.2119V64.7319Z" fill="#9D9D9D"/>
<path d="M83.3536 65.5034H79.4952V73.9917H83.3536V65.5034Z" fill="#C4C4C4"/>
<path d="M83.3535 65.5034H81.8102V73.9917H83.3535V65.5034Z" fill="#ABABAB"/>
<path d="M81.4244 76.3067L83.3536 73.9917H79.4952L81.4244 76.3067Z" fill="#828282"/>
<path d="M79.4952 71.6768V73.9917H83.3536L79.4952 71.6768Z" fill="#828282"/>
<path d="M79.4952 66.2751V68.5901H83.3536L79.4952 66.2751Z" fill="#828282"/>
<path d="M83.3536 70.9051V68.5901H79.4952L83.3536 70.9051Z" fill="#828282"/>
<path d="M129.653 55.4719H105.732V87.8818H129.653V55.4719Z" fill="#1F3347"/>
<path d="M129.653 55.4719H117.307V87.8818H129.653V55.4719Z" fill="#12263A"/>
<path d="M124.252 58.5585C124.252 58.1323 124.597 57.7869 125.023 57.7869H126.567C126.993 57.7869 127.338 58.1323 127.338 58.5585V70.1335C127.338 70.5597 126.993 70.9051 126.567 70.9051H125.023C124.597 70.9051 124.252 70.5597 124.252 70.1335V58.5585Z" fill="#828282"/>
<path d="M126.567 57.7869H127.338C127.765 57.7869 128.11 58.1323 128.11 58.5585V70.1335C128.11 70.5597 127.765 70.9051 127.338 70.9051H126.567V57.7869Z" fill="#767676"/>
<path d="M122.708 57.7869H121.937C121.511 57.7869 121.165 58.1324 121.165 58.5585V60.8735C121.165 61.2997 121.511 61.6452 121.937 61.6452H122.708C123.135 61.6452 123.48 61.2997 123.48 60.8735V58.5585C123.48 58.1324 123.135 57.7869 122.708 57.7869Z" fill="#C4C4C4"/>
<path d="M122.708 62.4167H121.937C121.511 62.4167 121.165 62.7622 121.165 63.1884V65.5034C121.165 65.9296 121.511 66.2751 121.937 66.2751H122.708C123.135 66.2751 123.48 65.9296 123.48 65.5034V63.1884C123.48 62.7622 123.135 62.4167 122.708 62.4167Z" fill="#900202"/>
<path d="M122.708 67.0469H121.937C121.511 67.0469 121.165 67.3924 121.165 67.8185V70.1335C121.165 70.5597 121.511 70.9052 121.937 70.9052H122.708C123.135 70.9052 123.48 70.5597 123.48 70.1335V67.8185C123.48 67.3924 123.135 67.0469 122.708 67.0469Z" fill="#C4C4C4"/>
<path d="M66.377 88.6534C66.377 87.8011 67.0679 87.1101 67.9203 87.1101H133.512C134.364 87.1101 135.055 87.8011 135.055 88.6534V101H66.377V88.6534Z" fill="#003E6C"/>
<path d="M134.228 40.0386H133.457C133.031 40.0386 132.685 40.3841 132.685 40.8102V56.2435C132.685 56.6697 133.031 57.0152 133.457 57.0152H134.228C134.655 57.0152 135 56.6697 135 56.2435V40.8102C135 40.3841 134.655 40.0386 134.228 40.0386Z" fill="#1F3347"/>
<path d="M97.2435 81.7085H64.8336C63.9813 81.7085 63.2903 82.3995 63.2903 83.2518C63.2903 84.1042 63.9813 84.7952 64.8336 84.7952H97.2435C98.0958 84.7952 98.7868 84.1042 98.7868 83.2518C98.7868 82.3995 98.0958 81.7085 97.2435 81.7085Z" fill="#ABABAB"/>
<path d="M81.0386 81.7085H97.2435C98.0959 81.7085 98.7868 82.3994 98.7868 83.2518C98.7868 84.1042 98.0959 84.7952 97.2435 84.7952H81.0386V81.7085Z" fill="#9D9D9D"/>
<path d="M93.3852 84.7952H67.9203V87.1102H93.3852V84.7952Z" fill="#828282"/>
<path d="M93.3852 84.7952H81.0386V87.1102H93.3852V84.7952Z" fill="#767676"/>
<path d="M66.377 96.3701H135.055V101H66.377V96.3701Z" fill="#002D5B"/>
</g>
<defs>
<clipPath id="clip0">
<rect width="79" height="61" fill="white" transform="translate(63 40)"/>
</clipPath>
</defs>
</svg>
