<svg width="150" height="100" viewBox="0 0 150 100" fill="none" xmlns="http://www.w3.org/2000/svg">
<path d="M115 99C115 98.4477 115.448 98 116 98H134C134.552 98 135 98.4477 135 99V100H115V99Z" fill="#1B1B1C"/>
<rect x="124" y="36" width="2" height="64" fill="#1B1B1C"/>
<rect x="113" y="21" width="25" height="15" fill="#FFBE2C"/>
<rect x="125" y="21" width="13" height="15" fill="#EEB100"/>
<path d="M62.355 47.2776C62.1538 43.153 65.1252 39.5553 69.2293 39.0977C73.9865 38.5674 80.1979 38 85 38C89.8021 38 96.0135 38.5674 100.771 39.0977C104.875 39.5553 107.846 43.153 107.645 47.2776L106 81H64L62.355 47.2776Z" fill="#C31018"/>
<path d="M106 81L107.641 47.3684C107.844 43.206 104.817 39.5849 100.685 39.0458L96.5 38.5L85 38V81H106Z" fill="#900202"/>
<path d="M85 70C73.402 70 64 75.8203 64 83H106C106 75.8203 96.598 70 85 70Z" fill="#AC0001"/>
<path d="M106 83C106 75.8203 96.598 70 85 70V83H106Z" fill="#7E0404"/>
<rect x="63" y="71" width="3" height="29" fill="#262627"/>
<rect x="104" y="71" width="3" height="29" fill="#262627"/>
<circle cx="64.5" cy="72.5" r="2.5" fill="#1B1B1C"/>
<circle cx="64.5" cy="72.5" r="2.5" fill="#1B1B1C"/>
<circle cx="64.5" cy="72.5" r="2.5" fill="#1B1B1C"/>
<circle cx="64.5" cy="72.5" r="2.5" fill="#1B1B1C"/>
<circle cx="105.5" cy="72.5" r="2.5" fill="#1B1B1C"/>
<circle cx="105.5" cy="72.5" r="2.5" fill="#1B1B1C"/>
<circle cx="105.5" cy="72.5" r="2.5" fill="#1B1B1C"/>
<circle cx="105.5" cy="72.5" r="2.5" fill="#1B1B1C"/>
<rect x="66" y="81" width="19" height="9" fill="#C31018"/>
<path d="M85 81H104V90H85V81Z" fill="#900202"/>
</svg>
