<svg width="22" height="22" viewBox="0 0 22 22" fill="none" xmlns="http://www.w3.org/2000/svg">
<path d="M5.7844 9.51585C6.01804 10.7602 6.66447 11.8894 7.61923 12.721C8.57399 13.5527 9.78129 14.038 11.046 14.0988C12.3118 14.0413 13.5207 13.557 14.4761 12.7249C15.4315 11.8927 16.0771 10.7616 16.3076 9.51585C16.5909 9.40168 16.8346 9.20727 17.0088 8.95651C17.1831 8.70574 17.2803 8.40955 17.2885 8.10431C17.2872 7.70855 17.129 7.32945 16.8485 7.05023C16.9495 6.60212 16.9987 6.14387 16.9951 5.68452C16.9496 4.13744 16.2934 2.6713 15.1701 1.60646C14.0468 0.541626 12.5476 -0.0353272 11.0002 0.00167612C9.45277 -0.0353272 7.9536 0.541626 6.83028 1.60646C5.70696 2.6713 5.05083 4.13744 5.00524 5.68452C5.00872 6.14349 5.05785 6.60099 5.15191 7.05023C4.88577 7.33887 4.72997 7.71213 4.71191 8.10431C4.75673 8.41108 4.87862 8.70147 5.06618 8.94833C5.25374 9.19519 5.50085 9.39045 5.7844 9.51585" fill="#09308B"/>
<path d="M21.6883 19.25C19.6624 17.5386 17.2539 16.3407 14.6667 15.7578C14.5801 15.7203 14.4857 15.7046 14.3917 15.712H14.1717C14.0597 15.7211 13.9507 15.7523 13.8508 15.8036C12.9658 16.184 12.0089 16.3684 11.0459 16.3444C10.0828 16.3693 9.12572 16.1848 8.2409 15.8036C8.14103 15.7523 8.032 15.7211 7.92007 15.712H7.51674C4.84849 16.2775 2.36107 17.4928 0.275133 19.25C0.187422 19.3202 0.11701 19.4096 0.0693295 19.5113C0.0216492 19.613 -0.00202439 19.7243 0.000135581 19.8366V21.2298C-0.00109435 21.3313 0.0179821 21.432 0.0562424 21.5259C0.0945027 21.6199 0.151174 21.7053 0.222921 21.777C0.294668 21.8487 0.380041 21.9054 0.474016 21.9437C0.567992 21.9819 0.668671 22.001 0.770129 21.9998H21.2299C21.331 22.0022 21.4314 21.9843 21.5254 21.9471C21.6193 21.9098 21.7048 21.8541 21.7767 21.783C21.8485 21.712 21.9054 21.6272 21.9437 21.5338C21.9821 21.4403 22.0012 21.34 21.9999 21.239V19.8458C21.947 19.6272 21.8398 19.4254 21.6883 19.2592" fill="#09308B"/>
</svg>
