<svg width="22" height="22" viewBox="0 0 22 22" fill="none" xmlns="http://www.w3.org/2000/svg">
<path d="M5.78416 9.51585C6.01779 10.7602 6.66423 11.8894 7.61898 12.721C8.57374 13.5527 9.78105 14.038 11.0458 14.0988C12.3115 14.0413 13.5205 13.557 14.4759 12.7249C15.4313 11.8927 16.0768 10.7616 16.3074 9.51585C16.5906 9.40168 16.8343 9.20727 17.0086 8.95651C17.1828 8.70574 17.28 8.40955 17.2882 8.10431C17.287 7.70855 17.1287 7.32945 16.8482 7.05023C16.9493 6.60212 16.9985 6.14387 16.9949 5.68452C16.9493 4.13744 16.2932 2.6713 15.1699 1.60646C14.0465 0.541626 12.5474 -0.0353272 10.9999 0.00167612C9.45252 -0.0353272 7.95336 0.541626 6.83004 1.60646C5.70672 2.6713 5.05058 4.13744 5.005 5.68452C5.00847 6.14349 5.0576 6.60099 5.15167 7.05023C4.88553 7.33887 4.72972 7.71213 4.71167 8.10431C4.75648 8.41108 4.87837 8.70147 5.06594 8.94833C5.2535 9.19519 5.50061 9.39045 5.78416 9.51585Z" fill="#003E6C"/>
<path d="M21.6883 19.2503C19.6624 17.5389 17.2539 16.341 14.6667 15.7581C14.5801 15.7206 14.4857 15.7048 14.3917 15.7122H14.1717C14.0597 15.7214 13.9507 15.7525 13.8508 15.8039C12.9658 16.1842 12.0089 16.3687 11.0459 16.3447C10.0828 16.3696 9.12572 16.1851 8.2409 15.8039C8.14103 15.7525 8.032 15.7214 7.92007 15.7122H7.51674C4.84849 16.2778 2.36107 17.493 0.275133 19.2503C0.187422 19.3204 0.11701 19.4098 0.0693295 19.5116C0.0216492 19.6133 -0.00202439 19.7246 0.000135581 19.8369V21.2301C-0.00109435 21.3315 0.0179821 21.4322 0.0562424 21.5262C0.0945027 21.6201 0.151174 21.7055 0.222921 21.7773C0.294668 21.849 0.380041 21.9057 0.474016 21.9439C0.567992 21.9822 0.668671 22.0012 0.770129 22H21.2299C21.331 22.0025 21.4314 21.9846 21.5254 21.9473C21.6193 21.9101 21.7048 21.8543 21.7767 21.7833C21.8485 21.7123 21.9053 21.6275 21.9437 21.534C21.9821 21.4405 22.0012 21.3403 21.9999 21.2393V19.846C21.947 19.6274 21.8398 19.4257 21.6883 19.2594" fill="#003E6C"/>
</svg>
