<svg width="86" height="91" viewBox="0 0 86 91" fill="none" xmlns="http://www.w3.org/2000/svg">
<rect x="78.125" y="85.75" width="1.75" height="2.625" fill="#5E463C"/>
<rect x="78.125" y="85.75" width="1.75" height="2.625" fill="#5E463C"/>
<rect x="78.125" y="85.75" width="1.75" height="2.625" fill="#5E463C"/>
<rect x="77.25" y="89.25" width="3.5" height="1.75" rx="0.875" fill="#5E463C"/>
<rect x="77.25" y="89.25" width="3.5" height="1.75" rx="0.875" fill="#5E463C"/>
<rect x="77.25" y="89.25" width="3.5" height="1.75" rx="0.875" fill="#5E463C"/>
<circle cx="79" cy="88.375" r="1.75" fill="#5E463C"/>
<circle cx="79" cy="88.375" r="1.75" fill="#5E463C"/>
<circle cx="79" cy="88.375" r="1.75" fill="#5E463C"/>
<path d="M79 81.375C79 81.375 82.9375 86.0192 79 86.625C75.0625 86.0192 79 81.375 79 81.375Z" fill="#5E463C"/>
<path d="M79 81.375C79 81.375 82.9375 86.0192 79 86.625C75.0625 86.0192 79 81.375 79 81.375Z" fill="#5E463C"/>
<path d="M79 81.375C79 81.375 82.9375 86.0192 79 86.625C75.0625 86.0192 79 81.375 79 81.375Z" fill="#5E463C"/>
<rect x="43.125" y="85.75" width="1.75" height="2.625" fill="#5E463C"/>
<rect x="43.125" y="85.75" width="1.75" height="2.625" fill="#5E463C"/>
<rect x="43.125" y="85.75" width="1.75" height="2.625" fill="#5E463C"/>
<rect x="42.25" y="89.25" width="3.5" height="1.75" rx="0.875" fill="#5E463C"/>
<rect x="42.25" y="89.25" width="3.5" height="1.75" rx="0.875" fill="#5E463C"/>
<rect x="42.25" y="89.25" width="3.5" height="1.75" rx="0.875" fill="#5E463C"/>
<circle cx="44" cy="88.375" r="1.75" fill="#5E463C"/>
<circle cx="44" cy="88.375" r="1.75" fill="#5E463C"/>
<circle cx="44" cy="88.375" r="1.75" fill="#5E463C"/>
<path d="M44 81.375C44 81.375 47.9375 86.0192 44 86.625C40.0625 86.0192 44 81.375 44 81.375Z" fill="#5E463C"/>
<path d="M44 81.375C44 81.375 47.9375 86.0192 44 86.625C40.0625 86.0192 44 81.375 44 81.375Z" fill="#5E463C"/>
<path d="M44 81.375C44 81.375 47.9375 86.0192 44 86.625C40.0625 86.0192 44 81.375 44 81.375Z" fill="#5E463C"/>
<rect x="42.25" y="9.625" width="38.5" height="75.25" fill="#D99F5F"/>
<path d="M47.5 84.875H75.5C75.5 87.2913 73.5412 89.25 71.125 89.25H51.875C49.4588 89.25 47.5 87.2913 47.5 84.875Z" fill="url(#paint0_linear)"/>
<path d="M46.625 91C46.625 90.0335 47.4085 89.25 48.375 89.25H74.625C75.5915 89.25 76.375 90.0335 76.375 91H46.625Z" fill="url(#paint1_linear)"/>
<path d="M38.2998 11.2497C37.7759 10.5949 38.2421 9.625 39.0806 9.625H83.9194C84.7579 9.625 85.2241 10.5949 84.7002 11.2497L84.25 11.8125V13C84.25 13.5523 83.8023 14 83.25 14H39.75C39.1977 14 38.75 13.5523 38.75 13V11.8125L38.2998 11.2497Z" fill="#D99F5F"/>
<ellipse cx="61.5" cy="16.1875" rx="15.75" ry="15.3125" fill="#D99F5F"/>
<path d="M44.875 15.75H78.125V82.25H44.875V15.75Z" fill="#865942"/>
<path d="M47.5 37.625H75.5V77.875H47.5V37.625Z" fill="#5E463C"/>
<circle cx="61.5" cy="18.375" r="13.125" fill="#865942"/>
<path d="M47.5 17.5H75.5V35H47.5V17.5Z" fill="#5E463C"/>
<path d="M72.875 17.5L68.5 35H75.5V17.5H72.875Z" fill="#4E362C"/>
<ellipse cx="61.5" cy="19.6875" rx="11.375" ry="11.8125" fill="#5E463C"/>
<path d="M58.875 77.875L67.5653 37.625H75.5V42.6563V70.3281V77.875H58.875Z" fill="#4E362C"/>
<path d="M58.875 77.875L67.5653 37.625H75.5V42.6563V70.3281V77.875H58.875Z" fill="#4E362C"/>
<circle cx="61.5" cy="23.625" r="10.875" fill="white" stroke="#865942"/>
<rect x="61.2323" y="23.7155" width="0.607338" height="6.03448" fill="black"/>
<rect width="0.605595" height="3.63119" transform="matrix(-0.744417 -0.667715 0.67246 -0.740134 61.6831 24.0919)" fill="black"/>
<ellipse cx="61.536" cy="23.7155" rx="0.911007" ry="0.905172" fill="black"/>
<rect x="43.125" y="4.375" width="1.75" height="2.625" fill="#5E463C"/>
<rect x="43.125" y="4.375" width="1.75" height="2.625" fill="#5E463C"/>
<rect x="43.125" y="4.375" width="1.75" height="2.625" fill="#5E463C"/>
<rect x="42.25" y="7.875" width="3.5" height="1.75" rx="0.875" fill="#5E463C"/>
<rect x="42.25" y="7.875" width="3.5" height="1.75" rx="0.875" fill="#5E463C"/>
<rect x="42.25" y="7.875" width="3.5" height="1.75" rx="0.875" fill="#5E463C"/>
<circle cx="44" cy="7" r="1.75" fill="#5E463C"/>
<circle cx="44" cy="7" r="1.75" fill="#5E463C"/>
<circle cx="44" cy="7" r="1.75" fill="#5E463C"/>
<path d="M44 0C44 0 47.9375 4.64423 44 5.25C40.0625 4.64423 44 0 44 0Z" fill="#5E463C"/>
<path d="M44 0C44 0 47.9375 4.64423 44 5.25C40.0625 4.64423 44 0 44 0Z" fill="#5E463C"/>
<path d="M44 0C44 0 47.9375 4.64423 44 5.25C40.0625 4.64423 44 0 44 0Z" fill="#5E463C"/>
<rect x="78.125" y="4.375" width="1.75" height="2.625" fill="#5E463C"/>
<rect x="78.125" y="4.375" width="1.75" height="2.625" fill="#5E463C"/>
<rect x="78.125" y="4.375" width="1.75" height="2.625" fill="#5E463C"/>
<rect x="77.25" y="7.875" width="3.5" height="1.75" rx="0.875" fill="#5E463C"/>
<rect x="77.25" y="7.875" width="3.5" height="1.75" rx="0.875" fill="#5E463C"/>
<rect x="77.25" y="7.875" width="3.5" height="1.75" rx="0.875" fill="#5E463C"/>
<circle cx="79" cy="7" r="1.75" fill="#5E463C"/>
<circle cx="79" cy="7" r="1.75" fill="#5E463C"/>
<circle cx="79" cy="7" r="1.75" fill="#5E463C"/>
<path d="M79 0C79 0 82.9375 4.64423 79 5.25C75.0625 4.64423 79 0 79 0Z" fill="#5E463C"/>
<path d="M79 0C79 0 82.9375 4.64423 79 5.25C75.0625 4.64423 79 0 79 0Z" fill="#5E463C"/>
<path d="M79 0C79 0 82.9375 4.64423 79 5.25C75.0625 4.64423 79 0 79 0Z" fill="#5E463C"/>
<rect x="38.7279" y="43.8231" width="1.128" height="12.7211" fill="#FBB447"/>
<rect x="39.8561" y="43.8231" width="0.376" height="12.7211" fill="#D99F5F"/>
<path d="M33.0583 55.4218H13.5657L14.3078 61.034H23.312H32.3162L33.0583 55.4218Z" fill="#D99F5F"/>
<path fill-rule="evenodd" clip-rule="evenodd" d="M34.592 43.8231H12.032L13.2688 53.1769H33.3551L34.592 43.8231Z" fill="#D99F5F"/>
<path d="M0 44.0102C0 31.302 10.5213 21 23.5 21C36.4787 21 47 31.302 47 44.0102H0Z" fill="#D99F5F"/>
<path d="M0 44.0102C0 31.302 10.5213 21 23.5 21C36.4787 21 47 31.302 47 44.0102H0Z" fill="#FBB447"/>
<path d="M0 43.8231C0 33.2846 8.66956 24.7415 19.364 24.7415C30.0584 24.7415 38.728 33.2846 38.728 43.8231H0Z" fill="#FEC157"/>
<path d="M0 43.8231C0 35.7643 6.64947 29.2313 14.852 29.2313C23.0545 29.2313 29.704 35.7643 29.704 43.8231H0Z" fill="#FECC6B"/>
<rect x="11.28" y="72.2585" width="24.064" height="3.7415" rx="1.87075" fill="#D99F5F"/>
<path d="M15.7921 72.2585H30.8321L32.3163 61.034H23.3121H14.3079L15.7921 72.2585Z" fill="url(#paint2_linear)"/>
<path d="M33.3551 53.1769H13.2688L13.5656 55.4218H33.0583L33.3551 53.1769Z" fill="#4E362C"/>
<path d="M30.8319 72.2585L32.3359 61.034H27.2599L26.5079 72.2585H30.8319Z" fill="#4E362C"/>
<path d="M32.3261 61.034L33.0682 55.4218H27.6756L27.26 61.034H32.3261Z" fill="#C78D4D"/>
<path d="M33.2661 53.1769L34.7602 43.8231H28.9916L27.824 53.1769H33.2661Z" fill="#C78D4D"/>
<path d="M0 43.8231C0 45.8895 2.10426 47.5646 4.7 47.5646C7.29574 47.5646 9.4 45.8895 9.4 43.8231H0Z" fill="#4E362C"/>
<path d="M9.40002 43.8231C9.40002 45.8895 11.5043 47.5646 14.1 47.5646C16.6958 47.5646 18.8 45.8895 18.8 43.8231H9.40002Z" fill="#4E362C"/>
<path d="M18.8 43.8231C18.8 45.8895 20.9043 47.5646 23.5 47.5646C26.0958 47.5646 28.2 45.8895 28.2 43.8231H18.8Z" fill="#4E362C"/>
<path d="M28.2 43.8231C28.2 45.8895 30.3042 47.5646 32.9 47.5646C35.4957 47.5646 37.6 45.8895 37.6 43.8231H28.2Z" fill="#4E362C"/>
<path d="M37.6 43.8231C37.6 45.8895 39.7042 47.5646 42.3 47.5646C44.8957 47.5646 47 45.8895 47 43.8231H37.6Z" fill="#4E362C"/>
<path d="M27.636 55.4218L27.824 53.1769H33.276L33.088 55.4218H27.636Z" fill="#3C241A"/>
<ellipse cx="39.48" cy="55.7959" rx="3.008" ry="2.9932" fill="url(#paint3_linear)"/>
<defs>
<linearGradient id="paint0_linear" x1="42.25" y1="73.9375" x2="75.5" y2="94.5" gradientUnits="userSpaceOnUse">
<stop stop-color="#865942"/>
<stop offset="0.0001" stop-color="#865942"/>
<stop offset="0.966851" stop-color="#5E463C"/>
</linearGradient>
<linearGradient id="paint1_linear" x1="41.0469" y1="84.875" x2="54.2524" y2="106.567" gradientUnits="userSpaceOnUse">
<stop stop-color="#865942"/>
<stop offset="0.0001" stop-color="#865942"/>
<stop offset="0.966851" stop-color="#5E463C"/>
</linearGradient>
<linearGradient id="paint2_linear" x1="32.3361" y1="76.5612" x2="1.61146" y2="53.7803" gradientUnits="userSpaceOnUse">
<stop offset="0.566667" stop-color="#5E463C"/>
<stop offset="1" stop-color="#5E463C" stop-opacity="0"/>
</linearGradient>
<linearGradient id="paint3_linear" x1="40.796" y1="59.9116" x2="35.5614" y2="53.8996" gradientUnits="userSpaceOnUse">
<stop stop-color="#FBB447"/>
<stop offset="1" stop-color="#FEC157"/>
</linearGradient>
</defs>
</svg>
