<svg width="40" height="40" viewBox="0 0 40 40" fill="none" xmlns="http://www.w3.org/2000/svg">
<path d="M26.1535 14.1657C28.8425 14.1657 29.6492 15.2276 29.8643 15.8619V16.2757L29.4475 19.3097C29.4475 19.7234 29.6492 21.8334 29.8643 23.1022C30.3381 24.3166 30.6152 25.6024 30.6844 26.9085C31.1045 26.2876 31.6445 25.7619 32.2709 25.3639L35.9818 19.0201C36.2067 18.4135 36.347 17.7775 36.3986 17.1307L38.2943 12.69L39.9481 10.7869C39.9481 10.7869 40.3514 9.94562 38.9128 9.31123C37.4742 8.67685 35.4171 9.53189 34.7986 12.2763C34.1801 15.0207 32.7415 15.8619 31.1012 15.1724C30.1016 14.8969 29.2008 14.3314 28.5068 13.5437C27.8128 12.756 27.3551 11.7796 27.1887 10.7317L25.5484 6.1531C25.5484 6.1531 22.6577 0.443635 21.8376 0.443635C21.0174 0.443635 21.0174 -0.397614 20.8023 0.236771C20.5872 0.871156 19.7805 0.664291 19.9822 1.50554L22.6712 7.42187C22.9344 8.59538 23.3505 9.72721 23.9081 10.7869C23.8818 11.1163 23.7325 11.4226 23.4913 11.6419C23.4913 11.6419 23.088 12.2763 22.6712 11.2144C22.2544 10.1525 16.4865 1.07802 16.2713 1.71241C16.0562 2.34679 15.2495 1.07802 14.631 1.71241C14.0126 2.34679 13.3941 2.55365 14.2143 3.4087C15.0344 4.26374 19.3637 12.4832 19.7805 12.69C20.1973 12.8969 20.1839 13.5313 19.5654 13.3244C18.9469 13.1175 19.162 13.3244 18.1268 12.0556L16.2713 10.1525C16.2713 10.1525 12.1034 5.29806 11.7538 5.51872C11.5239 5.39102 11.2602 5.34222 11.0013 5.37944C10.7424 5.41667 10.502 5.53797 10.3152 5.72558C10.3152 5.72558 9.4816 6.78749 10.1001 7.42187C10.7185 8.05626 14.4294 12.4832 14.7924 12.69C15.9985 13.7756 17.1015 14.9762 18.0864 16.2757C18.0864 16.4963 18.0864 17.1307 17.8847 17.1307C16.913 16.9017 15.9976 16.4698 15.1957 15.8619L10.5169 12.2763C10.5169 12.2763 9.4816 11.6419 8.86312 12.4832C8.71116 12.7654 8.66967 13.0965 8.74708 13.409C8.8245 13.7215 9.01502 13.992 9.27992 14.1657C9.27992 14.1657 13.5958 17.972 14.6579 18.6064C15.5428 19.3775 16.487 20.0739 17.4814 20.6888C17.4814 20.6888 18.0999 21.3232 18.0999 21.7369L18.5167 22.3713C19.0409 22.8599 19.6621 23.2262 20.3374 23.4453C21.0128 23.6643 21.7264 23.7307 22.4292 23.6401H22.6308C22.9373 22.8323 23.0792 21.9687 23.0476 21.1025C22.4292 18.3443 25.3064 16.4688 25.9249 14.9931" fill="white"/>
<path d="M28.8289 32.742C29.044 30.2876 29.044 27.8183 28.8289 25.3638C28.8147 24.6799 28.6094 24.0146 28.2373 23.4469C27.9618 21.8443 27.8268 20.2197 27.834 18.5925L28.2373 16.0549C28.2373 16.0549 28.0356 15.4205 26.597 15.6274C25.1584 15.8343 23.908 17.5306 24.7416 20.0681C25.5752 22.6056 24.7416 24.0813 22.8862 24.2881C21.9056 24.6414 20.8415 24.669 19.8448 24.367C18.8481 24.065 17.9694 23.4487 17.3334 22.6056L13.6225 19.4337C11.7993 18.2044 9.87364 17.143 7.86806 16.2618C7.86806 16.2618 6.63112 16.2618 6.63112 16.8962C6.52464 17.1268 6.4694 17.3788 6.4694 17.634C6.4694 17.8892 6.52464 18.1412 6.63112 18.3718L11.7806 22.1781L14.4696 24.495V25.35C14.4696 25.35 14.2545 26.1913 13.4343 25.5569C12.6142 24.9225 3.14885 20.0405 3.35053 20.4956C2.81485 20.5229 2.30561 20.7426 1.91191 21.1162C1.91191 21.1162 1.49511 22.6056 2.53038 22.8125C3.56565 23.0194 11.3772 28.3289 11.794 28.3289C12.2108 28.3289 12.6142 28.5358 11.794 28.7426C10.9739 28.9495 11.3772 28.9633 9.9386 28.5358L7.46471 27.6945C5.42898 26.9989 3.3548 26.4279 1.2531 25.9844C0.957886 25.9832 0.67176 26.0891 0.445373 26.2834C0.218986 26.4778 0.0669413 26.748 0.0161542 27.0463C0.0161542 27.0463 -0.185522 28.3151 0.836302 28.522L7.42437 30.632C8.98021 30.9625 10.4986 31.457 11.9554 32.1076C11.9554 32.1076 12.3722 32.5351 11.9554 32.742H9.48147L3.51187 32.3283C3.51187 32.3283 2.07325 32.3283 2.28837 33.3764C2.28834 33.6557 2.39557 33.9237 2.58682 34.1224C2.77807 34.3212 3.03796 34.4347 3.31019 34.4383L10.0999 35.4864L13.5956 35.9139C13.5956 35.9139 14.6309 36.1208 14.6309 36.5483C16.1117 37.6915 17.7841 38.5468 19.5653 39.0721C20.2888 39.2499 20.9822 39.5381 21.6223 39.9271C23.8946 40.5615 28.0087 36.962 28.8289 32.5351" fill="white"/>
</svg>
