<svg width="23" height="23" viewBox="0 0 23 23" fill="none" xmlns="http://www.w3.org/2000/svg">
<path d="M22.5 11.5C22.5 17.5751 17.5751 22.5 11.5 22.5C5.42487 22.5 0.5 17.5751 0.5 11.5C0.5 5.42487 5.42487 0.5 11.5 0.5C17.5751 0.5 22.5 5.42487 22.5 11.5Z" stroke="#003E6C"/>
<path d="M12.24 7.62999C12.3723 7.64361 12.5059 7.62932 12.6323 7.58803C12.7587 7.54675 12.875 7.47939 12.9737 7.39031C13.0725 7.30124 13.1514 7.19243 13.2054 7.07093C13.2594 6.94944 13.2873 6.81795 13.2873 6.68499C13.2873 6.55202 13.2594 6.42053 13.2054 6.29904C13.1514 6.17754 13.0725 6.06873 12.9737 5.97966C12.875 5.89058 12.7587 5.82323 12.6323 5.78194C12.5059 5.74065 12.3723 5.72636 12.24 5.73999C12.1106 5.72703 11.9799 5.74196 11.8567 5.78378C11.7336 5.8256 11.6208 5.89333 11.5261 5.98241C11.4313 6.07149 11.3567 6.17984 11.3074 6.30018C11.258 6.42051 11.2351 6.55002 11.24 6.67999C11.2336 6.81077 11.2555 6.9414 11.3042 7.06295C11.3529 7.18451 11.4272 7.29412 11.5221 7.38431C11.6171 7.47449 11.7304 7.54313 11.8542 7.58553C11.9781 7.62793 12.1097 7.64309 12.24 7.62999V7.62999ZM12.06 15.63C11.84 15.63 11.75 15.52 11.75 15.3C11.75 15.08 12.59 10.15 12.59 9.74999C12.59 9.34999 12.38 9.05999 11.84 9.05999C10.84 9.05999 9.74 9.41999 9.74 9.81999C9.73027 9.93715 9.76213 10.054 9.83 10.15C10.1122 10.0206 10.4196 9.9557 10.73 9.95999C10.94 9.95999 11.01 10.08 11.01 10.3C11.01 10.52 10.2 15.37 10.2 15.67C10.2 16.3 10.55 16.57 11.2 16.57C12.2 16.57 13.15 15.99 13.15 15.63C13.1644 15.5016 13.1286 15.3726 13.05 15.27C12.7674 15.4993 12.4226 15.6386 12.06 15.67V15.63Z" fill="#003E6C"/>
</svg>
