<svg width="20" height="21" viewBox="0 0 20 21" fill="none" xmlns="http://www.w3.org/2000/svg">
<path d="M1.728 12.9795V10.8649L7.24 14.9461V17.0606L1.728 12.9795ZM1.728 9.36354V7.24895L7.24 11.3301V13.4447L1.728 9.36354ZM0 13.5081L8.968 20.1409V10.4984L0 3.8656V13.5081Z" fill="#262627"/>
<path d="M12.8 14.65L18.28 10.5759V12.6905L12.8 16.7576V14.65ZM12.8 11.027L18.32 6.9529V9.06749L12.8 13.1416V11.027ZM11.072 10.4984V20.1409L20 13.5152V3.8656L11.072 10.4984Z" fill="#262627"/>
<path d="M9.99991 8.89125L15.8399 4.57748C15.6721 3.31656 14.9847 2.15382 13.9081 1.30999C12.8316 0.466163 11.4408 0 9.99991 0C8.559 0 7.16825 0.466163 6.09169 1.30999C5.01512 2.15382 4.3277 3.31656 4.15991 4.57748L9.99991 8.89125Z" fill="#262627"/>
</svg>
