<svg width="40" height="42" viewBox="0 0 40 42" fill="none" xmlns="http://www.w3.org/2000/svg">
<path d="M3.456 25.9587V21.7295L14.48 29.8919V34.121L3.456 25.9587ZM3.456 18.7268V14.4976L14.48 22.66V26.8891L3.456 18.7268ZM0 27.016L17.936 40.2816V20.9965L0 7.73096V27.016Z" fill="white"/>
<path d="M25.5996 29.2998L36.5596 21.1516V25.3807L25.5996 33.5149V29.2998ZM25.5996 22.0538L36.6396 13.9056V18.1347L25.5996 26.283V22.0538ZM22.1436 20.9965V40.2816L39.9996 27.0301V7.73096L22.1436 20.9965Z" fill="white"/>
<path d="M20.0003 17.7825L31.6803 9.15496C31.3447 6.63312 29.9699 4.30764 27.8168 2.61998C25.6636 0.932327 22.8821 0 20.0003 0C17.1185 0 14.337 0.932327 12.1839 2.61998C10.0307 4.30764 8.65588 6.63312 8.32031 9.15496L20.0003 17.7825Z" fill="white"/>
</svg>
