<svg width="40" height="42" viewBox="0 0 40 42" fill="none" xmlns="http://www.w3.org/2000/svg">
<path d="M3.456 25.959V21.7298L14.48 29.8921V34.1213L3.456 25.959ZM3.456 18.7271V14.4979L14.48 22.6602V26.8894L3.456 18.7271ZM0 27.0163L17.936 40.2818V20.9967L0 7.7312V27.0163Z" fill="#262627"/>
<path d="M25.5996 29.3L36.5596 21.1518V25.381L25.5996 33.5151V29.3ZM25.5996 22.054L36.6396 13.9058V18.135L25.5996 26.2832V22.054ZM22.1436 20.9967V40.2818L39.9996 27.0304V7.7312L22.1436 20.9967Z" fill="#262627"/>
<path d="M20.0003 17.7825L31.6803 9.15496C31.3447 6.63312 29.9699 4.30764 27.8168 2.61998C25.6636 0.932327 22.8821 0 20.0003 0C17.1185 0 14.337 0.932327 12.1839 2.61998C10.0307 4.30764 8.65588 6.63312 8.32031 9.15496L20.0003 17.7825Z" fill="#262627"/>
</svg>
