<svg width="292" height="56" viewBox="0 0 292 56" fill="none" xmlns="http://www.w3.org/2000/svg">
<path d="M51.5547 54.4688H28V51.3516L46.1875 23.7891H28.5625V20.2031H51.0391V23.3203L32.8516 50.8593H51.5547V54.4688ZM79.7969 41.6015C79.7969 45.7891 78.7421 49.0626 76.6327 51.422C74.5235 53.7656 71.6093 54.9375 67.8905 54.9375C65.5937 54.9375 63.5547 54.3984 61.7735 53.3204C59.9921 52.2422 58.6171 50.6953 57.6485 48.6797C56.6797 46.6641 56.1953 44.3047 56.1953 41.6015C56.1953 37.4141 57.2421 34.1562 59.3359 31.8281C61.4297 29.4844 64.3359 28.3125 68.0547 28.3125C71.6485 28.3125 74.4999 29.5078 76.6093 31.8984C78.7343 34.2891 79.7969 37.5233 79.7969 41.6015ZM60.2265 41.6015C60.2265 44.8827 60.8827 47.3828 62.1953 49.1016C63.5077 50.8204 65.4375 51.6797 67.9843 51.6797C70.5313 51.6797 72.4609 50.8282 73.7735 49.125C75.1015 47.4064 75.7657 44.8983 75.7657 41.6015C75.7657 38.3359 75.1015 35.8594 73.7735 34.1719C72.4609 32.4687 70.5157 31.6172 67.9375 31.6172C65.3905 31.6172 63.4687 32.4531 62.1719 34.125C60.8749 35.7969 60.2265 38.2891 60.2265 41.6015ZM90.5313 54.4688H86.6405V18H90.5313V54.4688ZM102.672 54.4688H98.7813V18H102.672V54.4688ZM108.766 43.3827V39.8204H120.274V43.3827H108.766ZM148.516 54.4688L144.25 43.5704H130.516L126.297 54.4688H122.266L135.813 20.0625H139.164L152.641 54.4688H148.516ZM143.008 39.9844L139.024 29.3672C138.508 28.0234 137.977 26.375 137.43 24.4219C137.086 25.9219 136.594 27.5703 135.953 29.3672L131.922 39.9844H143.008ZM160.422 28.7812V45.4454C160.422 47.5392 160.899 49.1016 161.852 50.1328C162.805 51.1642 164.297 51.6797 166.328 51.6797C169.016 51.6797 170.977 50.9454 172.211 49.4766C173.461 48.0078 174.086 45.6094 174.086 42.2812V28.7812H177.977V54.4688H174.766L174.203 51.0233H173.992C173.195 52.2891 172.086 53.2577 170.664 53.9297C169.258 54.6015 167.649 54.9375 165.836 54.9375C162.711 54.9375 160.367 54.1953 158.805 52.7109C157.258 51.2265 156.484 48.8516 156.484 45.586V28.7812H160.422ZM190.094 41.3204C190.766 40.3672 191.789 39.1172 193.164 37.5704L201.461 28.7812H206.078L195.672 39.7265L206.805 54.4688H202.094L193.024 42.3281L190.094 44.8594V54.4688H186.25V18H190.094V37.336C190.094 38.1954 190.031 39.5234 189.906 41.3204H190.094ZM219.766 51.7266C220.453 51.7266 221.117 51.6797 221.758 51.5859C222.399 51.4765 222.906 51.3672 223.281 51.2578V54.2343C222.859 54.4375 222.234 54.6016 221.406 54.7266C220.594 54.8672 219.859 54.9375 219.203 54.9375C214.234 54.9375 211.75 52.3204 211.75 47.086V31.8047H208.07V29.9297L211.75 28.3125L213.391 22.8281H215.641V28.7812H223.094V31.8047H215.641V46.9219C215.641 48.4687 216.008 49.6563 216.742 50.4843C217.477 51.3125 218.484 51.7266 219.766 51.7266ZM232.328 54.4688H228.438V28.7812H232.328V54.4688ZM228.11 21.8203C228.11 20.9297 228.328 20.2812 228.766 19.875C229.202 19.4531 229.75 19.2422 230.406 19.2422C231.032 19.2422 231.57 19.4531 232.024 19.875C232.476 20.2969 232.702 20.9453 232.702 21.8203C232.702 22.6953 232.476 23.3516 232.024 23.7891C231.57 24.2109 231.032 24.4219 230.406 24.4219C229.75 24.4219 229.202 24.2109 228.766 23.7891C228.328 23.3516 228.11 22.6953 228.11 21.8203ZM262.75 41.6015C262.75 45.7891 261.696 49.0626 259.586 51.422C257.476 53.7656 254.562 54.9375 250.844 54.9375C248.546 54.9375 246.508 54.3984 244.726 53.3204C242.946 52.2422 241.57 50.6953 240.602 48.6797C239.632 46.6641 239.148 44.3047 239.148 41.6015C239.148 37.4141 240.196 34.1562 242.288 31.8281C244.382 29.4844 247.288 28.3125 251.008 28.3125C254.602 28.3125 257.454 29.5078 259.562 31.8984C261.688 34.2891 262.75 37.5233 262.75 41.6015ZM243.18 41.6015C243.18 44.8827 243.836 47.3828 245.148 49.1016C246.46 50.8204 248.39 51.6797 250.938 51.6797C253.484 51.6797 255.414 50.8282 256.726 49.125C258.054 47.4064 258.718 44.8983 258.718 41.6015C258.718 38.3359 258.054 35.8594 256.726 34.1719C255.414 32.4687 253.468 31.6172 250.89 31.6172C248.344 31.6172 246.422 32.4531 245.124 34.125C243.828 35.7969 243.18 38.2891 243.18 41.6015ZM287.172 54.4688V37.8515C287.172 35.7578 286.696 34.1953 285.742 33.1641C284.788 32.1328 283.296 31.6172 281.266 31.6172C278.578 31.6172 276.61 32.3437 275.36 33.7969C274.11 35.25 273.484 37.6483 273.484 40.9921V54.4688H269.594V28.7812H272.758L273.39 32.2969H273.578C274.374 31.0313 275.492 30.0547 276.93 29.3672C278.368 28.6641 279.968 28.3125 281.734 28.3125C284.828 28.3125 287.156 29.0625 288.718 30.5625C290.282 32.0469 291.062 34.4297 291.062 37.711V54.4688H287.172Z" fill="#262627"/>
<path d="M22 34C22 31.7909 20.2091 30 18 30C15.7909 30 14 31.7909 14 34C14 36.2091 15.7909 38 18 38C20.2091 38 22 36.2091 22 34Z" fill="#FABD02"/>
<path d="M22 22C22 19.7909 20.2091 18 18 18C15.7909 18 14 19.7909 14 22C14 24.2091 15.7909 26 18 26C20.2091 26 22 24.2091 22 22Z" fill="#C31018"/>
<path d="M22 10C22 7.79086 20.2091 6 18 6C15.7909 6 14 7.79086 14 10C14 12.2091 15.7909 14 18 14C20.2091 14 22 12.2091 22 10Z" fill="black"/>
</svg>
