<svg width="706" height="348" viewBox="0 0 706 348" fill="none" xmlns="http://www.w3.org/2000/svg">
<path d="M179.493 233.821H188.061V348H168.071V233.821H179.493Z" fill="#FFCC00"/>
<path d="M179.493 119.066H188.061V233.822H168.071V119.066H179.493Z" fill="#FF0000"/>
<path d="M66.0954 0C64.1347 0 63.6052 0.608044 63.6052 1.18549C63.6052 1.39582 63.6359 1.6138 63.6935 1.71706C62.9645 1.42642 62.2738 1.24286 61.4565 1.08989C60.4436 0.894857 59.35 0.799253 58.1836 0.799253C54.0052 0.799253 52.5164 2.55073 52.5164 4.05363C52.5164 5.32708 53.5179 7.64453 54.6536 9.40747C56.2843 8.59292 58.2412 8.03459 59.1352 8.03459C61.3529 8.03459 63.3251 10.1455 64.3726 12.6504C62.88 12.8263 62.5923 12.8913 61.0843 12.8913C57.0133 12.8913 54.2469 11.4381 53.6752 11.4381C53.6176 11.4381 53.514 11.4649 53.514 11.5528C53.514 12.1265 54.669 13.6332 56.9443 14.463C59.9409 15.5606 64.4302 16.0156 65.1784 16.138C65.1784 16.268 64.4187 17.6868 63.5669 17.9545C63.3865 18.0157 63.2484 18.0195 63.0374 17.9775C59.9064 17.3579 59.0316 17.0979 55.0603 15.5873C54.9375 15.5415 54.8685 15.6179 54.8685 15.748C54.8685 17.3159 58.9357 20.7806 62.5731 22.1076C59.5342 25.9929 55.7318 29.9624 53.9399 36.0199C53.4335 36.0582 52.9423 36.0773 52.432 36.0773C43.3998 36.0773 34.452 30.2492 34.452 22.7691C34.452 18.7844 36.2439 15.9965 38.4578 12.9066C39.7585 13.1207 40.9442 13.2431 41.8727 13.2431C45.9667 13.2431 48.1807 11.0519 48.3457 8.90268C48.3457 6.97147 46.7725 5.50681 44.3245 5.50681C40.5183 5.50681 33.6156 9.048 26.6323 9.048C27.323 9.56809 28.4664 10.1149 29.8362 10.6389C25.7575 14.3139 23.0256 19.2433 21.9858 24.5206L11.3075 41.6032C9.51182 44.4675 5.71706 50.0776 0 54.4601C6.90652 54.4601 11.4917 54.6169 17.3392 45.37L22.8145 36.6127C23.2174 37.7523 23.7201 38.8575 24.3033 39.9435L13.4178 57.355C11.603 60.2422 7.85041 65.8064 2.10649 70.2119C9.01685 70.2119 13.5982 70.3763 19.4457 61.1409L28.8194 46.1349C29.5215 46.8844 30.2582 47.611 31.0371 48.3108L17.8073 69.4776C15.9886 72.3687 12.2552 77.9176 6.4998 82.323C13.414 82.323 17.9953 82.4913 23.839 73.2483L36.735 52.6092C37.5868 53.1446 38.4578 53.6685 39.3518 54.158L23.6126 79.3364C21.7977 82.2351 18.0606 87.7648 12.309 92.1818C19.2193 92.1818 23.8045 92.3424 29.6482 83.1032L45.8555 57.1676C46.8147 57.5386 47.7893 57.8866 48.7792 58.204L30.4654 87.5086C28.6774 90.3615 24.852 95.9945 19.1656 100.354C26.076 100.354 30.6573 100.511 36.5048 91.2754L56.0234 60.0434C56.2229 60.0778 56.4186 60.1084 56.6105 60.1466C57.1438 61.8331 57.5121 63.4087 57.5121 64.9804C57.5121 74.7932 51.0699 83.4626 43.3384 90.1511C43.8296 90.3691 44.6929 90.4418 45.491 90.4418C47.0871 90.4418 48.1154 90.3576 48.8368 90.2276C47.0449 94.2965 43.2003 99.5548 41.2588 102.278C38.7264 101.819 35.0429 101.463 32.6333 101.463C30.1048 101.463 29.8247 102.943 29.8247 104.255C29.8247 106.545 30.8952 108.37 32.1422 109.383C32.6103 108.213 33.5542 106.645 38.2161 106.645C38.3043 106.645 38.4693 106.656 38.6842 106.672C37.3221 108.19 33.0554 111.632 33.0554 114.412C33.0554 116.247 35.0736 119.005 37.7326 119.005C37.5753 118.416 37.5983 117.865 37.5983 117.46C37.5983 115.207 39.5936 112.572 41.2741 110.74C41.2243 111.287 41.2473 111.234 41.2473 111.865C41.2473 117.184 41.7307 119.628 45.1034 119.628C46.761 119.628 47.9044 118.718 48.2996 118.442C46.1049 116.427 45.9898 114.844 45.9898 111.861C45.9936 111.085 45.9974 110.327 46.0089 109.28C46.0205 108.599 46.0089 107.696 45.8938 107.046C47.1025 106.878 47.5898 106.878 48.5222 106.878C48.5222 106.878 53.3183 106.499 54.4733 108.993C55.774 107.8 57.6695 106.117 57.6695 104.259C57.6695 103.035 57.0862 101.647 54.6152 101.647C53.6829 101.647 50.7399 102.22 48.2766 102.22C48.9365 100.748 51.8795 96.4457 54.4311 93.3252C54.8186 94.5336 55.421 95.8415 56.7601 96.9123C56.9443 94.9046 58.1222 88.5488 61.2647 84.8393C61.6292 87.3442 62.1242 89.9217 62.1242 95.352C62.1242 108.557 58.9472 118.312 52.2018 120.179C53.0805 121.704 54.9375 123.077 56.8637 123.077C59.327 123.077 60.6776 120.289 62.0436 117.658C62.7573 119.597 64.7295 124.358 66.7055 124.358C68.6777 124.358 70.6537 119.593 71.3674 117.658C72.7372 120.289 74.084 123.077 76.5511 123.077C78.4773 123.077 80.3344 121.708 81.213 120.179C74.4715 118.316 71.2907 108.557 71.2907 95.352C71.2907 89.9217 71.7779 87.3442 72.1463 84.8393C75.2888 88.5488 76.4705 94.9046 76.6509 96.9123C77.99 95.8415 78.5924 94.5336 78.9799 93.3252C81.5315 96.4457 84.4744 100.748 85.1382 102.22C82.6711 102.22 79.732 101.647 78.7957 101.647C76.3286 101.647 75.7454 103.035 75.7454 104.259C75.7454 106.117 77.637 107.8 78.9377 108.993C80.0926 106.503 84.8888 106.878 84.8888 106.878C85.8174 106.878 86.3085 106.878 87.521 107.046C87.4097 107.7 87.3982 108.603 87.4059 109.28C87.4174 110.327 87.4174 111.085 87.4212 111.861C87.4212 114.844 87.3099 116.427 85.119 118.442C85.5142 118.714 86.6538 119.628 88.3075 119.628C91.6841 119.628 92.1675 117.184 92.1675 111.865C92.1675 111.23 92.1867 111.284 92.1445 110.74C93.8251 112.572 95.8203 115.207 95.8203 117.46C95.8203 117.865 95.8433 118.416 95.6822 119.005C98.3374 119.005 100.359 116.247 100.359 114.412C100.359 111.632 96.0927 108.19 94.7268 106.672C94.9532 106.656 95.1066 106.645 95.1949 106.645C99.8606 106.645 100.801 108.213 101.269 109.383C102.516 108.37 103.586 106.545 103.586 104.255C103.586 102.943 103.302 101.463 100.781 101.463C98.3719 101.463 94.6884 101.819 92.1522 102.278C90.2068 99.5548 86.3661 94.2965 84.5704 90.2276C85.2917 90.3576 86.3277 90.4418 87.92 90.4418C88.7181 90.4418 89.5814 90.3691 90.0764 90.1511C82.3411 83.4588 75.8988 74.7932 75.8988 64.9804C75.8988 63.4087 76.271 61.8331 76.8005 60.1466C76.9924 60.1084 77.1919 60.074 77.3914 60.0434L96.91 91.2754C102.754 100.507 107.339 100.354 114.245 100.354C108.559 95.9945 104.737 90.3615 102.949 87.5086L84.6279 58.204C85.6217 57.8866 86.5963 57.5347 87.5555 57.1676L103.763 83.1032C109.606 92.3424 114.188 92.1818 121.102 92.1818C115.347 87.7648 111.617 82.2351 109.798 79.3364L94.0553 54.158C94.9493 53.6685 95.8241 53.1407 96.6721 52.6092L109.572 73.2483C115.416 82.4913 119.997 82.323 126.904 82.323C121.156 77.9176 117.419 72.3687 115.6 69.4776L102.378 48.3108C103.153 47.611 103.897 46.8844 104.588 46.1349L113.965 61.1371C119.813 70.3763 124.386 70.2119 131.304 70.2119C125.557 65.8102 121.812 60.2461 119.997 57.355L109.108 39.9435C109.695 38.8575 110.194 37.7523 110.6 36.6127L116.072 45.37C121.915 54.6131 126.497 54.4601 133.407 54.4601C127.69 50.0776 123.907 44.4675 122.103 41.6032L111.425 24.5206C110.382 19.2433 107.65 14.3139 103.567 10.6465C104.941 10.1264 106.084 9.57956 106.771 9.05565C99.7992 9.05565 92.885 5.51446 89.0826 5.51446C86.6346 5.51446 85.0653 6.9753 85.0653 8.91033C85.2226 11.0595 87.4366 13.2508 91.5306 13.2508C92.4591 13.2508 93.6448 13.1284 94.9493 12.9142C97.1671 16.0042 98.9513 18.7958 98.9513 22.7768C98.9513 30.2569 90.0073 36.0849 80.9751 36.0849C80.4648 36.0849 79.9775 36.0658 79.4672 36.0276C78.6461 34.1767 75.9295 31.06 75.9295 27.5226C75.9295 21.576 79.8049 16.7269 79.8049 10.8377C79.8049 7.17798 78.0207 4.91407 77.33 3.97332C78.4427 2.94462 79.6552 1.67881 79.9353 0.818374C79.2945 1.09371 78.5271 1.13578 77.4106 1.13578C73.0633 1.13196 69.5372 0 66.0954 0ZM58.1874 2.38629C64.081 2.38629 67.6033 5.05174 67.6033 9.51455C67.6033 11.0786 66.9818 12.5127 66.4216 13.7785C66.0148 12.0882 65.1477 10.352 64.0426 9.04418C63.0374 7.85868 61.376 6.45138 59.1428 6.45138C58.1145 6.45138 56.4071 6.92941 55.3174 7.38831C54.9068 6.65024 54.1126 4.8567 54.1126 4.05363C54.1088 3.22378 55.5092 2.38629 58.1874 2.38629ZM68.8619 2.90255C69.1688 2.9102 69.5448 3.00963 70.0091 3.23525C69.0038 4.26396 69.7827 6.08426 69.7827 6.08426C69.7827 6.08426 71.8393 5.12822 71.4134 3.77446C74.46 4.50488 72.2691 8.60057 69.0652 7.96958C68.8542 6.70761 68.3746 5.568 67.6417 4.58901C67.6686 3.72475 67.9448 2.88725 68.8619 2.90255ZM243.578 3.58708C237.385 3.58708 233.252 5.95424 231.188 10.6847C229.722 13.9506 228.993 19.7595 228.993 28.1039C228.993 36.4482 229.703 42.1654 231.123 45.263C233.191 49.7372 237.492 51.9706 244.03 51.9706C248.075 51.9706 252.138 51.286 256.228 49.9093V26.6813H242.803V31.0026H250.872V46.2916C248.85 47.1942 246.524 47.6492 243.904 47.6492C239.687 47.6492 236.974 45.6913 235.769 41.7791C235.04 39.4578 234.672 34.7885 234.672 27.775C234.672 21.1095 235.04 16.5549 235.769 14.1036C237.016 10.0155 239.645 7.97341 243.647 7.97341C248.55 7.97341 251.002 10.7039 251.002 16.1686V17.0061H256.619V16.3598C256.616 7.84339 252.268 3.58708 243.578 3.58708ZM403.31 4.48958V51.1292H408.409V4.48958H403.31ZM470.426 4.48958V51.1292H475.529V27.8094V4.48958H470.426ZM485.145 4.48958V51.1292H490.244V4.48958H485.145ZM515.863 4.48958V21.7098C514.229 19.1744 511.777 17.9048 508.508 17.9048C504.59 17.9048 501.862 19.6677 500.308 23.1936C499.146 25.7329 498.57 29.4729 498.57 34.4176C498.57 39.6682 499.061 43.5382 500.051 46.0354C501.601 49.7755 504.46 51.6455 508.635 51.6455C511.858 51.6455 514.402 50.2267 516.247 47.3892L516.316 51.1331H521.285C521.112 48.2076 521.032 46.1655 521.032 45.0029V4.48958H515.863ZM593.374 4.48958V51.1292H598.477V4.48958H593.374ZM530.382 5.13587V10.6847H536V5.13587H530.382ZM639.517 5.13587V10.6847H645.142V5.13587H639.517ZM168.066 5.46092V119.639H188.057V5.46092H168.066ZM627.388 10.3597L622.289 12.616V18.6161H617.451V22.3561H622.289V43.3853C622.289 46.3528 622.742 48.3988 623.644 49.5154C624.726 50.7621 626.725 51.3855 629.648 51.3855C630.554 51.3855 631.805 51.3013 633.397 51.1292V47.1291C632.104 47.3012 631.333 47.3854 631.072 47.3854C629.652 47.3854 628.689 47.0756 628.164 46.4484C627.653 45.8251 627.392 44.6128 627.392 42.804V22.36H633.201V18.6199H627.392L627.388 10.3597ZM35.0314 12.2106C35.4305 12.31 35.8295 12.4018 36.2324 12.4898C34.4597 14.6504 31.3326 18.2719 31.3326 23.0674C31.3326 32.5858 41.512 40.8537 53.0382 40.8537C52.9653 41.6682 52.927 42.5287 52.927 43.4082C52.927 44.8155 53.0037 46.1234 53.1418 47.3548C40.1115 47.2745 28.6352 36.7006 28.6352 25.3122C28.6314 18.8111 33.3623 13.6638 35.0314 12.2106ZM98.3604 12.2106C100.029 13.6638 104.757 18.8111 104.757 25.316C104.757 36.628 93.4491 47.1253 80.5339 47.3586C80.6912 46.0813 80.7756 44.762 80.7756 43.412C80.7756 42.6778 80.7794 41.8212 80.695 40.8537C92.0754 40.6931 102.059 32.4978 102.059 23.0713C102.059 18.2757 98.9321 14.6504 97.1632 12.4898C97.5584 12.4018 97.9575 12.31 98.3604 12.2106ZM275.716 17.9086C270.766 17.9086 267.455 19.8666 265.778 23.7787C264.704 26.2721 264.167 30.4022 264.167 36.1652C264.167 41.2399 264.792 44.9188 266.039 47.198C267.72 50.2535 270.812 51.7793 275.332 51.7793C282.3 51.7793 285.938 48.1693 286.241 40.9455H281.207C281.034 45.718 279.077 48.1081 275.336 48.1081C272.838 48.1081 271.165 47.0527 270.302 44.9455C269.7 43.4847 269.4 41.0946 269.4 37.7829V35.584H286.436V34.1002C286.436 28.8955 285.961 25.2204 285.017 23.0713C283.463 19.6295 280.366 17.9086 275.716 17.9086ZM307.793 17.9086C303.964 17.9086 301.147 19.6295 299.34 23.0713V18.6199H294.306C294.475 20.467 294.559 22.8342 294.559 25.7138V51.1292H299.659V31.5877C299.659 29.0446 300.157 26.8534 301.144 25.0063C302.348 22.8571 304.048 21.7787 306.243 21.7787C308.48 21.7787 309.965 22.7271 310.698 24.62C311.085 25.6526 311.277 27.5685 311.277 30.3601V51.1331H316.376V28.0389C316.38 21.2854 313.514 17.9086 307.793 17.9086ZM336.256 17.9086C331.306 17.9086 327.995 19.8666 326.318 23.7787C325.24 26.2721 324.702 30.4022 324.702 36.1652C324.702 41.2399 325.324 44.9188 326.571 47.198C328.252 50.2535 331.348 51.7793 335.868 51.7793C342.836 51.7793 346.473 48.1693 346.776 40.9455H341.739C341.57 45.718 339.613 48.1081 335.868 48.1081C333.374 48.1081 331.693 47.0527 330.834 44.9455C330.231 43.4847 329.932 41.0946 329.932 37.7829V35.584H346.972V34.1002C346.972 28.8955 346.496 25.2204 345.552 23.0713C343.998 19.6295 340.902 17.9086 336.256 17.9086ZM383.945 17.9086C380.81 17.9086 378.312 18.5511 376.463 19.8437C374.307 21.3083 373.236 23.5187 373.236 26.4862V26.8113H378.332V26.4862C378.332 24.9413 378.85 23.7367 379.882 22.8762C380.914 22.0158 382.203 21.5837 383.753 21.5837C385.986 21.5837 387.456 22.4479 388.143 24.165C388.572 25.1975 388.787 27.0484 388.787 29.7177V31.1364C383.45 31.1785 379.621 31.7368 377.299 32.8114C373.773 34.4023 372.008 37.496 372.008 42.1004C372.008 44.9417 372.676 47.2209 374.007 48.938C375.519 50.7468 377.645 51.6455 380.396 51.6455C384.006 51.6455 386.919 50.0546 389.11 46.8729L389.179 51.1292H394.147C393.929 48.1196 393.821 44.6549 393.821 40.7428V28.7463C393.821 24.9642 393.131 22.2529 391.757 20.62C390.299 18.8149 387.694 17.9086 383.945 17.9086ZM451.069 17.9086C446.342 17.9086 443.115 19.6065 441.392 23.0062C440.099 25.5034 439.454 29.5456 439.454 35.1365C439.454 40.9455 440.057 44.9838 441.261 47.2668C442.854 50.2764 445.996 51.7793 450.685 51.7793C455.289 51.7793 458.428 50.2726 460.109 47.2668C461.444 44.8155 462.108 40.6204 462.108 34.6853C462.108 28.8343 461.547 24.8113 460.427 22.62C458.881 19.4804 455.758 17.9086 451.069 17.9086ZM574.53 17.9086C569.585 17.9086 566.273 19.8666 564.593 23.7787C563.515 26.2721 562.977 30.4022 562.977 36.1652C562.977 41.2399 563.603 44.9188 564.846 47.198C566.527 50.2535 569.623 51.7793 574.139 51.7793C581.107 51.7793 584.752 48.1693 585.048 40.9455H580.014C579.841 45.718 577.884 48.1081 574.139 48.1081C571.645 48.1081 569.968 47.0527 569.105 44.9455C568.507 43.4847 568.207 41.0946 568.207 37.7829V35.584H585.239V34.1002C585.239 28.8955 584.771 25.2204 583.82 23.0713C582.277 19.6295 579.181 17.9086 574.53 17.9086ZM664.822 17.9086C660.087 17.9086 656.868 19.6065 655.141 23.0062C653.852 25.5034 653.207 29.5456 653.207 35.1365C653.207 40.9455 653.81 44.9838 655.018 47.2668C656.611 50.2764 659.749 51.7793 664.442 51.7793C669.042 51.7793 672.181 50.2726 673.858 47.2668C675.197 44.8155 675.857 40.6204 675.857 34.6853C675.857 28.8343 675.3 24.8113 674.184 22.62C672.626 19.4804 669.511 17.9086 664.822 17.9086ZM697.413 17.9086C693.584 17.9086 690.763 19.6295 688.96 23.0713V18.6199H683.926C684.099 20.467 684.183 22.8342 684.183 25.7138V51.1292H689.286V31.5877C689.286 29.0446 689.781 26.8534 690.763 25.0063C691.972 22.8571 693.672 21.7787 695.87 21.7787C698.104 21.7787 699.592 22.7271 700.317 24.62C700.709 25.6526 700.901 27.5685 700.901 30.3601V51.1331H706V28.0389C706 21.2854 703.141 17.9086 697.413 17.9086ZM368.137 17.9736C364.392 17.9736 361.641 19.6065 359.876 22.8762V18.6199H354.842C354.972 20.3829 355.034 22.36 355.034 24.5512V51.1292H360.198V31.0026C360.198 28.5092 360.812 26.5092 362.036 25.0063C363.264 23.4996 365.102 22.7462 367.554 22.7462C367.772 22.7462 368.137 22.7921 368.651 22.8762C368.651 19.6065 368.486 17.9736 368.137 17.9736ZM558.396 17.9736C554.651 17.9736 551.9 19.6065 550.139 22.8762V18.6199H545.105C545.235 20.3829 545.301 22.36 545.301 24.555V51.1331H550.461V31.0026C550.461 28.5092 551.075 26.5092 552.299 25.0063C553.523 23.4996 555.365 22.7462 557.817 22.7462C558.035 22.7462 558.4 22.7921 558.922 22.8762C558.918 19.6065 558.741 17.9736 558.396 17.9736ZM416.152 18.6199V22.4288H428.093L415.381 47.0029V51.1331H433.707V47.263H420.864L433.576 22.62V18.6199H416.152ZM530.647 18.6199V51.1331H535.747V18.6199H530.647ZM608.415 18.6199L598.669 32.9415L609.378 51.1331H615.383L604.221 32.8114L614.347 18.6199H608.415ZM639.778 18.6199V51.1331H644.873V18.6199H639.778ZM275.655 21.5837C278.195 21.5837 279.848 22.8762 280.623 25.4575C281.053 26.7463 281.264 28.9605 281.264 32.104H269.393C269.393 30.7655 269.477 29.3697 269.646 27.9088C270.126 23.6908 272.125 21.5837 275.655 21.5837ZM336.19 21.5837C338.73 21.5837 340.384 22.8762 341.159 25.4575C341.589 26.7463 341.804 28.9605 341.804 32.104H329.928C329.928 30.7655 330.013 29.3697 330.185 27.9088C330.661 23.6908 332.664 21.5837 336.19 21.5837ZM450.938 21.5837C453.605 21.5837 455.347 22.8953 456.164 25.5226C456.598 26.9413 456.809 29.4997 456.809 33.1977V38.1653C456.809 41.129 456.506 43.347 455.907 44.8079C455.009 46.9991 453.283 48.1005 450.743 48.1005C448.118 48.1005 446.353 46.9609 445.455 44.6778C444.937 43.3432 444.676 41.1061 444.676 37.9702V33.3277C444.676 29.7559 444.914 27.2396 445.394 25.7788C446.292 22.9833 448.145 21.5837 450.938 21.5837ZM574.469 21.5837C577.005 21.5837 578.667 22.8762 579.438 25.4575C579.868 26.7463 580.086 28.9605 580.086 32.104H568.211C568.211 30.7655 568.295 29.3697 568.464 27.9088C568.94 23.6908 570.943 21.5837 574.469 21.5837ZM664.691 21.5837C667.362 21.5837 669.104 22.8953 669.917 25.5226C670.347 26.9413 670.562 29.4997 670.562 33.1977V38.1653C670.562 41.129 670.259 43.347 669.66 44.8079C668.762 46.9991 667.032 48.1005 664.496 48.1005C661.871 48.1005 660.102 46.9609 659.204 44.6778C658.683 43.3432 658.429 41.1061 658.429 37.9702V33.3277C658.429 29.7559 658.663 27.2396 659.139 25.7788C660.045 22.9833 661.894 21.5837 664.691 21.5837ZM509.862 21.6487C512.449 21.6487 514.187 23.0024 515.092 25.7138C515.737 27.6067 516.055 30.7655 516.055 35.1977C516.055 39.194 515.76 42.0774 515.157 43.8404C514.252 46.5479 512.425 47.9055 509.667 47.9055C507.349 47.9055 505.738 46.5746 504.828 43.9054C504.142 41.9283 503.796 38.8116 503.796 34.5553C503.796 30.6393 504.095 27.7559 504.698 25.9088C505.603 23.0713 507.326 21.6487 509.862 21.6487ZM387.498 34.6815H388.787V38.5515C388.787 41.0869 388.338 43.1749 387.433 44.8079C386.27 46.8729 384.486 47.9055 382.076 47.9055C378.896 47.9055 377.299 45.8175 377.299 41.6453C377.299 37.0027 380.703 34.6815 387.498 34.6815ZM51.8373 89.7037C53.1227 89.7037 53.4795 90.5756 53.8517 91.8988C49.7653 96.8626 47.2214 100.721 46.2929 103.375L46.22 103.601H46.4464C50.1068 103.601 51.8872 103.337 53.0689 103.165C53.6905 103.084 54.1318 103.019 54.6114 103.019C55.5591 103.019 56.2843 103.107 56.2843 104.266C56.2843 105.054 55.3634 106.289 54.4771 107.008C53.1265 105.735 51.2617 105.49 48.5183 105.49C47.2368 105.49 45.56 105.716 44.6583 105.846L44.5164 105.861L44.3552 105.884L44.4089 106.316C44.5125 107.073 44.6468 108.014 44.6468 109.287L44.6315 110.442L44.62 111.876C44.62 114.981 45.042 116.752 46.1317 118.091C45.8516 118.194 45.3989 118.278 45.0996 118.278C43.1734 118.278 42.6132 117.437 42.6132 111.876C42.6132 110.76 42.5518 109.716 42.5096 109.016L42.4559 107.987L42.2142 108.178C39.348 110.358 36.3935 114.263 36.217 117.184C35.3537 116.626 34.4175 115.379 34.4175 114.423C34.4175 112.828 36.8156 110.435 39.5936 107.662L41.1897 106.067L41.3931 105.861L40.8674 105.735C40.2689 105.582 39.1638 105.299 38.2199 105.299C35.1082 105.299 33.1628 105.884 31.958 107.195C31.5283 106.572 31.1638 105.115 31.1638 104.262C31.1638 103.712 31.2712 103.318 31.4937 103.096C31.7662 102.832 32.1844 102.832 32.5566 102.832H32.6371C36.0636 102.832 40.1614 103.452 41.7614 103.708L41.8574 103.731L41.9188 103.654C42.195 103.28 48.7293 94.5757 50.433 89.9599C50.8128 89.8146 51.1543 89.7037 51.8373 89.7037ZM81.5545 89.7037C82.2337 89.7037 82.5713 89.8146 82.9665 89.9637C84.6624 94.5795 91.2006 103.283 91.473 103.658L91.5344 103.735L91.6304 103.712C93.2304 103.455 97.3282 102.836 100.758 102.836H100.835C101.211 102.836 101.629 102.836 101.902 103.1C102.121 103.322 102.232 103.712 102.232 104.266C102.232 105.119 101.867 106.576 101.438 107.199C100.237 105.888 98.2875 105.303 95.1719 105.303C94.2318 105.303 93.1268 105.585 92.5282 105.738L92.2826 105.792L92.0025 105.865L93.8021 107.666C96.5762 110.435 98.9781 112.828 98.9781 114.423C98.9781 115.379 98.0419 116.63 97.1786 117.188C96.9983 114.266 94.0438 110.362 91.1776 108.182L90.9359 107.991L90.886 109.016C90.8438 109.716 90.7862 110.763 90.7862 111.876C90.7862 117.437 90.2222 118.278 88.2922 118.278C87.9968 118.278 87.5478 118.194 87.2639 118.091C88.3459 116.752 88.7795 114.981 88.7795 111.876L88.7603 110.442L88.7488 109.287C88.7488 108.014 88.8793 107.073 88.9867 106.316L89.0404 105.884L88.7373 105.846C87.8394 105.716 86.1627 105.49 84.8773 105.49C82.1339 105.49 80.273 105.735 78.9224 107.004C78.036 106.285 77.1151 105.05 77.1151 104.262C77.1151 103.104 77.8403 103.016 78.7842 103.016C79.2639 103.016 79.7089 103.081 80.3305 103.161C81.5123 103.329 83.2888 103.593 86.9493 103.593H87.1756L87.0989 103.375C86.1742 100.721 83.6265 96.8626 79.544 91.9026C79.9085 90.5794 80.2691 89.7037 81.5545 89.7037Z" fill="black"/>
</svg>
