<svg xmlns="http://www.w3.org/2000/svg" width="26" height="26" viewBox="0 0 26 26"><defs><style>.a{fill:#fff;}.b{fill:none;stroke:#5481ab;stroke-linecap:round;stroke-linejoin:round;stroke-width:1.5px;}.c{fill:#262626;}</style></defs><title>pager-pfeil-links</title><path class="a" d="M13,.36a12.5,12.5,0,1,0,12.5,12.5A12.5,12.5,0,0,0,13,.36"/><polyline class="b" points="14.33 8.83 9.67 12.83 14.33 16.82"/><circle class="a" cx="13" cy="13" r="13"/><path class="c" d="M14.38,17.9a.77.77,0,0,1-.5-.18L9,13.56A.78.78,0,0,1,8.76,13,.77.77,0,0,1,9,12.38l4.85-4.16a.78.78,0,1,1,1,1.19L10.74,13l4.15,3.56a.78.78,0,0,1,.09,1.1A.8.8,0,0,1,14.38,17.9Z"/></svg>