<svg width="23" height="22" viewBox="0 0 23 22" fill="none" xmlns="http://www.w3.org/2000/svg">
<path d="M22.1557 18.4067L16.7131 13.0996C17.49 11.787 17.8985 10.2979 17.8975 8.78238C17.9102 6.8573 17.2698 4.98215 16.0758 3.44895C14.8819 1.91576 13.2015 0.810605 11.2964 0.305596C9.39123 -0.199413 7.36831 -0.075923 5.54265 0.656834C3.71699 1.38959 2.19108 2.69048 1.20256 4.3569C0.214038 6.02332 -0.181595 7.96172 0.0772746 9.87022C0.336144 11.7787 1.23498 13.5502 2.63381 14.9087C4.03263 16.2672 5.85292 17.1365 7.81116 17.3813C9.76941 17.626 11.7557 17.2324 13.4607 16.2618L18.8939 21.569L19.0349 21.6973C19.132 21.7932 19.2476 21.8693 19.3751 21.9213C19.5025 21.9732 19.6393 22 19.7775 22C19.9157 22 20.0525 21.9732 20.1799 21.9213C20.3074 21.8693 20.423 21.7932 20.5201 21.6973L22.2685 19.9924C22.3668 19.8978 22.4449 19.785 22.4982 19.6607C22.5515 19.5364 22.5789 19.403 22.5789 19.2683C22.5789 19.1336 22.5515 19.0002 22.4982 18.8759C22.4449 18.7516 22.3668 18.6388 22.2685 18.5442L22.1557 18.4067ZM8.93926 15.2261C7.17169 15.2261 5.47652 14.5414 4.22666 13.3227C2.9768 12.1039 2.27463 10.4509 2.27463 8.72738C2.27463 7.00382 2.9768 5.35085 4.22666 4.1321C5.47652 2.91336 7.17169 2.22868 8.93926 2.22868H8.98626C10.3025 2.23711 11.5868 2.62543 12.677 3.34466C13.7673 4.0639 14.6147 5.08184 15.1124 6.2701C15.6101 7.45835 15.7358 8.76371 15.4736 10.0215C15.2114 11.2794 14.5732 12.4333 13.6393 13.3379C13.0234 13.9408 12.2907 14.4183 11.4838 14.7424C10.6769 15.0666 9.81194 15.231 8.93926 15.2261V15.2261Z" fill="#09308B"/>
</svg>
