<svg width="25" height="25" viewBox="0 0 33 31" fill="none" xmlns="http://www.w3.org/2000/svg">
<path d="M15.6244 1.79739C15.8582 1.07845 16.8753 1.07844 17.1091 1.79739L19.9889 10.6534C20.2189 11.3608 20.8782 11.8397 21.622 11.8397H30.9392C31.6955 11.8397 32.0098 12.8076 31.3978 13.252L23.8618 18.7228C23.2594 19.1601 23.0073 19.9357 23.2375 20.6436L26.1164 29.4968C26.3502 30.2158 25.5274 30.8141 24.9155 30.3699L17.3756 24.8962C16.7739 24.4595 15.9595 24.4595 15.3579 24.8962L7.81799 30.3699C7.20609 30.8141 6.38324 30.2158 6.61706 29.4968L9.49597 20.6436C9.72616 19.9357 9.47409 19.1601 8.8717 18.7228L1.33572 13.252C0.723653 12.8076 1.03796 11.8397 1.7943 11.8397H11.1114C11.8553 11.8397 12.5146 11.3608 12.7446 10.6534L15.6244 1.79739Z" stroke="#BDBDBD" stroke-width="0.936723"/>
</svg>
