<svg width="25" height="25" viewBox="0 0 33 31" fill="none" xmlns="http://www.w3.org/2000/svg">
<path d="M15.179 1.65255C15.5531 0.50224 17.1804 0.502244 17.5545 1.65255L20.4343 10.5086C20.6016 11.023 21.0811 11.3713 21.622 11.3713H30.9392C32.1493 11.3713 32.6522 12.92 31.6729 13.631L24.1369 19.1018C23.6988 19.4198 23.5155 19.9839 23.6829 20.4987L26.5618 29.3519C26.9359 30.5024 25.6194 31.4596 24.6403 30.7489L17.1005 25.2753C16.6629 24.9576 16.0706 24.9576 15.633 25.2753L8.09314 30.7489C7.11411 31.4596 5.79754 30.5024 6.17166 29.3519L9.05056 20.4987C9.21797 19.9839 9.03465 19.4198 8.59655 19.1018L1.06056 13.631C0.0812657 12.9201 0.584155 11.3713 1.7943 11.3713H11.1114C11.6524 11.3713 12.1319 11.023 12.2992 10.5086L15.179 1.65255Z" fill="#FFBE2C"/>
</svg>
