<svg width="514" height="210" viewBox="0 0 514 210" fill="none" xmlns="http://www.w3.org/2000/svg">
<g clip-path="url(#clip0)">
<g clip-path="url(#clip1)">
<path d="M467.374 29.8895H290.92C289.222 29.8895 287.846 31.2659 287.846 32.9637V141.173C287.846 142.871 289.222 144.247 290.92 144.247H467.374C469.072 144.247 470.449 142.871 470.449 141.173V32.9637C470.449 31.2659 469.072 29.8895 467.374 29.8895Z" fill="url(#paint0_linear)"/>
<path fill-rule="evenodd" clip-rule="evenodd" d="M459.382 33.5784H291.227C290.378 33.5784 289.69 34.2665 289.69 35.1154V136.869H384.064L459.382 33.5784Z" fill="#202020"/>
<path d="M466.76 136.869V35.1675C466.76 34.2898 465.97 33.5784 464.995 33.5784H385.603V136.869H466.76Z" fill="#0C0C0C"/>
<path d="M392.981 144.247H363.469V155.314H392.981V144.247Z" fill="black"/>
<path d="M341.335 156.85C341.335 156.002 342.023 155.313 342.872 155.313H413.577C414.426 155.313 415.114 156.002 415.114 156.85V159.002H341.335V156.85Z" fill="black"/>
</g>
<g clip-path="url(#clip2)">
<path d="M177.609 84.4595H79.2273C79.2273 84.4595 69.6479 84.4595 69.6479 100.533C69.6479 114.244 76.6175 116.958 78.6668 117.459L177.492 117.567C178.27 117.567 178.902 116.922 178.902 116.127C178.902 115.332 178.27 114.688 177.492 114.688L80.1057 114.582C78.2679 114.123 72.4369 111.777 72.4369 100.493C72.4369 87.0984 80.6534 87.0984 80.6534 87.0984H177.609C178.323 87.0984 178.902 86.5076 178.902 85.779C178.902 85.0503 178.323 84.4595 177.609 84.4595Z" fill="#E59C00"/>
<path d="M177.246 87.7705H81.2645C81.2645 87.7705 72.9587 87.7705 72.9587 100.63C72.9587 113.489 81.2645 114.256 81.2645 114.256H177.246C177.246 114.256 168.94 113.489 168.94 100.63C168.94 87.7705 177.246 87.7705 177.246 87.7705Z" fill="#FBF9ED"/>
<path d="M179.588 86.9709H80.5558C80.5558 86.9709 71.9861 86.9709 71.9861 100.35C71.9861 113.729 80.5558 114.527 80.5558 114.527H179.588C179.588 114.527 171.018 113.729 171.018 100.35C171.018 86.9709 179.588 86.9709 179.588 86.9709Z" fill="#FBF9ED"/>
<path d="M71.9861 100.749C71.9861 113.751 80.5558 114.528 80.5558 114.528H179.588C179.588 114.528 171.018 113.751 171.018 100.749H71.9861Z" fill="#EDEBDF"/>
<path d="M65.9884 57.9796H159.284C159.284 57.9796 168.97 57.2767 168.97 70.8679C168.97 84.4592 161.923 83.8644 159.851 84.3544L66.1072 84.4592C65.32 84.4592 64.6819 83.8297 64.6819 83.0531C64.6819 82.2768 65.32 81.6472 66.1072 81.6472L158.396 81.5439C160.254 81.0955 165.929 81.1005 165.912 70.8288C165.896 60.5573 157.842 60.5573 157.842 60.5573H65.9884C65.2669 60.5573 64.6819 59.9802 64.6819 59.2684C64.6819 58.5566 65.2669 57.9796 65.9884 57.9796Z" fill="#0A407A"/>
<path d="M67.9927 61.2839H158.906C158.906 61.2839 167.314 61.2839 167.314 70.9585C167.314 80.6333 158.906 81.1482 158.906 81.1482H67.9927C67.9927 81.1482 76.4009 80.6333 76.4009 70.9585C76.4009 61.2839 67.9927 61.2839 67.9927 61.2839Z" fill="#FBF9ED"/>
<path d="M68.0498 60.7266H162.939C162.939 60.7266 171.715 60.7266 171.715 70.952C171.715 81.1777 162.939 81.722 162.939 81.722H68.0498C68.0498 81.722 76.8257 81.1777 76.8257 70.952C76.8257 60.7266 68.0498 60.7266 68.0498 60.7266Z" fill="#FBF9ED"/>
<path d="M158.947 81.1481C158.947 81.1481 167.314 81.3632 167.314 71.2163H76.8389C76.8389 80.7441 69.0392 81.1357 68.0875 81.1481H67.9927C67.9927 81.1481 68.0256 81.149 68.0875 81.1481H158.947Z" fill="#EDEBDF"/>
<path d="M181.373 117.159H74.5472C74.5472 117.159 63.4571 116.358 63.4571 131.845C63.4571 147.333 71.5257 146.655 73.8984 147.213L181.237 147.333C182.138 147.333 182.869 146.615 182.869 145.73C182.869 144.846 182.138 144.128 181.237 144.128L75.5641 144.011C73.4365 143.5 66.939 143.505 66.9579 131.801C66.9767 120.096 76.1983 120.096 76.1983 120.096H181.373C182.199 120.096 182.869 119.438 182.869 118.627C182.869 117.816 182.199 117.159 181.373 117.159Z" fill="#0A407A"/>
<path d="M179.588 120.528L75.7531 119.776C75.7531 119.776 65.6465 120.528 66.8348 131.619C66.0239 143.957 75.7531 144.052 75.7531 144.052L179.588 143.3C179.588 143.3 169.915 142.709 169.915 131.619C169.915 120.528 179.588 120.528 179.588 120.528Z" fill="#FBF9ED"/>
<path d="M186.805 120.432H78.1032C78.1032 120.432 68.0497 120.432 68.0497 131.936C68.0497 143.44 78.1032 144.052 78.1032 144.052H186.805C186.805 144.052 176.752 143.44 176.752 131.936C176.752 120.432 186.805 120.432 186.805 120.432Z" fill="#FBF9ED"/>
<path d="M76.2062 144.052C76.2062 144.052 67.3933 143.56 67.3933 132.242H170.79C170.79 142.87 179.704 143.306 180.792 143.32H180.9C180.9 143.32 180.862 143.321 180.792 143.32L76.2062 144.052Z" fill="#EDEBDF"/>
<path d="M180.864 29.8392H84.6069C84.6069 29.8392 74.614 29.0923 74.614 43.533C74.614 57.9737 81.8844 57.3417 84.0224 57.8625L180.742 57.9737C181.554 57.9737 182.212 57.305 182.212 56.48C182.212 55.6549 181.554 54.986 180.742 54.986L85.5233 54.8762C83.6061 54.3998 77.7514 54.4051 77.7685 43.4915C77.7854 32.578 86.0948 32.578 86.0948 32.578H180.864C181.609 32.578 182.212 31.9649 182.212 31.2086C182.212 30.4523 181.609 29.8392 180.864 29.8392Z" fill="#C31018"/>
<path d="M178.902 33.1428H86.4733C86.4733 33.1428 77.925 33.1428 77.925 43.6237C77.925 54.1046 86.4733 54.6625 86.4733 54.6625H178.902C178.902 54.6625 170.354 54.1046 170.354 43.6237C170.354 33.1428 178.902 33.1428 178.902 33.1428Z" fill="#FBF9ED"/>
<path d="M181.556 32.5139H86.0665C86.0665 32.5139 77.2351 32.5139 77.2351 43.3786C77.2351 54.2433 86.0665 54.8216 86.0665 54.8216H181.556C181.556 54.8216 172.725 54.2433 172.725 43.3786C172.725 32.5139 181.556 32.5139 181.556 32.5139Z" fill="#FBF9ED"/>
<path d="M86.4321 54.6623C86.4321 54.6623 77.925 54.9135 77.925 43.0753H169.908C169.908 54.1911 177.838 54.6481 178.806 54.6623H178.902C178.902 54.6623 178.868 54.6633 178.806 54.6623H86.4321Z" fill="#EDEBDF"/>
</g>
<g clip-path="url(#clip3)">
<path d="M453.593 119.653C453.362 114.921 456.771 110.794 461.479 110.269C466.937 109.66 474.063 109.01 479.572 109.01C485.081 109.01 492.207 109.66 497.665 110.269C502.373 110.794 505.782 114.921 505.551 119.653L503.664 158.34H455.48L453.593 119.653Z" fill="#C31018"/>
<path d="M503.664 158.34L505.546 119.757C505.779 114.982 502.307 110.828 497.566 110.209L492.765 109.583L479.572 109.01V158.34H503.664Z" fill="#900202"/>
<path d="M479.572 145.721C466.266 145.721 455.48 152.398 455.48 160.635H503.664C503.664 152.398 492.877 145.721 479.572 145.721Z" fill="#AC0001"/>
<path d="M503.664 160.635C503.664 152.398 492.877 145.721 479.572 145.721V160.635H503.664Z" fill="#7E0404"/>
<path d="M457.774 146.868H454.333V180.138H457.774V146.868Z" fill="#262627"/>
<path d="M504.81 146.868H501.369V180.138H504.81V146.868Z" fill="#262627"/>
<path d="M456.054 151.457C457.638 151.457 458.922 150.173 458.922 148.589C458.922 147.005 457.638 145.721 456.054 145.721C454.47 145.721 453.186 147.005 453.186 148.589C453.186 150.173 454.47 151.457 456.054 151.457Z" fill="#1B1B1C"/>
<path d="M456.054 151.457C457.638 151.457 458.922 150.173 458.922 148.589C458.922 147.005 457.638 145.721 456.054 145.721C454.47 145.721 453.186 147.005 453.186 148.589C453.186 150.173 454.47 151.457 456.054 151.457Z" fill="#1B1B1C"/>
<path d="M456.054 151.457C457.638 151.457 458.922 150.173 458.922 148.589C458.922 147.005 457.638 145.721 456.054 145.721C454.47 145.721 453.186 147.005 453.186 148.589C453.186 150.173 454.47 151.457 456.054 151.457Z" fill="#1B1B1C"/>
<path d="M456.054 151.457C457.638 151.457 458.922 150.173 458.922 148.589C458.922 147.005 457.638 145.721 456.054 145.721C454.47 145.721 453.186 147.005 453.186 148.589C453.186 150.173 454.47 151.457 456.054 151.457Z" fill="#1B1B1C"/>
<path d="M503.089 151.457C504.673 151.457 505.957 150.173 505.957 148.589C505.957 147.005 504.673 145.721 503.089 145.721C501.505 145.721 500.221 147.005 500.221 148.589C500.221 150.173 501.505 151.457 503.089 151.457Z" fill="#1B1B1C"/>
<path d="M503.089 151.457C504.673 151.457 505.957 150.173 505.957 148.589C505.957 147.005 504.673 145.721 503.089 145.721C501.505 145.721 500.221 147.005 500.221 148.589C500.221 150.173 501.505 151.457 503.089 151.457Z" fill="#1B1B1C"/>
<path d="M503.089 151.457C504.673 151.457 505.957 150.173 505.957 148.589C505.957 147.005 504.673 145.721 503.089 145.721C501.505 145.721 500.221 147.005 500.221 148.589C500.221 150.173 501.505 151.457 503.089 151.457Z" fill="#1B1B1C"/>
<path d="M503.089 151.457C504.673 151.457 505.957 150.173 505.957 148.589C505.957 147.005 504.673 145.721 503.089 145.721C501.505 145.721 500.221 147.005 500.221 148.589C500.221 150.173 501.505 151.457 503.089 151.457Z" fill="#1B1B1C"/>
<path d="M479.571 158.341H457.774V168.666H479.571V158.341Z" fill="#C31018"/>
<path d="M479.572 158.341H501.369V168.666H479.572V158.341Z" fill="#900202"/>
<g clip-path="url(#clip4)">
<path d="M497.23 144.827C498.438 144.387 498.512 141.544 497.395 138.477C496.279 135.409 494.395 133.279 493.187 133.719C491.979 134.158 491.906 137.001 493.022 140.069C494.138 143.136 496.022 145.266 497.23 144.827Z" fill="#452D23"/>
<path d="M475.405 144.827C474.197 144.387 474.124 141.544 475.24 138.477C476.356 135.409 478.24 133.279 479.448 133.719C480.656 134.158 480.73 137.001 479.613 140.069C478.497 143.136 476.613 145.266 475.405 144.827Z" fill="#573F35"/>
<path d="M495.044 141.558C495.044 135.104 491.291 129.872 486.661 129.872C482.031 129.872 478.278 135.104 478.278 141.558C478.278 148.011 482.031 153.243 486.661 153.243C491.291 153.243 495.044 148.011 495.044 141.558Z" fill="#5E463C"/>
<path d="M495.043 141.558C495.043 135.105 491.176 129.873 486.406 129.873V153.243C491.176 153.243 495.043 148.012 495.043 141.558Z" fill="#553D33"/>
<path d="M478.531 124.284C480.355 124.284 481.834 122.919 481.834 121.236C481.834 119.552 480.355 118.188 478.531 118.188C476.708 118.188 475.229 119.552 475.229 121.236C475.229 122.919 476.708 124.284 478.531 124.284Z" fill="#865942"/>
<path d="M493.774 124.284C495.597 124.284 497.076 122.919 497.076 121.236C497.076 119.552 495.597 118.188 493.774 118.188C491.95 118.188 490.471 119.552 490.471 121.236C490.471 122.919 491.95 124.284 493.774 124.284Z" fill="#865942"/>
<path d="M493.52 123.268C494.642 123.268 495.552 122.472 495.552 121.49C495.552 120.508 494.642 119.712 493.52 119.712C492.397 119.712 491.487 120.508 491.487 121.49C491.487 122.472 492.397 123.268 493.52 123.268Z" fill="#A0735C"/>
<path d="M493.52 123.268C494.642 123.268 495.552 122.472 495.552 121.49C495.552 120.508 494.642 119.712 493.52 119.712C492.397 119.712 491.487 120.508 491.487 121.49C491.487 122.472 492.397 123.268 493.52 123.268Z" fill="#A0735C"/>
<path d="M493.52 123.268C494.642 123.268 495.552 122.472 495.552 121.49C495.552 120.508 494.642 119.712 493.52 119.712C492.397 119.712 491.487 120.508 491.487 121.49C491.487 122.472 492.397 123.268 493.52 123.268Z" fill="#A0735C"/>
<path d="M493.52 123.268C494.642 123.268 495.552 122.472 495.552 121.49C495.552 120.508 494.642 119.712 493.52 119.712C492.397 119.712 491.487 120.508 491.487 121.49C491.487 122.472 492.397 123.268 493.52 123.268Z" fill="#A0735C"/>
<path d="M478.786 123.268C479.908 123.268 480.818 122.472 480.818 121.49C480.818 120.508 479.908 119.712 478.786 119.712C477.663 119.712 476.753 120.508 476.753 121.49C476.753 122.472 477.663 123.268 478.786 123.268Z" fill="#A0735C"/>
<path d="M478.786 123.268C479.908 123.268 480.818 122.472 480.818 121.49C480.818 120.508 479.908 119.712 478.786 119.712C477.663 119.712 476.753 120.508 476.753 121.49C476.753 122.472 477.663 123.268 478.786 123.268Z" fill="#A0735C"/>
<path d="M478.786 123.268C479.908 123.268 480.818 122.472 480.818 121.49C480.818 120.508 479.908 119.712 478.786 119.712C477.663 119.712 476.753 120.508 476.753 121.49C476.753 122.472 477.663 123.268 478.786 123.268Z" fill="#A0735C"/>
<path d="M478.786 123.268C479.908 123.268 480.818 122.472 480.818 121.49C480.818 120.508 479.908 119.712 478.786 119.712C477.663 119.712 476.753 120.508 476.753 121.49C476.753 122.472 477.663 123.268 478.786 123.268Z" fill="#A0735C"/>
<path d="M486.406 134.953C491.457 134.953 495.551 131.2 495.551 126.57C495.551 121.941 491.457 118.188 486.406 118.188C481.356 118.188 477.261 121.941 477.261 126.57C477.261 131.2 481.356 134.953 486.406 134.953Z" fill="url(#paint1_linear)"/>
<path d="M486.406 133.938C488.651 133.938 490.471 132.232 490.471 130.127C490.471 128.023 488.651 126.317 486.406 126.317C484.162 126.317 482.342 128.023 482.342 130.127C482.342 132.232 484.162 133.938 486.406 133.938Z" fill="#A1745D"/>
<path d="M486.406 133.938C488.651 133.938 490.471 132.232 490.471 130.127C490.471 128.023 488.651 126.317 486.406 126.317V133.938Z" fill="#946750"/>
<path d="M480.148 145.431C482.859 144.928 484.716 147.39 485.053 149.21C485.391 151.03 481.402 152.558 478.69 153.06C475.979 153.563 476.911 152.331 476.574 150.512C476.236 148.692 477.436 145.934 480.148 145.431Z" fill="#573F35"/>
<path d="M493.129 145.431C490.417 144.928 488.561 147.39 488.223 149.21C487.886 151.03 491.875 152.558 494.586 153.06C497.298 153.563 496.365 152.331 496.703 150.512C497.04 148.692 495.84 145.934 493.129 145.431Z" fill="#452D23"/>
<path d="M482.85 147.655C482.85 144.568 480.575 142.066 477.769 142.066C474.963 142.066 472.688 144.568 472.688 147.655C472.688 150.741 474.963 153.243 477.769 153.243C480.575 153.243 482.85 150.741 482.85 147.655Z" fill="#865942"/>
<path d="M490.283 147.655C490.283 144.568 492.558 142.066 495.364 142.066C498.17 142.066 500.444 144.568 500.444 147.655C500.444 150.741 498.17 153.243 495.364 153.243C492.558 153.243 490.283 150.741 490.283 147.655Z" fill="#865942"/>
<path d="M487.422 129.873C487.422 130.153 486.967 130.889 486.406 130.889C485.845 130.889 485.39 130.153 485.39 129.873C485.39 129.592 485.845 129.365 486.406 129.365C486.967 129.365 487.422 129.592 487.422 129.873Z" fill="#262627"/>
<path d="M490.725 127.84C491.426 127.84 491.995 127.272 491.995 126.57C491.995 125.869 491.426 125.3 490.725 125.3C490.023 125.3 489.455 125.869 489.455 126.57C489.455 127.272 490.023 127.84 490.725 127.84Z" fill="#F2F2F2"/>
<path d="M482.088 127.84C482.789 127.84 483.358 127.272 483.358 126.57C483.358 125.869 482.789 125.3 482.088 125.3C481.387 125.3 480.818 125.869 480.818 126.57C480.818 127.272 481.387 127.84 482.088 127.84Z" fill="#F2F2F2"/>
<path d="M482.088 127.332C482.509 127.332 482.85 126.991 482.85 126.57C482.85 126.149 482.509 125.808 482.088 125.808C481.667 125.808 481.326 126.149 481.326 126.57C481.326 126.991 481.667 127.332 482.088 127.332Z" fill="#262627"/>
<path d="M490.725 127.332C491.146 127.332 491.487 126.991 491.487 126.57C491.487 126.149 491.146 125.808 490.725 125.808C490.304 125.808 489.963 126.149 489.963 126.57C489.963 126.991 490.304 127.332 490.725 127.332Z" fill="#262627"/>
</g>
</g>
<g clip-path="url(#clip5)">
<path d="M410.537 165.422H408.475V168.515H410.537V165.422Z" fill="#5E463C"/>
<path d="M410.537 165.422H408.475V168.515H410.537V165.422Z" fill="#5E463C"/>
<path d="M410.537 165.422H408.475V168.515H410.537V165.422Z" fill="#5E463C"/>
<path d="M410.538 169.546H408.476C407.906 169.546 407.445 170.008 407.445 170.577C407.445 171.147 407.906 171.608 408.476 171.608H410.538C411.107 171.608 411.569 171.147 411.569 170.577C411.569 170.008 411.107 169.546 410.538 169.546Z" fill="#5E463C"/>
<path d="M410.538 169.546H408.476C407.906 169.546 407.445 170.008 407.445 170.577C407.445 171.147 407.906 171.608 408.476 171.608H410.538C411.107 171.608 411.569 171.147 411.569 170.577C411.569 170.008 411.107 169.546 410.538 169.546Z" fill="#5E463C"/>
<path d="M410.538 169.546H408.476C407.906 169.546 407.445 170.008 407.445 170.577C407.445 171.147 407.906 171.608 408.476 171.608H410.538C411.107 171.608 411.569 171.147 411.569 170.577C411.569 170.008 411.107 169.546 410.538 169.546Z" fill="#5E463C"/>
<path d="M409.507 170.578C410.646 170.578 411.569 169.655 411.569 168.516C411.569 167.377 410.646 166.454 409.507 166.454C408.368 166.454 407.445 167.377 407.445 168.516C407.445 169.655 408.368 170.578 409.507 170.578Z" fill="#5E463C"/>
<path d="M409.507 170.578C410.646 170.578 411.569 169.655 411.569 168.516C411.569 167.377 410.646 166.454 409.507 166.454C408.368 166.454 407.445 167.377 407.445 168.516C407.445 169.655 408.368 170.578 409.507 170.578Z" fill="#5E463C"/>
<path d="M409.507 170.578C410.646 170.578 411.569 169.655 411.569 168.516C411.569 167.377 410.646 166.454 409.507 166.454C408.368 166.454 407.445 167.377 407.445 168.516C407.445 169.655 408.368 170.578 409.507 170.578Z" fill="#5E463C"/>
<path d="M409.507 160.267C409.507 160.267 414.146 165.74 409.507 166.453C404.867 165.74 409.507 160.267 409.507 160.267Z" fill="#5E463C"/>
<path d="M409.507 160.267C409.507 160.267 414.146 165.74 409.507 166.453C404.867 165.74 409.507 160.267 409.507 160.267Z" fill="#5E463C"/>
<path d="M409.507 160.267C409.507 160.267 414.146 165.74 409.507 166.453C404.867 165.74 409.507 160.267 409.507 160.267Z" fill="#5E463C"/>
<path d="M369.297 165.422H367.235V168.515H369.297V165.422Z" fill="#5E463C"/>
<path d="M369.297 165.422H367.235V168.515H369.297V165.422Z" fill="#5E463C"/>
<path d="M369.297 165.422H367.235V168.515H369.297V165.422Z" fill="#5E463C"/>
<path d="M369.297 169.546H367.235C366.665 169.546 366.204 170.008 366.204 170.577C366.204 171.147 366.665 171.608 367.235 171.608H369.297C369.866 171.608 370.328 171.147 370.328 170.577C370.328 170.008 369.866 169.546 369.297 169.546Z" fill="#5E463C"/>
<path d="M369.297 169.546H367.235C366.665 169.546 366.204 170.008 366.204 170.577C366.204 171.147 366.665 171.608 367.235 171.608H369.297C369.866 171.608 370.328 171.147 370.328 170.577C370.328 170.008 369.866 169.546 369.297 169.546Z" fill="#5E463C"/>
<path d="M369.297 169.546H367.235C366.665 169.546 366.204 170.008 366.204 170.577C366.204 171.147 366.665 171.608 367.235 171.608H369.297C369.866 171.608 370.328 171.147 370.328 170.577C370.328 170.008 369.866 169.546 369.297 169.546Z" fill="#5E463C"/>
<path d="M368.266 170.578C369.405 170.578 370.328 169.655 370.328 168.516C370.328 167.377 369.405 166.454 368.266 166.454C367.127 166.454 366.204 167.377 366.204 168.516C366.204 169.655 367.127 170.578 368.266 170.578Z" fill="#5E463C"/>
<path d="M368.266 170.578C369.405 170.578 370.328 169.655 370.328 168.516C370.328 167.377 369.405 166.454 368.266 166.454C367.127 166.454 366.204 167.377 366.204 168.516C366.204 169.655 367.127 170.578 368.266 170.578Z" fill="#5E463C"/>
<path d="M368.266 170.578C369.405 170.578 370.328 169.655 370.328 168.516C370.328 167.377 369.405 166.454 368.266 166.454C367.127 166.454 366.204 167.377 366.204 168.516C366.204 169.655 367.127 170.578 368.266 170.578Z" fill="#5E463C"/>
<path d="M368.266 160.267C368.266 160.267 372.905 165.74 368.266 166.453C363.626 165.74 368.266 160.267 368.266 160.267Z" fill="#5E463C"/>
<path d="M368.266 160.267C368.266 160.267 372.905 165.74 368.266 166.453C363.626 165.74 368.266 160.267 368.266 160.267Z" fill="#5E463C"/>
<path d="M368.266 160.267C368.266 160.267 372.905 165.74 368.266 166.453C363.626 165.74 368.266 160.267 368.266 160.267Z" fill="#5E463C"/>
<path d="M411.569 75.7231H366.204V164.391H411.569V75.7231Z" fill="#D99F5F"/>
<path d="M372.39 164.391H405.383C405.383 167.238 403.075 169.546 400.228 169.546H377.545C374.698 169.546 372.39 167.238 372.39 164.391Z" fill="url(#paint2_linear)"/>
<path d="M371.358 171.608C371.358 170.47 372.282 169.546 373.42 169.546H404.351C405.49 169.546 406.413 170.47 406.413 171.608H371.358Z" fill="url(#paint3_linear)"/>
<path d="M361.549 77.6376C360.932 76.866 361.481 75.7231 362.469 75.7231H415.303C416.291 75.7231 416.84 76.866 416.223 77.6376L415.693 78.3007V79.7C415.693 80.3507 415.165 80.8783 414.514 80.8783H363.258C362.607 80.8783 362.079 80.3507 362.079 79.7V78.3007L361.549 77.6376Z" fill="#D99F5F"/>
<path d="M388.887 101.499C399.136 101.499 407.445 93.4207 407.445 83.4558C407.445 73.4909 399.136 65.4128 388.887 65.4128C378.637 65.4128 370.328 73.4909 370.328 83.4558C370.328 93.4207 378.637 101.499 388.887 101.499Z" fill="#D99F5F"/>
<path d="M369.297 82.9404H408.476V161.298H369.297V82.9404Z" fill="#865942"/>
<path d="M372.39 108.716H405.383V156.143H372.39V108.716Z" fill="#5E463C"/>
<path d="M388.886 101.499C397.428 101.499 404.352 94.5748 404.352 86.0335C404.352 77.4922 397.428 70.5681 388.886 70.5681C380.345 70.5681 373.421 77.4922 373.421 86.0335C373.421 94.5748 380.345 101.499 388.886 101.499Z" fill="#865942"/>
<path d="M372.39 85.0024H405.383V105.623H372.39V85.0024Z" fill="#5E463C"/>
<path d="M402.664 85.0024L389.261 105.623H405.382V85.0024H402.664Z" fill="#4E362C"/>
<path d="M388.886 101.499C396.289 101.499 402.29 95.2672 402.29 87.58C402.29 79.8928 396.289 73.6611 388.886 73.6611C381.484 73.6611 375.483 79.8928 375.483 87.58C375.483 95.2672 381.484 101.499 388.886 101.499Z" fill="#5E463C"/>
<path d="M388.886 155.862L389.22 108.622H405.289V114.527V147.005V155.862H388.886Z" fill="#4E362C"/>
<path d="M388.886 105.034C395.964 105.034 401.701 99.2968 401.701 92.2197C401.701 85.1426 395.964 79.4055 388.886 79.4055C381.809 79.4055 376.072 85.1426 376.072 92.2197C376.072 99.2968 381.809 105.034 388.886 105.034Z" fill="white" stroke="#865942" stroke-width="1.17832"/>
<path d="M389.286 92.3262H388.571V99.4367H389.286V92.3262Z" fill="black"/>
<path d="M388.571 92.2933L389.102 92.7698L391.979 89.603L391.448 89.1265L388.571 92.2933Z" fill="black"/>
<path d="M388.929 93.3927C389.522 93.3927 390.002 92.9152 390.002 92.3261C390.002 91.737 389.522 91.2595 388.929 91.2595C388.336 91.2595 387.855 91.737 387.855 92.3261C387.855 92.9152 388.336 93.3927 388.929 93.3927Z" fill="black"/>
<path d="M369.297 69.5371H367.235V72.6302H369.297V69.5371Z" fill="#5E463C"/>
<path d="M369.297 69.5371H367.235V72.6302H369.297V69.5371Z" fill="#5E463C"/>
<path d="M369.297 69.5371H367.235V72.6302H369.297V69.5371Z" fill="#5E463C"/>
<path d="M369.297 73.6611H367.235C366.665 73.6611 366.204 74.1227 366.204 74.6922C366.204 75.2616 366.665 75.7232 367.235 75.7232H369.297C369.866 75.7232 370.328 75.2616 370.328 74.6922C370.328 74.1227 369.866 73.6611 369.297 73.6611Z" fill="#5E463C"/>
<path d="M369.297 73.6611H367.235C366.665 73.6611 366.204 74.1227 366.204 74.6922C366.204 75.2616 366.665 75.7232 367.235 75.7232H369.297C369.866 75.7232 370.328 75.2616 370.328 74.6922C370.328 74.1227 369.866 73.6611 369.297 73.6611Z" fill="#5E463C"/>
<path d="M369.297 73.6611H367.235C366.665 73.6611 366.204 74.1227 366.204 74.6922C366.204 75.2616 366.665 75.7232 367.235 75.7232H369.297C369.866 75.7232 370.328 75.2616 370.328 74.6922C370.328 74.1227 369.866 73.6611 369.297 73.6611Z" fill="#5E463C"/>
<path d="M368.266 74.6922C369.405 74.6922 370.328 73.769 370.328 72.6302C370.328 71.4913 369.405 70.5681 368.266 70.5681C367.127 70.5681 366.204 71.4913 366.204 72.6302C366.204 73.769 367.127 74.6922 368.266 74.6922Z" fill="#5E463C"/>
<path d="M368.266 74.6922C369.405 74.6922 370.328 73.769 370.328 72.6302C370.328 71.4913 369.405 70.5681 368.266 70.5681C367.127 70.5681 366.204 71.4913 366.204 72.6302C366.204 73.769 367.127 74.6922 368.266 74.6922Z" fill="#5E463C"/>
<path d="M368.266 74.6922C369.405 74.6922 370.328 73.769 370.328 72.6302C370.328 71.4913 369.405 70.5681 368.266 70.5681C367.127 70.5681 366.204 71.4913 366.204 72.6302C366.204 73.769 367.127 74.6922 368.266 74.6922Z" fill="#5E463C"/>
<path d="M368.266 64.3818C368.266 64.3818 372.905 69.8542 368.266 70.568C363.626 69.8542 368.266 64.3818 368.266 64.3818Z" fill="#5E463C"/>
<path d="M368.266 64.3818C368.266 64.3818 372.905 69.8542 368.266 70.568C363.626 69.8542 368.266 64.3818 368.266 64.3818Z" fill="#5E463C"/>
<path d="M368.266 64.3818C368.266 64.3818 372.905 69.8542 368.266 70.568C363.626 69.8542 368.266 64.3818 368.266 64.3818Z" fill="#5E463C"/>
<path d="M410.537 69.5371H408.475V72.6302H410.537V69.5371Z" fill="#5E463C"/>
<path d="M410.537 69.5371H408.475V72.6302H410.537V69.5371Z" fill="#5E463C"/>
<path d="M410.537 69.5371H408.475V72.6302H410.537V69.5371Z" fill="#5E463C"/>
<path d="M410.538 73.6611H408.476C407.906 73.6611 407.445 74.1227 407.445 74.6922C407.445 75.2616 407.906 75.7232 408.476 75.7232H410.538C411.107 75.7232 411.569 75.2616 411.569 74.6922C411.569 74.1227 411.107 73.6611 410.538 73.6611Z" fill="#5E463C"/>
<path d="M410.538 73.6611H408.476C407.906 73.6611 407.445 74.1227 407.445 74.6922C407.445 75.2616 407.906 75.7232 408.476 75.7232H410.538C411.107 75.7232 411.569 75.2616 411.569 74.6922C411.569 74.1227 411.107 73.6611 410.538 73.6611Z" fill="#5E463C"/>
<path d="M410.538 73.6611H408.476C407.906 73.6611 407.445 74.1227 407.445 74.6922C407.445 75.2616 407.906 75.7232 408.476 75.7232H410.538C411.107 75.7232 411.569 75.2616 411.569 74.6922C411.569 74.1227 411.107 73.6611 410.538 73.6611Z" fill="#5E463C"/>
<path d="M409.507 74.6922C410.646 74.6922 411.569 73.769 411.569 72.6302C411.569 71.4913 410.646 70.5681 409.507 70.5681C408.368 70.5681 407.445 71.4913 407.445 72.6302C407.445 73.769 408.368 74.6922 409.507 74.6922Z" fill="#5E463C"/>
<path d="M409.507 74.6922C410.646 74.6922 411.569 73.769 411.569 72.6302C411.569 71.4913 410.646 70.5681 409.507 70.5681C408.368 70.5681 407.445 71.4913 407.445 72.6302C407.445 73.769 408.368 74.6922 409.507 74.6922Z" fill="#5E463C"/>
<path d="M409.507 74.6922C410.646 74.6922 411.569 73.769 411.569 72.6302C411.569 71.4913 410.646 70.5681 409.507 70.5681C408.368 70.5681 407.445 71.4913 407.445 72.6302C407.445 73.769 408.368 74.6922 409.507 74.6922Z" fill="#5E463C"/>
<path d="M409.507 64.3818C409.507 64.3818 414.146 69.8542 409.507 70.568C404.867 69.8542 409.507 64.3818 409.507 64.3818Z" fill="#5E463C"/>
<path d="M409.507 64.3818C409.507 64.3818 414.146 69.8542 409.507 70.568C404.867 69.8542 409.507 64.3818 409.507 64.3818Z" fill="#5E463C"/>
<path d="M409.507 64.3818C409.507 64.3818 414.146 69.8542 409.507 70.568C404.867 69.8542 409.507 64.3818 409.507 64.3818Z" fill="#5E463C"/>
</g>
<g clip-path="url(#clip6)">
<path d="M366.725 -0.36499H147.293C144.475 -0.36499 142.19 1.91973 142.19 4.73807V150.175C142.19 152.994 144.475 155.278 147.293 155.278H366.725C369.543 155.278 371.828 152.994 371.828 150.175V4.73807C371.828 1.91973 369.543 -0.36499 366.725 -0.36499Z" fill="black"/>
<path d="M282.662 155.279H231.356C231.356 155.279 231.223 165.667 229.024 170.356C227.517 173.568 223.222 174.783 221.759 177.315C220.559 179.391 222.028 180.794 222.028 180.794H291.99C291.99 180.794 293.458 179.391 292.259 177.315C290.796 174.783 286.5 173.568 284.994 170.356C282.795 165.667 282.662 155.279 282.662 155.279Z" fill="url(#paint4_linear)"/>
<path d="M142.19 134.867H371.828V150.176C371.828 152.994 369.543 155.279 366.725 155.279H147.293C144.475 155.279 142.19 152.994 142.19 150.176V134.867Z" fill="#C4C4C4"/>
<path d="M255.733 150.176C257.847 150.176 259.56 148.462 259.56 146.348C259.56 144.235 257.847 142.521 255.733 142.521C253.619 142.521 251.906 144.235 251.906 146.348C251.906 148.462 253.619 150.176 255.733 150.176Z" fill="black"/>
<path d="M364.173 4.7384H149.844V129.763H364.173V4.7384Z" fill="#E2F1F8"/>
<path d="M254.457 4.7384H364.173V129.763H254.457V4.7384Z" fill="#D9E8EF"/>
</g>
<g clip-path="url(#clip7)">
<path d="M353.634 176.662H376.243V188.419C376.243 188.919 375.838 189.323 375.338 189.323H354.538C354.038 189.323 353.634 188.919 353.634 188.419V176.662Z" fill="#084A74"/>
<path d="M365.39 176.662H376.243V189.323H365.39V176.662Z" fill="#1F3347"/>
<path d="M348.297 117.961C348.249 117.431 348.666 116.974 349.198 116.974H380.679C381.211 116.974 381.628 117.431 381.579 117.961L376.243 176.662H353.634L348.297 117.961Z" fill="white"/>
<path d="M365.39 116.974H380.679C381.21 116.974 381.627 117.431 381.579 117.961L376.243 176.662H365.39V116.974Z" fill="#F2F2F2"/>
<path d="M360.869 184.802H369.912L369.508 185.611C369.201 186.223 368.575 186.61 367.89 186.61H362.891C362.206 186.61 361.579 186.223 361.273 185.611L360.869 184.802Z" fill="#001125"/>
<path d="M381.669 116.974H348.208V119.687H381.669V116.974Z" fill="#D8D8D8"/>
</g>
<g clip-path="url(#clip8)">
<path d="M358.705 150.613H319.339V195.229H358.705V150.613Z" fill="#262627"/>
<path d="M337.71 153.238H322.619V168.328H337.71V153.238Z" fill="#F4728C"/>
<path d="M322.619 153.238V168.328L337.71 153.238H322.619Z" fill="#E5637D"/>
<path d="M337.71 170.953H322.619V186.043H337.71V170.953Z" fill="#FEC1C0"/>
<path d="M355.424 153.238H340.334V168.328H355.424V153.238Z" fill="#FBD7D1"/>
<path d="M355.424 170.953H340.334V186.043H355.424V170.953Z" fill="#FC9B95"/>
<path d="M355.425 188.667H322.619V192.604H355.425V188.667Z" fill="black"/>
<path d="M349.52 189.98L352.813 189.509C353.499 189.411 354.112 189.943 354.112 190.636C354.112 191.328 353.499 191.86 352.813 191.763L349.52 191.292V189.98Z" fill="white"/>
<path d="M328.524 189.98L325.23 189.509C324.545 189.411 323.931 189.943 323.931 190.636C323.931 191.328 324.545 191.86 325.23 191.763L328.524 191.292V189.98Z" fill="white"/>
<path d="M328.524 189.98H349.52V191.292H328.524V189.98Z" fill="#F2F2F2"/>
<path d="M340.334 153.238V168.328L355.424 153.238H340.334Z" fill="#ECC8C2"/>
<path d="M340.334 153.238V168.328L355.424 153.238H340.334Z" fill="#ECC8C2"/>
<path d="M340.334 170.953V186.043L355.424 170.953H340.334Z" fill="#E78680"/>
<path d="M322.619 170.953V186.043L337.71 170.953H322.619Z" fill="#EDB0AE"/>
</g>
<path d="M432.63 178.991C432.63 178.357 433.144 177.844 433.777 177.844H454.427C455.061 177.844 455.575 178.357 455.575 178.991V180.138H432.63V178.991Z" fill="#1B1B1C"/>
<path d="M445.25 106.715H442.956V180.138H445.25V106.715Z" fill="#363637"/>
<path d="M445.311 106.654H443.999V163.735H445.311V106.654Z" fill="#272728"/>
<path d="M459.016 89.5068H430.336V106.715H459.016V89.5068Z" fill="#FFBE2C"/>
<path d="M459.017 89.5071H444.103V106.716H459.017V89.5071Z" fill="#EEB100"/>
<g clip-path="url(#clip9)">
<path d="M426.621 151.62V149.892H424.083L426.621 151.62Z" fill="#BAD6E1"/>
<path d="M436.59 155.409L438.996 154.085L437.052 150.551L436.59 155.409Z" fill="#BAD6E1"/>
<path d="M432.716 148.381L435.122 147.057L437.066 150.591L432.716 148.381Z" fill="#CAE6F1"/>
<path d="M437.052 150.551L432.698 148.333L434.646 151.875L436.594 155.417L437.052 150.551Z" fill="#90C2E0"/>
<path d="M438.542 158.958L439 154.093L436.594 155.417L438.542 158.958Z" fill="#A3D5F3"/>
<path fill-rule="evenodd" clip-rule="evenodd" d="M430.749 144.791L432.698 148.333L435.104 147.009L430.749 144.791Z" fill="#B2E4FF"/>
<path d="M425.379 158.997L438.542 158.959L436.594 155.417L425.379 158.997Z" fill="#3F6997"/>
<path d="M430.749 144.791L423.668 155.888L432.697 148.333L430.749 144.791Z" fill="#CAE6F1"/>
<path d="M423.668 155.887L425.378 158.997L436.594 155.417L432.697 148.333L423.668 155.887Z" fill="#7CAECC"/>
<path d="M421.571 151.625V149.896H424.109L421.571 151.625Z" fill="#CAE6F1"/>
<path d="M424.082 149.892L421.539 151.62H424.082L426.626 151.62L424.082 149.892Z" fill="#90C2E0"/>
<path d="M429.169 151.62L426.626 149.892L426.626 151.62L429.169 151.62Z" fill="#A3D5F3"/>
<path fill-rule="evenodd" clip-rule="evenodd" d="M418.995 151.62H421.539V149.892L418.995 151.62Z" fill="#B2E4FF"/>
<path d="M425.199 158.889L429.169 151.62L426.626 151.62L425.199 158.889Z" fill="#3F6997"/>
<path d="M418.995 151.62L422.966 158.889L421.539 151.62H418.995Z" fill="#CAE6F1"/>
<path d="M422.966 158.889H425.199L426.626 151.62H421.539L422.966 158.889Z" fill="#7CAECC"/>
<path d="M448.653 169.183H419.546V179.767H451.299L448.653 169.183Z" fill="#E59C00"/>
<path d="M420.039 169.754C419.954 169.418 419.652 169.183 419.306 169.183H408.445C408.099 169.183 407.797 169.418 407.712 169.754L405.419 178.826C405.298 179.304 405.659 179.767 406.152 179.767H421.599C422.091 179.767 422.452 179.304 422.332 178.826L420.039 169.754Z" fill="#FABD02"/>
<path d="M447.141 169.183H418.033V179.767H449.787L447.141 169.183Z" fill="#E59C00"/>
<path d="M418.526 169.754C418.441 169.418 418.139 169.183 417.793 169.183H406.932C406.586 169.183 406.284 169.418 406.199 169.754L403.906 178.826C403.786 179.304 404.147 179.767 404.639 179.767H420.086C420.579 179.767 420.94 179.304 420.819 178.826L418.526 169.754Z" fill="#FABD02"/>
<path d="M438.068 179.767H408.961V190.352H440.714L438.068 179.767Z" fill="#E59C00"/>
<path d="M410.21 180.338C410.125 180.002 409.823 179.767 409.477 179.767H398.616C398.27 179.767 397.968 180.002 397.883 180.338L395.59 189.41C395.469 189.888 395.83 190.352 396.323 190.352H411.77C412.263 190.352 412.624 189.888 412.503 189.41L410.21 180.338Z" fill="#FABD02"/>
<path d="M455.457 179.767H426.35V190.352H458.104L455.457 179.767Z" fill="#E59C00"/>
<path d="M427.599 180.338C427.514 180.002 427.212 179.767 426.866 179.767H416.005C415.659 179.767 415.357 180.002 415.272 180.338L412.979 189.41C412.859 189.888 413.22 190.352 413.712 190.352H429.159C429.652 190.352 430.013 189.888 429.892 189.41L427.599 180.338Z" fill="#FABD02"/>
<path d="M455.457 179.767H426.35V190.352H458.104L455.457 179.767Z" fill="#E59C00"/>
<path d="M427.599 180.338C427.514 180.002 427.212 179.767 426.866 179.767H416.005C415.659 179.767 415.357 180.002 415.272 180.338L412.979 189.41C412.859 189.888 413.22 190.352 413.712 190.352H429.159C429.652 190.352 430.013 189.888 429.892 189.41L427.599 180.338Z" fill="#FABD02"/>
<path d="M472.989 180.34C472.905 180.003 472.603 179.767 472.256 179.767H443.739V190.352H475.492L472.989 180.34Z" fill="url(#paint5_linear)"/>
<path d="M444.344 180.345C444.262 180.006 443.958 179.767 443.609 179.767H433.284C432.935 179.767 432.631 180.006 432.549 180.345L430.356 189.418C430.241 189.894 430.601 190.352 431.091 190.352H445.802C446.292 190.352 446.652 189.894 446.537 189.418L444.344 180.345Z" fill="#FABD02"/>
<path d="M464.673 169.756C464.589 169.419 464.286 169.183 463.939 169.183H435.422V179.767H467.176L464.673 169.756Z" fill="url(#paint6_linear)"/>
<path d="M435.915 169.754C435.83 169.418 435.528 169.183 435.182 169.183H424.321C423.975 169.183 423.673 169.418 423.588 169.754L421.295 178.826C421.174 179.304 421.536 179.767 422.028 179.767H437.475C437.968 179.767 438.329 179.304 438.208 178.826L435.915 169.754Z" fill="#FABD02"/>
<path d="M456.357 159.171C456.273 158.834 455.97 158.598 455.623 158.598H427.106V169.183H458.86L456.357 159.171Z" fill="url(#paint7_linear)"/>
<path d="M427.711 159.177C427.629 158.837 427.325 158.598 426.976 158.598H416.651C416.302 158.598 415.998 158.837 415.916 159.177L413.723 168.249C413.608 168.725 413.968 169.183 414.458 169.183H429.169C429.659 169.183 430.019 168.725 429.904 168.249L427.711 159.177Z" fill="#FABD02"/>
<path d="M459.886 172.789V171.061H457.348L459.886 172.789Z" fill="#BAD6E1"/>
<path d="M454.837 172.794V171.065H457.375L454.837 172.794Z" fill="#CAE6F1"/>
<path d="M457.348 171.061L454.805 172.789H457.348L459.892 172.789L457.348 171.061Z" fill="#90C2E0"/>
<path d="M462.435 172.789L459.891 171.061V172.789H462.435Z" fill="#A3D5F3"/>
<path fill-rule="evenodd" clip-rule="evenodd" d="M452.261 172.789H454.805V171.061L452.261 172.789Z" fill="#B2E4FF"/>
<path d="M458.465 180.058L462.435 172.789L459.892 172.789L458.465 180.058Z" fill="#3F6997"/>
<path d="M452.261 172.789L456.232 180.058L454.805 172.789H452.261Z" fill="#CAE6F1"/>
<path d="M456.232 180.058H458.465L459.892 172.789H454.805L456.232 180.058Z" fill="#7CAECC"/>
<path d="M450.168 186.835L447.871 185.57L449.729 182.197L450.168 186.835Z" fill="#BAD6E1"/>
<path d="M453.871 180.127L451.574 178.862L449.716 182.235L453.871 180.127Z" fill="#CAE6F1"/>
<path d="M449.729 182.197L453.889 180.082L452.026 183.462L450.164 186.843L449.729 182.197Z" fill="#90C2E0"/>
<path d="M448.302 190.223L447.867 185.577L450.164 186.843L448.302 190.223Z" fill="#A3D5F3"/>
<path fill-rule="evenodd" clip-rule="evenodd" d="M455.751 176.701L453.888 180.082L451.591 178.816L455.751 176.701Z" fill="#B2E4FF"/>
<path d="M460.869 190.268L448.301 190.223L450.163 186.843L460.869 190.268Z" fill="#3F6997"/>
<path d="M455.751 176.701L462.504 187.301L453.888 180.082L455.751 176.701Z" fill="#CAE6F1"/>
<path d="M462.504 187.301L460.869 190.269L450.163 186.843L453.888 180.082L462.504 187.301Z" fill="#7CAECC"/>
</g>
<g clip-path="url(#clip10)">
<path d="M96.9916 112.559H21.3934C20.0245 112.559 18.9148 113.669 18.9148 115.038V133.627C18.9148 134.996 20.0245 136.106 21.3934 136.106H96.9916C98.3605 136.106 99.4702 134.996 99.4702 133.627V115.038C99.4702 113.669 98.3605 112.559 96.9916 112.559Z" fill="#E0E0E0"/>
<path fill-rule="evenodd" clip-rule="evenodd" d="M22.6327 71.6611C21.2638 71.6611 20.1541 72.7709 20.1541 74.1398L18.9148 118.755L23.331 120.718C24.0597 121.042 24.5881 121.696 24.7507 122.477L27.59 136.105H90.795L93.6343 122.477C93.7969 121.696 94.3253 121.042 95.0541 120.718L99.4702 118.755L98.2309 74.1398C98.2309 72.7709 97.1212 71.6611 95.7523 71.6611H22.6327Z" fill="#C31018"/>
<path d="M98.2305 74.1398L99.4699 118.755L95.0537 120.718C94.325 121.042 93.7965 121.696 93.6339 122.477L90.7947 136.105H59.1921V74.1398C59.1921 72.7709 60.3018 71.6611 61.6708 71.6611H95.7519C97.1209 71.6611 98.2305 72.7709 98.2305 74.1398Z" fill="#A80000"/>
<path d="M96.9916 137.345H21.3934C20.0245 137.345 18.9148 138.455 18.9148 139.824V149.738C18.9148 151.107 20.0245 152.217 21.3934 152.217H96.9916C98.3605 152.217 99.4702 151.107 99.4702 149.738V139.824C99.4702 138.455 98.3605 137.345 96.9916 137.345Z" fill="#E0E0E0"/>
<path d="M99.4699 149.738V139.824C99.4699 138.455 98.3602 137.345 96.9912 137.345H59.1921V152.217H96.9912C98.3602 152.217 99.4699 151.107 99.4699 149.738Z" fill="#CBCBCB"/>
<path d="M95.1323 152.217H22.0128C20.9861 152.217 20.1538 153.049 20.1538 154.076C20.1538 155.103 20.9861 155.935 22.0128 155.935H95.1323C96.159 155.935 96.9913 155.103 96.9913 154.076C96.9913 153.049 96.159 152.217 95.1323 152.217Z" fill="black"/>
<path d="M96.3716 136.106H20.7735C20.4312 136.106 20.1538 136.383 20.1538 136.726C20.1538 137.068 20.4312 137.345 20.7735 137.345H96.3716C96.7139 137.345 96.9913 137.068 96.9913 136.726C96.9913 136.383 96.7139 136.106 96.3716 136.106Z" fill="black"/>
<path d="M85.8376 148.499C85.8376 147.815 86.3925 147.26 87.077 147.26H98.2308V148.617C98.2308 149.254 97.7483 149.787 97.1148 149.85L87.2003 150.841C86.4707 150.914 85.8376 150.341 85.8376 149.608V148.499Z" fill="#ABABAB"/>
<path d="M32.547 148.499C32.547 147.815 31.9921 147.26 31.3076 147.26H20.1538V148.617C20.1538 149.254 20.6363 149.787 21.2698 149.85L31.1843 150.841C31.9139 150.914 32.547 150.341 32.547 149.608V148.499Z" fill="#C4C4C4"/>
<path d="M22.6323 155.935H35.0255V165.849C35.0255 167.218 33.9158 168.328 32.5468 168.328H25.111C23.742 168.328 22.6323 167.218 22.6323 165.849V155.935Z" fill="black"/>
<path d="M82.1194 155.935H94.5125V165.849C94.5125 167.218 93.4028 168.328 92.0339 168.328H84.598C83.2291 168.328 82.1194 167.218 82.1194 165.849V155.935Z" fill="black"/>
<path d="M43.7007 146.02H73.4442L71.6507 149.607C71.2308 150.447 70.3726 150.978 69.4337 150.978H47.7112C46.7723 150.978 45.9141 150.447 45.4942 149.607L43.7007 146.02Z" fill="#262627"/>
<path d="M68.4872 140.134H49.8975C49.3842 140.134 48.968 140.55 48.968 141.063V143.542C48.968 144.055 49.3842 144.471 49.8975 144.471H68.4872C69.0006 144.471 69.4167 144.055 69.4167 143.542V141.063C69.4167 140.55 69.0006 140.134 68.4872 140.134Z" stroke="black" stroke-width="0.619657"/>
<path d="M34.0518 120.217C33.9135 119.456 34.498 118.756 35.2712 118.756H81.8739C82.6471 118.756 83.2316 119.456 83.0932 120.217L81.2503 130.353C81.036 131.532 80.0095 132.388 78.8115 132.388H38.3335C37.1356 132.388 36.1091 131.532 35.8948 130.353L34.0518 120.217Z" fill="black"/>
<path d="M20.0937 74.0778C20.1273 72.7335 21.2267 71.6611 22.5715 71.6611H95.8135C97.1582 71.6611 98.2576 72.7335 98.2913 74.0778L98.8505 96.4474H19.5344L20.0937 74.0778Z" fill="#262627"/>
<path d="M59.8118 74.1398C59.8118 72.7709 60.9214 71.6611 62.2904 71.6611H95.8131C97.1579 71.6611 98.2573 72.7335 98.291 74.0778L98.8502 96.4474H59.8118V74.1398Z" fill="black"/>
<path d="M24.008 85.4171C23.935 84.6875 24.5079 84.0544 25.2411 84.0544H93.1431C93.8763 84.0544 94.4492 84.6875 94.3763 85.4171L92.3687 105.493C92.1787 107.393 90.5794 108.841 88.6692 108.841H29.715C27.8049 108.841 26.2055 107.393 26.0156 105.493L24.008 85.4171Z" fill="#90C2E0"/>
<path d="M92.3687 105.493L94.3763 85.4171C94.4493 84.6875 93.8763 84.0544 93.1432 84.0544H59.1921V108.841H88.6692C90.5794 108.841 92.1787 107.393 92.3687 105.493Z" fill="#7EB0CE"/>
<path d="M57.9527 71.6615C58.9794 71.6615 59.8117 70.8293 59.8117 69.8026C59.8117 68.7759 58.9794 67.9436 57.9527 67.9436C56.926 67.9436 56.0938 68.7759 56.0938 69.8026C56.0938 70.8293 56.926 71.6615 57.9527 71.6615Z" fill="#C4C4C4"/>
<path d="M54.2347 71.6615C55.2614 71.6615 56.0937 70.8293 56.0937 69.8026C56.0937 68.7759 55.2614 67.9436 54.2347 67.9436C53.208 67.9436 52.3757 68.7759 52.3757 69.8026C52.3757 70.8293 53.208 71.6615 54.2347 71.6615Z" fill="#C4C4C4"/>
<path d="M61.6707 71.6615C62.6974 71.6615 63.5297 70.8293 63.5297 69.8026C63.5297 68.7759 62.6974 67.9436 61.6707 67.9436C60.6441 67.9436 59.8118 68.7759 59.8118 69.8026C59.8118 70.8293 60.6441 71.6615 61.6707 71.6615Z" fill="#C4C4C4"/>
<path d="M65.389 71.6615C66.4157 71.6615 67.248 70.8293 67.248 69.8026C67.248 68.7759 66.4157 67.9436 65.389 67.9436C64.3623 67.9436 63.53 68.7759 63.53 69.8026C63.53 70.8293 64.3623 71.6615 65.389 71.6615Z" fill="#C4C4C4"/>
<path d="M12.7177 84.0544H11.4784C10.1095 84.0544 8.99976 85.1642 8.99976 86.5331V96.4476C8.99976 97.8165 10.1095 98.9262 11.4784 98.9262H12.7177C14.0866 98.9262 15.1963 97.8165 15.1963 96.4476V86.5331C15.1963 85.1642 14.0866 84.0544 12.7177 84.0544Z" fill="#262627"/>
<path d="M12.0981 84.0546L12.7178 80.9563H20.1537" stroke="#262627" stroke-width="1.23931" stroke-linecap="square" stroke-linejoin="round"/>
<path d="M105.667 84.6746H106.906C108.275 84.6746 109.385 85.7843 109.385 87.1532V97.0677C109.385 98.4366 108.275 99.5463 106.906 99.5463H105.667C104.298 99.5463 103.188 98.4366 103.188 97.0677V87.1532C103.188 85.7843 104.298 84.6746 105.667 84.6746Z" fill="black"/>
<path d="M106.286 84.6745L105.666 81.5762H98.2305" stroke="black" stroke-width="1.23931" stroke-linecap="square" stroke-linejoin="round"/>
<path d="M32.547 142.302C32.547 140.933 31.4373 139.823 30.0683 139.823H21.3931C20.7087 139.823 20.1538 140.378 20.1538 141.063V144.781C20.1538 145.465 20.7087 146.02 21.3931 146.02H31.3076C31.9921 146.02 32.547 145.465 32.547 144.781V142.302Z" fill="#F7D100"/>
<path d="M32.547 142.302C32.547 140.933 31.4373 139.823 30.0683 139.823H21.3931C20.7087 139.823 20.1538 140.378 20.1538 141.063V144.781C20.1538 145.465 20.7087 146.02 21.3931 146.02H31.3076C31.9921 146.02 32.547 145.465 32.547 144.781V142.302Z" fill="#F7D100"/>
<path d="M23.8717 144.781C25.2406 144.781 26.3503 143.671 26.3503 142.302C26.3503 140.933 25.2406 139.823 23.8717 139.823C22.5028 139.823 21.3931 140.933 21.3931 142.302C21.3931 143.671 22.5028 144.781 23.8717 144.781Z" fill="#E3BD01"/>
<path d="M28.2091 144.781C29.2358 144.781 30.068 143.949 30.068 142.922C30.068 141.896 29.2358 141.063 28.2091 141.063C27.1824 141.063 26.3501 141.896 26.3501 142.922C26.3501 143.949 27.1824 144.781 28.2091 144.781Z" fill="#E3BD01"/>
<path d="M85.8376 142.302C85.8376 140.933 86.9473 139.823 88.3163 139.823H96.9915C97.6759 139.823 98.2308 140.378 98.2308 141.063V144.781C98.2308 145.465 97.6759 146.02 96.9915 146.02H87.077C86.3925 146.02 85.8376 145.465 85.8376 144.781V142.302Z" fill="#F7D100"/>
<path d="M85.8376 142.302C85.8376 140.933 86.9473 139.823 88.3163 139.823H96.9915C97.6759 139.823 98.2308 140.378 98.2308 141.063V144.781C98.2308 145.465 97.6759 146.02 96.9915 146.02H87.077C86.3925 146.02 85.8376 145.465 85.8376 144.781V142.302Z" fill="#F7D100"/>
<path d="M94.5126 144.781C93.1437 144.781 92.034 143.671 92.034 142.302C92.034 140.933 93.1437 139.823 94.5126 139.823C95.8815 139.823 96.9912 140.933 96.9912 142.302C96.9912 143.671 95.8815 144.781 94.5126 144.781Z" fill="#E3BD01"/>
<path d="M90.175 144.781C89.1483 144.781 88.316 143.949 88.316 142.922C88.316 141.896 89.1483 141.063 90.175 141.063C91.2016 141.063 92.0339 141.896 92.0339 142.922C92.0339 143.949 91.2016 144.781 90.175 144.781Z" fill="#E3BD01"/>
</g>
<g clip-path="url(#clip11)">
<path fill-rule="evenodd" clip-rule="evenodd" d="M77.7458 160.528L97.7087 159.067C97.6213 159.344 97.5745 159.639 97.5745 159.944C97.5745 161.555 98.8801 162.86 100.49 162.86C102.101 162.86 103.406 161.555 103.406 159.944C103.406 159.488 103.302 159.056 103.115 158.671L125.569 157.028V176.857H101.657H77.7458V174.425C77.9282 174.49 78.1243 174.525 78.3286 174.525C79.2949 174.525 80.0784 173.741 80.0784 172.775C80.0784 171.809 79.2949 171.025 78.3286 171.025C78.1243 171.025 77.928 171.061 77.7456 171.125V168.693C78.3896 168.693 78.9119 168.17 78.9119 167.526C78.9119 166.882 78.3896 166.36 77.7456 166.36L77.7458 160.528Z" fill="#E59C00"/>
<path d="M109.239 158.195L125.569 157.028V176.857H109.239V158.195Z" fill="#D08700"/>
<path d="M87.6597 161.694C89.2702 161.694 90.5757 160.389 90.5757 158.778C90.5757 157.168 89.2702 155.862 87.6597 155.862C86.0492 155.862 84.7437 157.168 84.7437 158.778C84.7437 160.389 86.0492 161.694 87.6597 161.694Z" fill="black"/>
<path d="M88.8265 171.025C89.7928 171.025 90.5761 170.242 90.5761 169.276C90.5761 168.309 89.7928 167.526 88.8265 167.526C87.8602 167.526 87.0769 168.309 87.0769 169.276C87.0769 170.242 87.8602 171.025 88.8265 171.025Z" fill="#D08700"/>
<path d="M98.7408 169.859C100.029 169.859 101.074 168.815 101.074 167.526C101.074 166.238 100.029 165.193 98.7408 165.193C97.4524 165.193 96.408 166.238 96.408 167.526C96.408 168.815 97.4524 169.859 98.7408 169.859Z" fill="#D08700"/>
<path d="M112.738 165.193C114.026 165.193 115.071 164.149 115.071 162.86C115.071 161.572 114.026 160.527 112.738 160.527C111.449 160.527 110.405 161.572 110.405 162.86C110.405 164.149 111.449 165.193 112.738 165.193Z" fill="#BE7500"/>
<path d="M119.736 171.026C121.669 171.026 123.236 169.459 123.236 167.526C123.236 165.594 121.669 164.027 119.736 164.027C117.804 164.027 116.237 165.594 116.237 167.526C116.237 169.459 117.804 171.026 119.736 171.026Z" fill="#BE7500"/>
<path d="M95.2415 174.525C93.9531 174.525 92.9087 175.569 92.9087 176.857H97.5743C97.5743 175.569 96.5299 174.525 95.2415 174.525Z" fill="#C68005"/>
</g>
<g clip-path="url(#clip12)">
<path d="M137.761 64.991H130.872C129.921 64.991 129.149 65.7621 129.149 66.7132V85.6584C129.149 86.6095 129.921 87.3806 130.872 87.3806H137.761C138.712 87.3806 139.483 86.6095 139.483 85.6584V66.7132C139.483 65.7621 138.712 64.991 137.761 64.991Z" fill="#1B1B1C"/>
<path d="M134.317 64.991H137.761C138.712 64.991 139.483 65.7621 139.483 66.7132V85.6584C139.483 86.6096 138.712 87.3806 137.761 87.3806H134.317V64.991Z" fill="black"/>
<path d="M140.345 91.6865C140.826 92.7994 142.067 94.2699 142.067 94.2699H134.317V84.7974H139.483C139.483 84.7974 139.277 89.2171 140.345 91.6865Z" fill="#730000"/>
<path d="M128.288 91.6865C127.754 92.9005 126.566 94.2699 126.566 94.2699H134.316V84.7974H129.15C129.15 84.7974 129.475 88.9927 128.288 91.6865Z" fill="#900202"/>
<path d="M134.317 182.106H146.373C147.324 182.106 148.095 181.335 148.095 180.384V106.326C148.095 106.326 147.643 101.902 146.373 99.4369C145.169 97.1023 142.067 94.27 142.067 94.27H134.317V182.106Z" fill="#730000"/>
<path d="M134.316 182.106H122.26C121.309 182.106 120.538 181.335 120.538 180.384V106.326C120.538 106.326 120.989 101.902 122.26 99.4369C123.464 97.1023 126.566 94.27 126.566 94.27H134.316V182.106Z" fill="#900202"/>
<path d="M139.483 59.8242H129.15C128.198 59.8242 127.427 60.5953 127.427 61.5465V66.7133C127.427 67.6645 128.198 68.4356 129.15 68.4356H139.483C140.434 68.4356 141.206 67.6645 141.206 66.7133V61.5465C141.206 60.5953 140.434 59.8242 139.483 59.8242Z" fill="#1B1B1C"/>
<path d="M134.317 59.8242H139.483C140.435 59.8242 141.206 60.5953 141.206 61.5465V66.7133C141.206 67.6645 140.435 68.4356 139.483 68.4356H134.317V59.8242Z" fill="black"/>
</g>
<g clip-path="url(#clip13)">
<path d="M176.461 134.291H151.057C148.311 134.291 146.084 136.518 146.084 139.264V204.034C146.084 206.781 148.311 209.008 151.057 209.008H176.461C179.208 209.008 181.434 206.781 181.434 204.034V139.264C181.434 136.518 179.208 134.291 176.461 134.291Z" fill="white" stroke="#D5D5D6" stroke-width="0.904198"/>
<path d="M163.759 134.743H176.461C178.958 134.743 180.982 136.768 180.982 139.264V204.281C180.982 206.777 178.958 208.802 176.461 208.802H163.759V134.743Z" fill="#F5F5F5"/>
<path d="M178.437 144.585H149.081C148.581 144.585 148.177 144.99 148.177 145.489V197.81C148.177 198.309 148.581 198.714 149.081 198.714H178.437C178.937 198.714 179.342 198.309 179.342 197.81V145.489C179.342 144.99 178.937 144.585 178.437 144.585Z" fill="#262627"/>
<path d="M163.796 144.585H178.438C178.937 144.585 179.342 144.99 179.342 145.489V197.81C179.342 198.309 178.937 198.714 178.438 198.714H163.759L163.796 144.585Z" fill="black"/>
<path d="M163.76 206.485C165.334 206.485 166.61 205.209 166.61 203.635C166.61 202.061 165.334 200.785 163.76 200.785C162.186 200.785 160.91 202.061 160.91 203.635C160.91 205.209 162.186 206.485 163.76 206.485Z" fill="white" stroke="#C4C4C4" stroke-width="0.861141"/>
<path d="M160.479 203.635C160.479 205.447 161.948 206.915 163.759 206.915V200.354C161.948 200.354 160.479 201.823 160.479 203.635Z" fill="#F5F5F5"/>
<path d="M163.76 206.485C165.334 206.485 166.61 205.209 166.61 203.635C166.61 202.061 165.334 200.785 163.76 200.785C162.186 200.785 160.91 202.061 160.91 203.635C160.91 205.209 162.186 206.485 163.76 206.485Z" stroke="#C4C4C4" stroke-width="0.861141"/>
<path d="M166.63 140.484H161.709C161.483 140.484 161.299 140.668 161.299 140.894V140.894C161.299 141.121 161.483 141.305 161.709 141.305H166.63C166.856 141.305 167.04 141.121 167.04 140.894C167.04 140.668 166.856 140.484 166.63 140.484Z" fill="#AAAAAB"/>
<path d="M159.659 140.894C159.659 140.668 159.475 140.484 159.249 140.484C159.022 140.484 158.839 140.668 158.839 140.894V140.894C158.839 141.121 159.022 141.305 159.249 141.305C159.475 141.305 159.659 141.121 159.659 140.894V140.894Z" fill="#AAAAAB"/>
<path d="M164.579 138.024C164.579 137.571 164.212 137.204 163.759 137.204C163.306 137.204 162.939 137.571 162.939 138.024C162.939 138.477 163.306 138.844 163.759 138.844C164.212 138.844 164.579 138.477 164.579 138.024Z" fill="#262627"/>
<path d="M182.704 178.662H183.565V209.663H182.704V178.662Z" fill="black"/>
<path fill-rule="evenodd" clip-rule="evenodd" d="M187.871 163.161V173.495C186.785 173.495 185.478 172.941 184.427 172.04V176.94V179.092C184.427 179.806 183.848 180.384 183.135 180.384C182.422 180.384 181.843 179.806 181.843 179.092V176.94V172.117V171.773V169.017C181.843 168.226 182.04 167.298 182.132 166.906C182.137 166.843 182.152 166.78 182.178 166.717C183.045 164.653 186.089 163.161 187.871 163.161Z" fill="#0F62BD"/>
<path d="M184.427 171.64L183.565 170.911V180.384C184.041 180.384 184.427 179.998 184.427 179.523V171.64Z" fill="#09308B"/>
<path d="M187.871 164.883H190.455V171.772H187.871V164.883Z" fill="black"/>
<path d="M188.753 169.706C188.753 172.56 188.446 173.495 190.184 173.495C191.921 173.495 194.76 172.56 194.76 169.706C194.76 169.071 194.76 167.639 194.76 166.95C194.76 163.85 191.535 163.161 190.184 163.161C188.588 163.161 188.717 163.734 188.749 166.261C188.751 166.487 188.753 169.473 188.753 169.706Z" fill="#262627"/>
<path d="M190.184 173.495C188.446 173.495 188.753 172.394 188.753 166.606L194.76 169.037C194.76 172.394 191.921 173.495 190.184 173.495Z" fill="black"/>
<path d="M199.066 201.051H198.205V209.663H199.066V201.051Z" fill="black"/>
<path fill-rule="evenodd" clip-rule="evenodd" d="M193.899 185.551V195.885C194.986 195.885 196.293 195.33 197.344 194.429V199.329V201.482C197.344 202.196 197.922 202.774 198.635 202.774C199.349 202.774 199.927 202.196 199.927 201.482V199.329V194.507V194.162V191.407C199.927 190.615 199.731 189.687 199.639 189.296C199.636 189.263 199.631 189.231 199.623 189.198C199.615 189.168 199.605 189.137 199.592 189.107C198.725 187.042 195.681 185.551 193.899 185.551Z" fill="#0F62BD"/>
<path d="M197.344 194.03L198.205 193.301V202.774C197.729 202.774 197.344 202.388 197.344 201.912V194.03Z" fill="#09308B"/>
<path d="M193.899 187.273H191.316V194.162H193.899V187.273Z" fill="black"/>
<path d="M193.017 192.096C193.017 194.949 193.325 195.885 191.587 195.885C189.849 195.885 187.01 194.949 187.01 192.096C187.01 191.461 187.01 190.029 187.01 189.34C187.01 186.24 190.236 185.551 191.587 185.551C193.182 185.551 193.054 186.123 193.022 188.651C193.019 188.876 193.017 191.862 193.017 192.096Z" fill="#262627"/>
<path d="M191.587 195.884C193.325 195.884 193.017 194.784 193.017 188.995L187.01 191.427C187.01 194.784 189.849 195.884 191.587 195.884Z" fill="black"/>
</g>
</g>
<defs>
<linearGradient id="paint0_linear" x1="245.127" y1="-5.23458" x2="471.886" y2="149.505" gradientUnits="userSpaceOnUse">
<stop/>
<stop offset="0.9999"/>
</linearGradient>
<linearGradient id="paint1_linear" x1="486.406" y1="118.188" x2="486.406" y2="134.953" gradientUnits="userSpaceOnUse">
<stop stop-color="#5E463C"/>
<stop offset="0.933702" stop-color="#533B31"/>
</linearGradient>
<linearGradient id="paint2_linear" x1="366.204" y1="151.504" x2="405.383" y2="175.733" gradientUnits="userSpaceOnUse">
<stop stop-color="#865942"/>
<stop offset="0.0001" stop-color="#865942"/>
<stop offset="0.966851" stop-color="#5E463C"/>
</linearGradient>
<linearGradient id="paint3_linear" x1="364.786" y1="164.391" x2="380.346" y2="189.951" gradientUnits="userSpaceOnUse">
<stop stop-color="#865942"/>
<stop offset="0.0001" stop-color="#865942"/>
<stop offset="0.966851" stop-color="#5E463C"/>
</linearGradient>
<linearGradient id="paint4_linear" x1="257.009" y1="155.279" x2="257.009" y2="180.794" gradientUnits="userSpaceOnUse">
<stop offset="0.00552486" stop-color="#ADADAD"/>
<stop offset="0.446509" stop-color="#C4C4C4"/>
<stop offset="0.596685" stop-color="#8D8D8D"/>
<stop offset="0.779006" stop-color="#989898"/>
<stop offset="0.878453" stop-color="#ACACAC"/>
<stop offset="1" stop-color="#C4C4C4"/>
</linearGradient>
<linearGradient id="paint5_linear" x1="459.616" y1="179.767" x2="459.616" y2="190.352" gradientUnits="userSpaceOnUse">
<stop stop-color="#E59C00"/>
<stop offset="1" stop-color="#DB9200"/>
</linearGradient>
<linearGradient id="paint6_linear" x1="451.299" y1="169.183" x2="451.299" y2="179.767" gradientUnits="userSpaceOnUse">
<stop stop-color="#E59C00"/>
<stop offset="1" stop-color="#DC9300"/>
</linearGradient>
<linearGradient id="paint7_linear" x1="442.983" y1="158.598" x2="442.983" y2="169.183" gradientUnits="userSpaceOnUse">
<stop stop-color="#E59C00"/>
<stop offset="1" stop-color="#DB9200"/>
</linearGradient>
<clipPath id="clip0">
<rect width="514" height="210" fill="white"/>
</clipPath>
<clipPath id="clip1">
<rect width="182.398" height="129.253" fill="white" transform="translate(287.846 29.8895)"/>
</clipPath>
<clipPath id="clip2">
<rect width="132.534" height="117.443" fill="white" transform="translate(49.6785 29.8895)"/>
</clipPath>
<clipPath id="clip3">
<rect width="87.2623" height="90.5428" fill="white" transform="translate(453.185 89.595)"/>
</clipPath>
<clipPath id="clip4">
<rect width="27.5335" height="35.5641" fill="white" transform="translate(472.688 118.188)"/>
</clipPath>
<clipPath id="clip5">
<rect width="57.7375" height="106.946" fill="white" transform="translate(360.017 64.6631)"/>
</clipPath>
<clipPath id="clip6">
<rect width="229.638" height="181.086" fill="white" transform="translate(142.19 -0.291626)"/>
</clipPath>
<clipPath id="clip7">
<rect width="33.4615" height="72.1718" fill="white" transform="translate(348.208 117.152)"/>
</clipPath>
<clipPath id="clip8">
<rect width="40.0226" height="54.4569" fill="white" transform="translate(318.683 140.771)"/>
</clipPath>
<clipPath id="clip9">
<rect width="80.0451" height="56.4252" fill="white" transform="translate(395.447 142.74)"/>
</clipPath>
<clipPath id="clip10">
<rect width="100.384" height="100.384" fill="white" transform="translate(8.99976 67.9436)"/>
</clipPath>
<clipPath id="clip11">
<rect width="49.2081" height="20.9954" fill="white" transform="translate(76.5791 155.862)"/>
</clipPath>
<clipPath id="clip12">
<rect width="27.5565" height="122.036" fill="white" transform="translate(120.538 60.0703)"/>
</clipPath>
<clipPath id="clip13">
<rect width="55.113" height="76.1085" fill="white" transform="translate(144.814 133.555)"/>
</clipPath>
</defs>
</svg>
