<svg width="544" height="239" viewBox="0 0 544 239" fill="none" xmlns="http://www.w3.org/2000/svg">
<path d="M468.459 165.917C468.459 165.238 469.01 164.687 469.689 164.687H491.824C492.503 164.687 493.053 165.238 493.053 165.917V167.147H468.459V165.917Z" fill="#1B1B1C"/>
<path d="M481.986 88.4456H479.527V167.147H481.986V88.4456Z" fill="#363637"/>
<path d="M482.052 88.3798H480.646V149.565H482.052V88.3798Z" fill="#272728"/>
<path d="M496.743 70H466V88.4456H496.743V70Z" fill="#FFBE2C"/>
<path d="M496.743 70H480.756V88.4456H496.743V70Z" fill="#EEB100"/>
<path d="M394.259 186.928H402.402V188.964C402.402 190.088 401.491 191 400.366 191H396.295C395.17 191 394.259 190.088 394.259 188.964V186.928Z" fill="black"/>
<path d="M455.333 186.928H463.476V188.964C463.476 190.088 462.564 191 461.44 191H457.368C456.244 191 455.333 190.088 455.333 188.964V186.928Z" fill="black"/>
<path d="M386.117 58.6757C386.117 55.3028 388.851 52.5684 392.224 52.5684H463.475C466.848 52.5684 469.583 55.3028 469.583 58.6757V180.821C469.583 184.194 466.848 186.928 463.475 186.928H392.224C388.851 186.928 386.117 184.194 386.117 180.821V58.6757Z" fill="#003E6C"/>
<path d="M428.868 52.5684H465.759C468.995 52.5684 471.619 55.1919 471.619 58.4281V181.069C471.619 184.305 468.995 186.928 465.759 186.928H428.868V52.5684Z" fill="#00305E"/>
<path d="M428.866 178.785C447.979 178.785 463.474 163.291 463.474 144.177C463.474 125.064 447.979 109.569 428.866 109.569C409.752 109.569 394.258 125.064 394.258 144.177C394.258 163.291 409.752 178.785 428.866 178.785Z" fill="#E59C00"/>
<path d="M429.886 178.786C448.437 178.786 463.476 163.747 463.476 145.196C463.476 126.644 448.437 111.606 429.886 111.606C411.334 111.606 396.296 126.644 396.296 145.196C396.296 163.747 411.334 178.786 429.886 178.786Z" fill="#E59C00"/>
<path d="M428.867 172.678C444.608 172.678 457.368 159.918 457.368 144.177C457.368 128.437 444.608 115.677 428.867 115.677C413.127 115.677 400.367 128.437 400.367 144.177C400.367 159.918 413.127 172.678 428.867 172.678Z" fill="#333333"/>
<path d="M400.367 144.177C400.367 159.918 413.127 172.678 428.867 172.678V115.677C413.127 115.677 400.367 128.437 400.367 144.177Z" fill="#262627"/>
<path d="M428.868 154.357C434.489 154.357 439.047 149.799 439.047 144.178C439.047 138.556 434.489 133.999 428.868 133.999C423.246 133.999 418.689 138.556 418.689 144.178C418.689 149.799 423.246 154.357 428.868 154.357Z" fill="#BDBDBD"/>
<path d="M428.868 154.357C434.489 154.357 439.047 149.799 439.047 144.178C439.047 138.556 434.489 133.999 428.868 133.999V154.357Z" fill="#AAAAAB"/>
<path d="M429.884 103.462C441.69 103.462 451.26 93.8923 451.26 82.087C451.26 70.2817 441.69 60.7115 429.884 60.7115C418.079 60.7115 408.509 70.2817 408.509 82.087C408.509 93.8923 418.079 103.462 429.884 103.462Z" fill="#E59C00"/>
<path d="M429.884 99.3906C439.441 99.3906 447.188 91.6434 447.188 82.0867C447.188 72.53 439.441 64.7827 429.884 64.7827C420.327 64.7827 412.58 72.53 412.58 82.0867C412.58 91.6434 420.327 99.3906 429.884 99.3906Z" fill="#333333"/>
<path d="M412.58 82.0867C412.58 91.6433 420.327 99.3906 429.884 99.3906V64.7827C420.327 64.7827 412.58 72.53 412.58 82.0867Z" fill="#262627"/>
<path d="M429.884 87.1766C432.695 87.1766 434.973 84.898 434.973 82.0872C434.973 79.2764 432.695 76.9978 429.884 76.9978C427.073 76.9978 424.794 79.2764 424.794 82.0872C424.794 84.898 427.073 87.1766 429.884 87.1766Z" fill="#BDBDBD"/>
<path d="M429.884 87.1766C432.695 87.1766 434.973 84.8979 434.973 82.0872C434.973 79.2764 432.695 76.9978 429.884 76.9978V87.1766Z" fill="#AAAAAB"/>
<g clip-path="url(#clip0)">
<path d="M188.022 103.884H81.6243C81.6243 103.884 71.2644 103.884 71.2644 121.267C71.2644 136.095 78.8018 139.03 81.0181 139.572L187.895 139.688C188.737 139.688 189.42 138.992 189.42 138.132C189.42 137.272 188.737 136.575 187.895 136.575L82.5742 136.461C80.5867 135.964 74.2806 133.427 74.2806 121.224C74.2806 106.738 83.1666 106.738 83.1666 106.738H188.022C188.794 106.738 189.42 106.099 189.42 105.311C189.42 104.523 188.794 103.884 188.022 103.884Z" fill="#E59C00"/>
<path d="M187.63 107.464H83.8275C83.8275 107.464 74.845 107.464 74.845 121.371C74.845 135.278 83.8275 136.108 83.8275 136.108H187.63C187.63 136.108 178.647 135.278 178.647 121.371C178.647 107.464 187.63 107.464 187.63 107.464Z" fill="#FBF9ED"/>
<path d="M190.162 106.6H83.0609C83.0609 106.6 73.793 106.6 73.793 121.069C73.793 135.538 83.0609 136.402 83.0609 136.402H190.162C190.162 136.402 180.894 135.538 180.894 121.069C180.894 106.6 190.162 106.6 190.162 106.6Z" fill="#FBF9ED"/>
<path d="M73.793 121.501C73.793 135.562 83.0609 136.402 83.0609 136.402H190.162C190.162 136.402 180.894 135.562 180.894 121.501H73.793Z" fill="#EDEBDF"/>
<path d="M67.3066 75.2467H168.204C168.204 75.2467 178.678 74.4866 178.678 89.1851C178.678 103.884 171.058 103.241 168.817 103.771L67.435 103.884C66.5837 103.884 65.8936 103.203 65.8936 102.363C65.8936 101.524 66.5837 100.843 67.435 100.843L167.243 100.731C169.253 100.246 175.39 100.251 175.372 89.1429C175.354 78.0345 166.644 78.0345 166.644 78.0345H67.3066C66.5262 78.0345 65.8936 77.4104 65.8936 76.6406C65.8936 75.8708 66.5262 75.2467 67.3066 75.2467Z" fill="#0A407A"/>
<path d="M69.474 78.8206H167.795C167.795 78.8206 176.888 78.8206 176.888 89.2834C176.888 99.7465 167.795 100.303 167.795 100.303H69.474C69.474 100.303 78.5673 99.7465 78.5673 89.2834C78.5673 78.8206 69.474 78.8206 69.474 78.8206Z" fill="#FBF9ED"/>
<path d="M69.536 78.2175H172.157C172.157 78.2175 181.648 78.2175 181.648 89.2761C181.648 100.335 172.157 100.924 172.157 100.924H69.536C69.536 100.924 79.027 100.335 79.027 89.2761C79.027 78.2175 69.536 78.2175 69.536 78.2175Z" fill="#FBF9ED"/>
<path d="M167.839 100.303C167.839 100.303 176.888 100.536 176.888 89.5622H79.041C79.041 99.8662 70.6058 100.29 69.5766 100.303H69.474C69.474 100.303 69.5096 100.304 69.5766 100.303H167.839Z" fill="#EDEBDF"/>
<path d="M192.092 139.248H76.5625C76.5625 139.248 64.5687 138.382 64.5687 155.131C64.5687 171.88 73.2948 171.147 75.8608 171.751L191.945 171.88C192.92 171.88 193.71 171.104 193.71 170.147C193.71 169.191 192.92 168.415 191.945 168.415L77.6622 168.288C75.3612 167.735 68.3343 167.741 68.3548 155.083C68.3751 142.424 78.3481 142.424 78.3481 142.424H192.092C192.985 142.424 193.71 141.713 193.71 140.836C193.71 139.959 192.985 139.248 192.092 139.248Z" fill="#0A407A"/>
<path d="M190.162 142.892L77.8668 142.078C77.8668 142.078 66.9367 142.892 68.2219 154.886C67.3449 168.23 77.8668 168.332 77.8668 168.332L190.162 167.519C190.162 167.519 179.701 166.88 179.701 154.886C179.701 142.892 190.162 142.892 190.162 142.892Z" fill="#FBF9ED"/>
<path d="M197.967 142.788H80.4083C80.4083 142.788 69.5358 142.788 69.5358 155.229C69.5358 167.67 80.4083 168.332 80.4083 168.332H197.967C197.967 168.332 187.095 167.67 187.095 155.229C187.095 142.788 197.967 142.788 197.967 142.788Z" fill="#FBF9ED"/>
<path d="M78.3568 168.332C78.3568 168.332 68.8258 167.8 68.8258 155.56H180.647C180.647 167.053 190.287 167.526 191.464 167.541H191.581C191.581 167.541 191.54 167.542 191.464 167.541L78.3568 168.332Z" fill="#EDEBDF"/>
<path d="M191.543 44.8132H87.4423C87.4423 44.8132 76.6351 44.0054 76.6351 59.6228C76.6351 75.2402 84.4978 74.5566 86.8101 75.1198L191.41 75.2402C192.288 75.2402 193 74.5169 193 73.6246C193 72.7324 192.288 72.009 191.41 72.009L88.4333 71.8903C86.3599 71.375 80.0282 71.3808 80.0466 59.5779C80.0649 47.7752 89.0513 47.7752 89.0513 47.7752H191.543C192.348 47.7752 193 47.1121 193 46.2942C193 45.4763 192.348 44.8132 191.543 44.8132Z" fill="#C31018"/>
<path d="M189.42 48.3865H89.4602C89.4602 48.3865 80.2155 48.3865 80.2155 59.7214C80.2155 71.0563 89.4602 71.6596 89.4602 71.6596H189.42C189.42 71.6596 180.175 71.0563 180.175 59.7214C180.175 48.3865 189.42 48.3865 189.42 48.3865Z" fill="#FBF9ED"/>
<path d="M192.291 47.7062H89.021C89.021 47.7062 79.4701 47.7062 79.4701 59.4561C79.4701 71.2061 89.021 71.8315 89.021 71.8315H192.291C192.291 71.8315 182.74 71.2061 182.74 59.4561C182.74 47.7062 192.291 47.7062 192.291 47.7062Z" fill="#FBF9ED"/>
<path d="M89.4157 71.6592C89.4157 71.6592 80.2155 71.9308 80.2155 59.1281H179.693C179.693 71.1495 188.269 71.6438 189.316 71.6592H189.42C189.42 71.6592 189.384 71.6603 189.316 71.6592H89.4157Z" fill="#EDEBDF"/>
</g>
<g clip-path="url(#clip1)">
<path d="M92.6219 130.963H13.0455C11.6045 130.963 10.4364 132.131 10.4364 133.572V153.14C10.4364 154.581 11.6045 155.749 13.0455 155.749H92.6219C94.0629 155.749 95.231 154.581 95.231 153.14V133.572C95.231 132.131 94.0629 130.963 92.6219 130.963Z" fill="#E0E0E0"/>
<path fill-rule="evenodd" clip-rule="evenodd" d="M14.35 87.9135C12.9091 87.9135 11.7409 89.0817 11.7409 90.5226L10.4364 137.486L15.085 139.552C15.852 139.893 16.4083 140.582 16.5794 141.404L19.5681 155.749H86.0993L89.088 141.404C89.2591 140.582 89.8154 139.893 90.5824 139.552L95.231 137.486L93.9265 90.5226C93.9265 89.0817 92.7584 87.9135 91.3174 87.9135H14.35Z" fill="#C31018"/>
<path d="M93.9265 90.5226L95.231 137.486L90.5825 139.552C89.8154 139.893 89.2591 140.582 89.088 141.404L86.0993 155.749H52.8337V90.5226C52.8337 89.0817 54.0018 87.9135 55.4428 87.9135H91.3174C92.7584 87.9135 93.9265 89.0817 93.9265 90.5226Z" fill="#A80000"/>
<path d="M92.6219 157.054H13.0455C11.6045 157.054 10.4364 158.222 10.4364 159.663V170.099C10.4364 171.54 11.6045 172.708 13.0455 172.708H92.6219C94.0629 172.708 95.231 171.54 95.231 170.099V159.663C95.231 158.222 94.0629 157.054 92.6219 157.054Z" fill="#E0E0E0"/>
<path d="M95.231 170.099V159.663C95.231 158.222 94.063 157.054 92.622 157.054H52.8337V172.708H92.622C94.063 172.708 95.231 171.54 95.231 170.099Z" fill="#CBCBCB"/>
<path d="M90.665 172.708H13.6976C12.6169 172.708 11.7408 173.584 11.7408 174.665C11.7408 175.746 12.6169 176.622 13.6976 176.622H90.665C91.7458 176.622 92.6218 175.746 92.6218 174.665C92.6218 173.584 91.7458 172.708 90.665 172.708Z" fill="black"/>
<path d="M91.9696 155.749H12.3931C12.0329 155.749 11.7408 156.041 11.7408 156.402C11.7408 156.762 12.0329 157.054 12.3931 157.054H91.9696C92.3298 157.054 92.6218 156.762 92.6218 156.402C92.6218 156.041 92.3298 155.749 91.9696 155.749Z" fill="black"/>
<path d="M80.8811 168.795C80.8811 168.074 81.4651 167.49 82.1856 167.49H93.9264V168.918C93.9264 169.589 93.4186 170.15 92.7517 170.216L82.3154 171.26C81.5475 171.337 80.8811 170.734 80.8811 169.962V168.795Z" fill="#ABABAB"/>
<path d="M24.7862 168.795C24.7862 168.074 24.2021 167.49 23.4816 167.49H11.7408V168.918C11.7408 169.589 12.2487 170.15 12.9156 170.216L23.3518 171.26C24.1198 171.337 24.7862 170.734 24.7862 169.962V168.795Z" fill="#C4C4C4"/>
<path d="M14.35 176.622H27.3953V187.058C27.3953 188.499 26.2272 189.667 24.7862 189.667H16.959C15.5181 189.667 14.35 188.499 14.35 187.058V176.622Z" fill="black"/>
<path d="M76.9677 176.622H90.013V187.058C90.013 188.499 88.8449 189.667 87.4039 189.667H79.5767C78.1357 189.667 76.9677 188.499 76.9677 187.058V176.622Z" fill="black"/>
<path d="M36.527 166.185H67.8358L65.9478 169.961C65.5059 170.845 64.6025 171.403 63.6142 171.403H40.7486C39.7603 171.403 38.8569 170.845 38.4149 169.961L36.527 166.185Z" fill="#262627"/>
<path d="M62.6178 159.989H43.0498C42.5095 159.989 42.0714 160.427 42.0714 160.967V163.576C42.0714 164.117 42.5095 164.555 43.0498 164.555H62.6178C63.1581 164.555 63.5962 164.117 63.5962 163.576V160.967C63.5962 160.427 63.1581 159.989 62.6178 159.989Z" stroke="black" stroke-width="0.652266"/>
<path d="M26.3703 139.024C26.2247 138.223 26.8399 137.486 27.6538 137.486H76.7089C77.5228 137.486 78.1381 138.223 77.9925 139.024L76.0525 149.693C75.8269 150.934 74.7464 151.836 73.4854 151.836H30.8773C29.6164 151.836 28.5358 150.934 28.3103 149.693L26.3703 139.024Z" fill="black"/>
<path d="M11.6774 90.4574C11.7128 89.0423 12.8701 87.9135 14.2856 87.9135H91.3819C92.7975 87.9135 93.9547 89.0423 93.9902 90.4574L94.5788 114.004H11.0887L11.6774 90.4574Z" fill="#262627"/>
<path d="M53.4858 90.5226C53.4858 89.0817 54.6539 87.9135 56.0949 87.9135H91.3817C92.7973 87.9135 93.9545 89.0423 93.99 90.4574L94.5786 114.004H53.4858V90.5226Z" fill="black"/>
<path d="M15.7979 102.393C15.721 101.625 16.3241 100.959 17.0959 100.959H88.5712C89.343 100.959 89.946 101.625 89.8692 102.393L87.756 123.525C87.556 125.526 85.8725 127.049 83.8618 127.049H21.8052C19.7946 127.049 18.1111 125.526 17.9111 123.525L15.7979 102.393Z" fill="#90C2E0"/>
<path d="M87.7562 123.525L89.8694 102.393C89.9462 101.625 89.3432 100.959 88.5714 100.959H52.8337V127.049H83.862C85.8727 127.049 87.5562 125.526 87.7562 123.525Z" fill="#7EB0CE"/>
<path d="M51.5289 87.9136C52.6097 87.9136 53.4857 87.0375 53.4857 85.9568C53.4857 84.8761 52.6097 84 51.5289 84C50.4482 84 49.5721 84.8761 49.5721 85.9568C49.5721 87.0375 50.4482 87.9136 51.5289 87.9136Z" fill="#C4C4C4"/>
<path d="M47.6156 87.9136C48.6963 87.9136 49.5724 87.0375 49.5724 85.9568C49.5724 84.8761 48.6963 84 47.6156 84C46.5349 84 45.6588 84.8761 45.6588 85.9568C45.6588 87.0375 46.5349 87.9136 47.6156 87.9136Z" fill="#C4C4C4"/>
<path d="M55.4426 87.9136C56.5233 87.9136 57.3994 87.0375 57.3994 85.9568C57.3994 84.8761 56.5233 84 55.4426 84C54.3619 84 53.4858 84.8761 53.4858 85.9568C53.4858 87.0375 54.3619 87.9136 55.4426 87.9136Z" fill="#C4C4C4"/>
<path d="M59.3565 87.9136C60.4372 87.9136 61.3133 87.0375 61.3133 85.9568C61.3133 84.8761 60.4372 84 59.3565 84C58.2757 84 57.3997 84.8761 57.3997 85.9568C57.3997 87.0375 58.2757 87.9136 59.3565 87.9136Z" fill="#C4C4C4"/>
<path d="M3.9136 100.959H2.60906C1.16812 100.959 0 102.127 0 103.568V114.004C0 115.445 1.16812 116.613 2.60906 116.613H3.9136C5.35454 116.613 6.52266 115.445 6.52266 114.004V103.568C6.52266 102.127 5.35454 100.959 3.9136 100.959Z" fill="#262627"/>
<path d="M3.26147 100.959L3.91374 97.6976H11.7409" stroke="#262627" stroke-width="1.30453" stroke-linecap="square" stroke-linejoin="round"/>
<path d="M101.754 101.611H103.058C104.499 101.611 105.667 102.779 105.667 104.22V114.656C105.667 116.097 104.499 117.265 103.058 117.265H101.754C100.313 117.265 99.1447 116.097 99.1447 114.656V104.22C99.1447 102.779 100.313 101.611 101.754 101.611Z" fill="black"/>
<path d="M102.406 101.611L101.754 98.3497H93.9266" stroke="black" stroke-width="1.30453" stroke-linecap="square" stroke-linejoin="round"/>
<path d="M24.7862 162.272C24.7862 160.831 23.6181 159.663 22.1771 159.663H13.0454C12.3249 159.663 11.7408 160.247 11.7408 160.967V164.881C11.7408 165.602 12.3249 166.186 13.0454 166.186H23.4816C24.2021 166.186 24.7862 165.602 24.7862 164.881V162.272Z" fill="#F7D100"/>
<path d="M24.7862 162.272C24.7862 160.831 23.6181 159.663 22.1771 159.663H13.0454C12.3249 159.663 11.7408 160.247 11.7408 160.967V164.881C11.7408 165.602 12.3249 166.186 13.0454 166.186H23.4816C24.2021 166.186 24.7862 165.602 24.7862 164.881V162.272Z" fill="#F7D100"/>
<path d="M15.6544 164.881C17.0953 164.881 18.2634 163.713 18.2634 162.272C18.2634 160.831 17.0953 159.663 15.6544 159.663C14.2134 159.663 13.0453 160.831 13.0453 162.272C13.0453 163.713 14.2134 164.881 15.6544 164.881Z" fill="#E3BD01"/>
<path d="M20.2203 164.881C21.3011 164.881 22.1771 164.005 22.1771 162.924C22.1771 161.844 21.3011 160.967 20.2203 160.967C19.1396 160.967 18.2635 161.844 18.2635 162.924C18.2635 164.005 19.1396 164.881 20.2203 164.881Z" fill="#E3BD01"/>
<path d="M80.8811 162.272C80.8811 160.831 82.0492 159.663 83.4902 159.663H92.6219C93.3424 159.663 93.9264 160.247 93.9264 160.967V164.881C93.9264 165.602 93.3424 166.186 92.6219 166.186H82.1856C81.4651 166.186 80.8811 165.602 80.8811 164.881V162.272Z" fill="#F7D100"/>
<path d="M80.8811 162.272C80.8811 160.831 82.0492 159.663 83.4902 159.663H92.6219C93.3424 159.663 93.9264 160.247 93.9264 160.967V164.881C93.9264 165.602 93.3424 166.186 92.6219 166.186H82.1856C81.4651 166.186 80.8811 165.602 80.8811 164.881V162.272Z" fill="#F7D100"/>
<path d="M90.0128 164.881C88.5718 164.881 87.4037 163.713 87.4037 162.272C87.4037 160.831 88.5718 159.663 90.0128 159.663C91.4537 159.663 92.6218 160.831 92.6218 162.272C92.6218 163.713 91.4537 164.881 90.0128 164.881Z" fill="#E3BD01"/>
<path d="M85.447 164.881C84.3663 164.881 83.4902 164.005 83.4902 162.924C83.4902 161.844 84.3663 160.967 85.447 160.967C86.5277 160.967 87.4038 161.844 87.4038 162.924C87.4038 164.005 86.5277 164.881 85.447 164.881Z" fill="#E3BD01"/>
</g>
<path d="M489.074 111.593C488.836 106.707 492.356 102.444 497.218 101.902C502.854 101.274 510.213 100.602 515.903 100.602C521.592 100.602 528.951 101.274 534.587 101.902C539.449 102.444 542.969 106.707 542.731 111.593L540.782 151.545H491.023L489.074 111.593Z" fill="#C31018"/>
<path d="M540.782 151.545L542.726 111.701C542.966 106.769 539.381 102.479 534.485 101.841L529.527 101.194L515.903 100.602V151.545H540.782Z" fill="#900202"/>
<path d="M515.902 138.513C502.162 138.513 491.023 145.409 491.023 153.915H540.782C540.782 145.409 529.643 138.513 515.902 138.513Z" fill="#AC0001"/>
<path d="M540.782 153.915C540.782 145.409 529.643 138.513 515.903 138.513V153.915H540.782Z" fill="#7E0404"/>
<path d="M493.393 139.698H489.838V174.055H493.393V139.698Z" fill="#262627"/>
<path d="M541.967 139.698H538.413V174.055H541.967V139.698Z" fill="#262627"/>
<path d="M491.615 144.437C493.251 144.437 494.577 143.111 494.577 141.475C494.577 139.839 493.251 138.513 491.615 138.513C489.98 138.513 488.654 139.839 488.654 141.475C488.654 143.111 489.98 144.437 491.615 144.437Z" fill="#1B1B1C"/>
<path d="M491.615 144.437C493.251 144.437 494.577 143.111 494.577 141.475C494.577 139.839 493.251 138.513 491.615 138.513C489.98 138.513 488.654 139.839 488.654 141.475C488.654 143.111 489.98 144.437 491.615 144.437Z" fill="#1B1B1C"/>
<path d="M491.615 144.437C493.251 144.437 494.577 143.111 494.577 141.475C494.577 139.839 493.251 138.513 491.615 138.513C489.98 138.513 488.654 139.839 488.654 141.475C488.654 143.111 489.98 144.437 491.615 144.437Z" fill="#1B1B1C"/>
<path d="M491.615 144.437C493.251 144.437 494.577 143.111 494.577 141.475C494.577 139.839 493.251 138.513 491.615 138.513C489.98 138.513 488.654 139.839 488.654 141.475C488.654 143.111 489.98 144.437 491.615 144.437Z" fill="#1B1B1C"/>
<path d="M540.19 144.437C541.826 144.437 543.152 143.111 543.152 141.475C543.152 139.839 541.826 138.513 540.19 138.513C538.554 138.513 537.228 139.839 537.228 141.475C537.228 143.111 538.554 144.437 540.19 144.437Z" fill="#1B1B1C"/>
<path d="M540.19 144.437C541.826 144.437 543.152 143.111 543.152 141.475C543.152 139.839 541.826 138.513 540.19 138.513C538.554 138.513 537.228 139.839 537.228 141.475C537.228 143.111 538.554 144.437 540.19 144.437Z" fill="#1B1B1C"/>
<path d="M540.19 144.437C541.826 144.437 543.152 143.111 543.152 141.475C543.152 139.839 541.826 138.513 540.19 138.513C538.554 138.513 537.228 139.839 537.228 141.475C537.228 143.111 538.554 144.437 540.19 144.437Z" fill="#1B1B1C"/>
<path d="M540.19 144.437C541.826 144.437 543.152 143.111 543.152 141.475C543.152 139.839 541.826 138.513 540.19 138.513C538.554 138.513 537.228 139.839 537.228 141.475C537.228 143.111 538.554 144.437 540.19 144.437Z" fill="#1B1B1C"/>
<path d="M515.903 151.545H493.393V162.208H515.903V151.545Z" fill="#C31018"/>
<path d="M515.903 151.545H538.413V162.208H515.903V151.545Z" fill="#900202"/>
<g clip-path="url(#clip2)">
<path d="M533.138 137.59C534.385 137.136 534.461 134.2 533.308 131.032C532.155 127.865 530.21 125.665 528.962 126.119C527.715 126.573 527.639 129.509 528.792 132.676C529.945 135.844 531.89 138.044 533.138 137.59Z" fill="#452D23"/>
<path d="M510.599 137.59C509.352 137.136 509.276 134.2 510.429 131.032C511.582 127.865 513.527 125.665 514.774 126.119C516.022 126.573 516.098 129.509 514.945 132.676C513.792 135.844 511.846 138.044 510.599 137.59Z" fill="#573F35"/>
<path d="M530.88 134.214C530.88 127.55 527.004 122.147 522.223 122.147C517.441 122.147 513.565 127.55 513.565 134.214C513.565 140.879 517.441 146.282 522.223 146.282C527.004 146.282 530.88 140.879 530.88 134.214Z" fill="#5E463C"/>
<path d="M530.88 134.214C530.88 127.55 526.886 122.147 521.96 122.147V146.282C526.886 146.282 530.88 140.879 530.88 134.214Z" fill="#553D33"/>
<path d="M513.828 116.376C515.711 116.376 517.238 114.966 517.238 113.228C517.238 111.489 515.711 110.08 513.828 110.08C511.944 110.08 510.417 111.489 510.417 113.228C510.417 114.966 511.944 116.376 513.828 116.376Z" fill="#865942"/>
<path d="M529.568 116.376C531.451 116.376 532.978 114.966 532.978 113.228C532.978 111.489 531.451 110.08 529.568 110.08C527.685 110.08 526.158 111.489 526.158 113.228C526.158 114.966 527.685 116.376 529.568 116.376Z" fill="#865942"/>
<path d="M529.306 115.326C530.465 115.326 531.404 114.504 531.404 113.49C531.404 112.476 530.465 111.653 529.306 111.653C528.147 111.653 527.207 112.476 527.207 113.49C527.207 114.504 528.147 115.326 529.306 115.326Z" fill="#A0735C"/>
<path d="M529.306 115.326C530.465 115.326 531.404 114.504 531.404 113.49C531.404 112.476 530.465 111.653 529.306 111.653C528.147 111.653 527.207 112.476 527.207 113.49C527.207 114.504 528.147 115.326 529.306 115.326Z" fill="#A0735C"/>
<path d="M529.306 115.326C530.465 115.326 531.404 114.504 531.404 113.49C531.404 112.476 530.465 111.653 529.306 111.653C528.147 111.653 527.207 112.476 527.207 113.49C527.207 114.504 528.147 115.326 529.306 115.326Z" fill="#A0735C"/>
<path d="M529.306 115.326C530.465 115.326 531.404 114.504 531.404 113.49C531.404 112.476 530.465 111.653 529.306 111.653C528.147 111.653 527.207 112.476 527.207 113.49C527.207 114.504 528.147 115.326 529.306 115.326Z" fill="#A0735C"/>
<path d="M514.09 115.326C515.249 115.326 516.189 114.504 516.189 113.49C516.189 112.476 515.249 111.653 514.09 111.653C512.931 111.653 511.992 112.476 511.992 113.49C511.992 114.504 512.931 115.326 514.09 115.326Z" fill="#A0735C"/>
<path d="M514.09 115.326C515.249 115.326 516.189 114.504 516.189 113.49C516.189 112.476 515.249 111.653 514.09 111.653C512.931 111.653 511.992 112.476 511.992 113.49C511.992 114.504 512.931 115.326 514.09 115.326Z" fill="#A0735C"/>
<path d="M514.09 115.326C515.249 115.326 516.189 114.504 516.189 113.49C516.189 112.476 515.249 111.653 514.09 111.653C512.931 111.653 511.992 112.476 511.992 113.49C511.992 114.504 512.931 115.326 514.09 115.326Z" fill="#A0735C"/>
<path d="M514.09 115.326C515.249 115.326 516.189 114.504 516.189 113.49C516.189 112.476 515.249 111.653 514.09 111.653C512.931 111.653 511.992 112.476 511.992 113.49C511.992 114.504 512.931 115.326 514.09 115.326Z" fill="#A0735C"/>
<path d="M521.96 127.394C527.176 127.394 531.404 123.518 531.404 118.737C531.404 113.955 527.176 110.08 521.96 110.08C516.744 110.08 512.516 113.955 512.516 118.737C512.516 123.518 516.744 127.394 521.96 127.394Z" fill="url(#paint0_linear)"/>
<path d="M521.96 126.344C524.278 126.344 526.158 124.582 526.158 122.409C526.158 120.236 524.278 118.474 521.96 118.474C519.642 118.474 517.763 120.236 517.763 122.409C517.763 124.582 519.642 126.344 521.96 126.344Z" fill="#A1745D"/>
<path d="M521.96 126.344C524.279 126.344 526.158 124.582 526.158 122.409C526.158 120.236 524.279 118.474 521.96 118.474V126.344Z" fill="#946750"/>
<path d="M515.497 138.214C518.297 137.695 520.214 140.237 520.563 142.117C520.911 143.996 516.792 145.574 513.992 146.093C511.192 146.612 512.155 145.34 511.806 143.461C511.458 141.581 512.697 138.733 515.497 138.214Z" fill="#573F35"/>
<path d="M528.903 138.214C526.102 137.695 524.185 140.237 523.837 142.117C523.488 143.996 527.607 145.574 530.408 146.093C533.208 146.612 532.245 145.34 532.593 143.461C532.942 141.581 531.703 138.733 528.903 138.214Z" fill="#452D23"/>
<path d="M518.288 140.51C518.288 137.323 515.939 134.739 513.041 134.739C510.143 134.739 507.794 137.323 507.794 140.51C507.794 143.698 510.143 146.282 513.041 146.282C515.939 146.282 518.288 143.698 518.288 140.51Z" fill="#865942"/>
<path d="M525.964 140.51C525.964 137.323 528.313 134.739 531.211 134.739C534.108 134.739 536.457 137.323 536.457 140.51C536.457 143.698 534.108 146.282 531.211 146.282C528.313 146.282 525.964 143.698 525.964 140.51Z" fill="#865942"/>
<path d="M523.01 122.147C523.01 122.437 522.54 123.196 521.96 123.196C521.381 123.196 520.911 122.437 520.911 122.147C520.911 121.857 521.381 121.622 521.96 121.622C522.54 121.622 523.01 121.857 523.01 122.147Z" fill="#262627"/>
<path d="M526.42 120.048C527.145 120.048 527.732 119.461 527.732 118.737C527.732 118.012 527.145 117.425 526.42 117.425C525.696 117.425 525.108 118.012 525.108 118.737C525.108 119.461 525.696 120.048 526.42 120.048Z" fill="#F2F2F2"/>
<path d="M517.501 120.048C518.225 120.048 518.812 119.461 518.812 118.737C518.812 118.012 518.225 117.425 517.501 117.425C516.776 117.425 516.189 118.012 516.189 118.737C516.189 119.461 516.776 120.048 517.501 120.048Z" fill="#F2F2F2"/>
<path d="M517.501 119.524C517.935 119.524 518.288 119.171 518.288 118.737C518.288 118.302 517.935 117.95 517.501 117.95C517.066 117.95 516.714 118.302 516.714 118.737C516.714 119.171 517.066 119.524 517.501 119.524Z" fill="#262627"/>
<path d="M526.42 119.524C526.854 119.524 527.207 119.171 527.207 118.737C527.207 118.302 526.854 117.95 526.42 117.95C525.985 117.95 525.633 118.302 525.633 118.737C525.633 119.171 525.985 119.524 526.42 119.524Z" fill="#262627"/>
</g>
<rect x="158" width="253" height="163" rx="5.61845" fill="black"/>
<path d="M158 157H411V163.382C411 166.485 408.485 169 405.382 169H163.618C160.515 169 158 166.485 158 163.382V157Z" fill="#C4C4C4"/>
<rect x="166" y="7" width="236" height="144" fill="#E2F1F8"/>
<rect x="262" y="169" width="44" height="29" fill="url(#paint1_linear)"/>
<path d="M284 7H402V151H284.11L284 7Z" fill="#D8E7EE"/>
<path d="M225 199.618C225 196.515 227.515 194 230.618 194H338.382C341.485 194 344 196.515 344 199.618V201H225V199.618Z" fill="#C4C4C4"/>
<circle cx="283.5" cy="78.9637" r="43.5" fill="#CAE6F1"/>
<circle cx="283.5" cy="78.9637" r="43.5" fill="white"/>
<path d="M284 122.464C308.024 122.464 327.5 102.988 327.5 78.9637C327.5 54.9394 308.024 35.4637 284 35.4637V122.464Z" fill="#F4F4F4"/>
<path d="M294.187 72.7218L297.722 69.1863L327.774 99.2383C328.75 100.215 328.75 101.798 327.774 102.774C326.798 103.75 325.215 103.75 324.239 102.774L294.187 72.7218Z" fill="#09308B"/>
<path d="M294.187 72.7218L296.308 70.6005L328.128 102.42C326.956 103.592 325.057 103.592 323.885 102.42L294.187 72.7218Z" fill="#001F7A"/>
<rect x="293.479" y="50.8015" width="17" height="25" transform="rotate(45 293.479 50.8015)" fill="#09308B"/>
<rect x="299.843" y="57.1655" width="8" height="25" transform="rotate(45 299.843 57.1655)" fill="#001F7A"/>
<rect x="294.187" y="47.266" width="21" height="4" rx="2" transform="rotate(45 294.187 47.266)" fill="#09308B"/>
<path d="M301.965 55.0442L307.622 60.701C308.403 61.4821 308.403 62.7484 307.622 63.5294C306.841 64.3105 305.574 64.3105 304.793 63.5294L299.136 57.8726L301.965 55.0442Z" fill="#001D75"/>
<rect x="275.095" y="66.3579" width="21" height="4" rx="2" transform="rotate(45 275.095 66.3579)" fill="#09308B"/>
<path d="M282.873 74.136L288.53 79.7929C289.311 80.5739 289.311 81.8403 288.53 82.6213C287.749 83.4024 286.482 83.4024 285.701 82.6213L280.044 76.9645L282.873 74.136Z" fill="#001D75"/>
<path d="M263 104C263 100.686 265.686 98 269 98H300C303.314 98 306 100.686 306 104V111H263V104Z" fill="#09308B"/>
<path d="M284 98H300C303.314 98 306 100.686 306 104V111H284V98Z" fill="#001E77"/>
<rect x="209" y="151" width="14" height="6" fill="black"/>
<path d="M102.43 171.086L104.205 170.131L105.512 172.559L102.43 171.086Z" fill="#CAE6F1"/>
<path d="M104.205 170.131L102.43 171.086L102.167 170.597L104.093 169.922L104.205 170.131Z" fill="#CAE6F1"/>
<path d="M105.502 172.53L102.32 170.872L103.727 173.485L105.133 176.098L105.502 172.53Z" fill="#90C2E0"/>
<path d="M106.539 178.712L106.908 175.143L105.133 176.098L106.539 178.712Z" fill="#A3D5F3"/>
<path d="M105.133 176.098L106.908 175.143L106.84 175.016L105.553 175.708L105.133 176.098Z" fill="#A3D5F3"/>
<path fill-rule="evenodd" clip-rule="evenodd" d="M100.914 168.258L102.32 170.872L104.096 169.916L100.914 168.258Z" fill="#B2E4FF"/>
<path d="M96.8753 178.65L106.539 178.711L105.132 176.098L96.8753 178.65Z" fill="#3F6997"/>
<path d="M100.914 168.258L95.6411 176.356L102.32 170.872L100.914 168.258Z" fill="#CAE6F1"/>
<path d="M95.6411 176.356L96.8754 178.65L105.133 176.098L102.32 170.872L95.6411 176.356Z" fill="#7CAECC"/>
<path d="M105.13 176.093L106.905 175.137L105.502 172.53L105.13 176.093Z" fill="#BAD6E1"/>
<path d="M94.4231 173.621L94.4231 172.381L96.1202 172.381L94.4231 173.621Z" fill="#CAE6F1"/>
<path d="M94.4231 172.381L94.4231 173.621L94.0815 173.621L94.277 172.381L94.4231 172.381Z" fill="#CAE6F1"/>
<path d="M96.1014 172.378L94.2752 173.618L96.1014 173.618L97.9276 173.618L96.1014 172.378Z" fill="#90C2E0"/>
<path d="M99.7536 173.618L97.9274 172.377L97.9274 173.618L99.7536 173.618Z" fill="#A3D5F3"/>
<path d="M97.9274 173.618L97.9274 172.377L97.8385 172.377L97.8385 173.277L97.9274 173.618Z" fill="#A3D5F3"/>
<path fill-rule="evenodd" clip-rule="evenodd" d="M92.4485 173.618L94.2747 173.618L94.2747 172.378L92.4485 173.618Z" fill="#B2E4FF"/>
<path d="M96.9027 178.837L99.7535 173.618L97.9273 173.618L96.9027 178.837Z" fill="#3F6997"/>
<path d="M92.4489 173.618L95.2998 178.837L94.2751 173.618L92.4489 173.618Z" fill="#CAE6F1"/>
<path d="M95.2996 178.837L96.9028 178.837L97.9274 173.618L94.275 173.618L95.2996 178.837Z" fill="#7CAECC"/>
<path d="M97.9236 173.618L97.9236 172.378L96.1013 172.378L97.9236 173.618Z" fill="#BAD6E1"/>
<path d="M114.083 185H93V193H116L114.083 185Z" fill="#E59C00"/>
<path d="M93.1051 185.42C93.0433 185.173 92.8213 185 92.5667 185H84.4333C84.1787 185 83.9567 185.173 83.8949 185.42L82.1724 192.31C82.0848 192.661 82.3498 193 82.7108 193H94.2892C94.6502 193 94.9152 192.661 94.8276 192.31L93.1051 185.42Z" fill="#FABD02"/>
<path d="M113.083 185H92V193H115L113.083 185Z" fill="#E59C00"/>
<path d="M92.1051 185.42C92.0433 185.173 91.8213 185 91.5667 185H83.4333C83.1787 185 82.9567 185.173 82.8949 185.42L81.1724 192.31C81.0848 192.661 81.3498 193 81.7108 193H93.2892C93.6502 193 93.9152 192.661 93.8276 192.31L92.1051 185.42Z" fill="#FABD02"/>
<path d="M107 193H84.9999V202H109L107 193Z" fill="#E59C00"/>
<path d="M86.0965 193.435C86.04 193.181 85.8148 193 85.5547 193H77.4451C77.185 193 76.9597 193.181 76.9033 193.435L75.15 201.325C75.0729 201.671 75.3367 202 75.6918 202H87.308C87.6631 202 87.9268 201.671 87.8498 201.325L86.0965 193.435Z" fill="#FABD02"/>
<path d="M119.167 193H98.9999V202H121L119.167 193Z" fill="#E59C00"/>
<path d="M98.2447 193.444C98.1917 193.185 97.9645 193 97.701 193H90.2988C90.0352 193 89.808 193.185 89.7551 193.444L88.1366 201.334C88.066 201.678 88.3289 202 88.6803 202H99.3195C99.6708 202 99.9338 201.678 99.8632 201.334L98.2447 193.444Z" fill="#FABD02"/>
<path d="M119.167 193H98.9999V202H121L119.167 193Z" fill="#E59C00"/>
<path d="M98.2447 193.444C98.1917 193.185 97.9645 193 97.701 193H90.2988C90.0352 193 89.808 193.185 89.7551 193.444L88.1366 201.334C88.066 201.678 88.3289 202 88.6803 202H99.3195C99.6708 202 99.9338 201.678 99.8632 201.334L98.2447 193.444Z" fill="#FABD02"/>
<path d="M132.097 193.435C132.04 193.181 131.815 193 131.555 193H110V202H134L132.097 193.435Z" fill="url(#paint2_linear)"/>
<path d="M111.097 193.435C111.04 193.181 110.815 193 110.555 193H102.445C102.185 193 101.96 193.181 101.903 193.435L100.15 201.325C100.073 201.671 100.337 202 100.692 202H112.308C112.663 202 112.927 201.671 112.85 201.325L111.097 193.435Z" fill="#FABD02"/>
<path d="M126.185 185.426C126.125 185.176 125.902 185 125.645 185H105V193H128L126.185 185.426Z" fill="url(#paint3_linear)"/>
<path d="M105.105 185.42C105.043 185.173 104.821 185 104.567 185H96.4332C96.1785 185 95.9565 185.173 95.8948 185.42L94.1723 192.31C94.0847 192.661 94.3497 193 94.7107 193H106.289C106.65 193 106.915 192.661 106.827 192.31L105.105 185.42Z" fill="#FABD02"/>
<path d="M121.115 178.403C121.047 178.164 120.829 178 120.581 178H99V185H123L121.115 178.403Z" fill="url(#paint4_linear)"/>
<path d="M98.4103 178.425C98.3501 178.176 98.1272 178 97.8709 178H91.1291C90.8728 178 90.6499 178.176 90.5897 178.425L89.1657 184.315C89.0813 184.664 89.3459 185 89.7052 185H99.2948C99.6541 185 99.9187 184.664 99.8343 184.315L98.4103 178.425Z" fill="#FABD02"/>
<path d="M119.399 188.606L119.399 187.366L121.096 187.366L119.399 188.606Z" fill="#CAE6F1"/>
<path d="M119.399 187.366L119.399 188.606L119.058 188.607L119.253 187.366L119.399 187.366Z" fill="#CAE6F1"/>
<path d="M121.077 187.363L119.251 188.604L121.077 188.604L122.904 188.604L121.077 187.363Z" fill="#90C2E0"/>
<path d="M124.73 188.604L122.904 187.363L122.904 188.604L124.73 188.604Z" fill="#A3D5F3"/>
<path d="M122.904 188.604L122.904 187.363L122.815 187.363L122.815 188.262L122.904 188.604Z" fill="#A3D5F3"/>
<path fill-rule="evenodd" clip-rule="evenodd" d="M117.425 188.604L119.251 188.604L119.251 187.363L117.425 188.604Z" fill="#B2E4FF"/>
<path d="M121.879 193.823L124.73 188.604L122.903 188.604L121.879 193.823Z" fill="#3F6997"/>
<path d="M117.425 188.604L120.276 193.823L119.251 188.604L117.425 188.604Z" fill="#CAE6F1"/>
<path d="M120.276 193.823L121.879 193.823L122.903 188.604L119.251 188.604L120.276 193.823Z" fill="#7CAECC"/>
<path d="M122.899 188.604L122.899 187.363L121.077 187.363L122.899 188.604Z" fill="#BAD6E1"/>
<path d="M118.336 194.396L116.561 193.441L115.254 195.87L118.336 194.396Z" fill="#CAE6F1"/>
<path d="M116.561 193.441L118.336 194.396L118.599 193.908L116.673 193.232L116.561 193.441Z" fill="#CAE6F1"/>
<path d="M115.264 195.84L118.446 194.182L117.04 196.796L115.633 199.409L115.264 195.84Z" fill="#90C2E0"/>
<path d="M114.227 202.022L113.858 198.453L115.633 199.409L114.227 202.022Z" fill="#A3D5F3"/>
<path d="M115.633 199.409L113.858 198.453L113.926 198.326L115.213 199.019L115.633 199.409Z" fill="#A3D5F3"/>
<path fill-rule="evenodd" clip-rule="evenodd" d="M119.852 191.569L118.446 194.182L116.67 193.227L119.852 191.569Z" fill="#B2E4FF"/>
<path d="M123.891 201.961L114.227 202.022L115.633 199.409L123.891 201.961Z" fill="#3F6997"/>
<path d="M119.852 191.569L125.125 199.667L118.446 194.182L119.852 191.569Z" fill="#CAE6F1"/>
<path d="M125.125 199.667L123.89 201.961L115.633 199.409L118.446 194.182L125.125 199.667Z" fill="#7CAECC"/>
<path d="M115.636 199.403L113.861 198.448L115.264 195.84L115.636 199.403Z" fill="#BAD6E1"/>
<g clip-path="url(#clip3)">
<path d="M151.211 69.0556H142.685C141.508 69.0556 140.553 70.0099 140.553 71.1871V94.634C140.553 95.8112 141.508 96.7656 142.685 96.7656H151.211C152.388 96.7656 153.343 95.8112 153.343 94.634V71.1871C153.343 70.0099 152.388 69.0556 151.211 69.0556Z" fill="#1B1B1C"/>
<path d="M146.948 69.0556H151.211C152.388 69.0556 153.342 70.0099 153.342 71.1871V94.634C153.342 95.8113 152.388 96.7656 151.211 96.7656H146.948V69.0556Z" fill="black"/>
<path d="M139.487 102.094C138.826 103.597 135.561 107.087 135.561 107.087H148.743V93.5682H140.553C140.553 93.5682 140.956 98.7604 139.487 102.094Z" fill="#900202"/>
<path d="M150.538 214H132.027C130.85 214 129.896 213.046 129.896 211.868V120.212C129.896 120.212 130.454 114.737 132.027 111.686C133.517 108.797 137.356 105.292 137.356 105.292H150.538V214Z" fill="#900202"/>
<path d="M153.342 62.661H140.553C139.376 62.661 138.421 63.6153 138.421 64.7926V71.1872C138.421 72.3644 139.376 73.3187 140.553 73.3187H153.342C154.519 73.3187 155.474 72.3644 155.474 71.1872V64.7926C155.474 63.6153 154.519 62.661 153.342 62.661Z" fill="#1B1B1C"/>
<path d="M146.948 62.661H153.342C154.519 62.661 155.474 63.6153 155.474 64.7926V71.1872C155.474 72.3644 154.519 73.3187 153.342 73.3187H146.948V62.661Z" fill="black"/>
<path d="M146.948 214H161.868C163.046 214 164 213.046 164 211.868V120.212C164 120.212 163.441 114.737 161.868 111.686C160.379 108.797 156.54 105.292 156.54 105.292H146.948V214Z" fill="#730000"/>
<path d="M154.408 102.094C155.004 103.472 156.54 105.292 156.54 105.292H146.948V93.5682H153.342C153.342 93.5682 153.086 99.0382 154.408 102.094Z" fill="#730000"/>
</g>
<path d="M166.126 153.487C163.012 153.487 160.487 156.012 160.487 159.126V231.874C160.487 234.988 163.012 237.513 166.126 237.513H194.874C197.988 237.513 200.513 234.988 200.513 231.874V159.126C200.513 156.012 197.988 153.487 194.874 153.487H166.126Z" fill="white" stroke="#D5D5D6" stroke-width="1.02529"/>
<path d="M180 154H194.874C197.705 154 200 156.295 200 159.126V231.874C200 234.705 197.705 237 194.874 237H180V154Z" fill="#F5F5F5"/>
<rect x="162" y="161" width="37" height="68" rx="0.976471" fill="#262627"/>
<path d="M180.044 161H197.975C198.541 161 199 161.459 199 162.025V227.975C199 228.541 198.541 229 197.975 229H180L180.044 161Z" fill="black"/>
<rect x="179" y="157" width="2" height="2" rx="1" fill="#262627"/>
<rect x="175.756" y="231.756" width="9.48824" height="2.48824" rx="1.24412" fill="#F2F2F2" stroke="#E0E0E0" stroke-width="0.488235"/>
<path d="M176 233C176 232.448 176.448 232 177 232H180V234H177C176.448 234 176 233.552 176 233Z" fill="#F2F2F2"/>
<rect width="1" height="35" transform="matrix(-1 0 0 1 205 201)" fill="black"/>
<path fill-rule="evenodd" clip-rule="evenodd" d="M210 184V195C208.738 195 207.221 194.41 206 193.451V199V201.5C206 202.328 205.328 203 204.5 203C203.672 203 203 202.328 203 201.5V199V193.533V193V190.233C203 189.391 203.228 188.403 203.335 187.986C203.341 187.919 203.358 187.852 203.389 187.785C204.396 185.587 207.931 184 210 184Z" fill="#0F62BD"/>
<path d="M206 192.846L205 192V203C205.552 203 206 202.552 206 202V192.846Z" fill="#09308B"/>
<rect width="3" height="8" transform="matrix(-1 0 0 1 213 185)" fill="black"/>
<path d="M211.024 190.967C211.024 194.004 210.667 195 212.685 195C214.703 195 218 194.004 218 190.967C218 190.291 218 188.767 218 188.033C218 184.733 214.254 184 212.685 184C210.832 184 210.982 184.609 211.019 187.3C211.022 187.54 211.024 190.718 211.024 190.967Z" fill="#262627"/>
<path d="M212.685 195C210.667 195 211.024 193.722 211.024 187L218 189.824C218 193.722 214.703 195 212.685 195Z" fill="black"/>
<rect x="221" y="226" width="1" height="10" fill="black"/>
<path fill-rule="evenodd" clip-rule="evenodd" d="M217 209V220C217.934 220 219.009 219.676 220 219.119V223V226C220 227.105 220.895 228 222 228C223.104 228 224 227.105 224 226V223V218.533V218V215.233C224 214.391 223.772 213.403 223.665 212.986C223.659 212.919 223.641 212.852 223.611 212.785C222.604 210.587 219.069 209 217 209Z" fill="#0F62BD"/>
<path d="M220 217.846L221 217V228C220.448 228 220 227.552 220 227V217.846Z" fill="#09308B"/>
<rect x="213" y="210" width="4" height="8" fill="black"/>
<path d="M215.976 215.967C215.976 219.004 216.333 220 214.315 220C212.297 220 209 219.004 209 215.967C209 215.291 209 213.767 209 213.033C209 209.733 212.746 209 214.315 209C216.168 209 216.018 209.609 215.981 212.3C215.978 212.54 215.976 215.718 215.976 215.967Z" fill="#262627"/>
<path d="M214.315 220C216.333 220 215.976 218.722 215.976 212L209 214.824C209 218.722 212.297 220 214.315 220Z" fill="black"/>
<g clip-path="url(#clip4)">
<path d="M390.583 209.451H420.549V225.033C420.549 225.695 420.013 226.232 419.351 226.232H391.782C391.12 226.232 390.583 225.695 390.583 225.033V209.451Z" fill="#084A74"/>
<path d="M406.166 209.451H420.55V226.232H406.166V209.451Z" fill="#1F3347"/>
<path d="M383.51 131.647C383.446 130.945 383.999 130.34 384.704 130.34H426.429C427.134 130.34 427.686 130.945 427.623 131.647L420.55 209.451H390.583L383.51 131.647Z" fill="white"/>
<path d="M406.166 130.34H426.429C427.134 130.34 427.687 130.945 427.623 131.647L420.55 209.451H406.166V130.34Z" fill="#F2F2F2"/>
<path d="M400.173 220.239H412.159L411.623 221.311C411.217 222.123 410.387 222.636 409.479 222.636H402.853C401.945 222.636 401.115 222.123 400.709 221.311L400.173 220.239Z" fill="#001125"/>
<path d="M427.741 130.34H383.391V133.936H427.741V130.34Z" fill="#D8D8D8"/>
</g>
<g clip-path="url(#clip5)">
<path d="M401.157 168.59H344.505V232.795H401.157V168.59Z" fill="#262627"/>
<path d="M370.943 172.367H349.226V194.083H370.943V172.367Z" fill="#F4728C"/>
<path d="M349.226 172.367V194.083L370.943 172.367H349.226Z" fill="#E5637D"/>
<path d="M370.943 197.86H349.226V219.577H370.943V197.86Z" fill="#FEC1C0"/>
<path d="M396.436 172.367H374.719V194.083H396.436V172.367Z" fill="#FBD7D1"/>
<path d="M396.436 197.86H374.719V219.577H396.436V197.86Z" fill="#FC9B95"/>
<path d="M396.436 223.353H349.226V229.018H396.436V223.353Z" fill="black"/>
<path d="M387.938 225.242L392.678 224.564C393.665 224.424 394.547 225.189 394.547 226.186C394.547 227.182 393.665 227.948 392.678 227.807L387.938 227.13V225.242Z" fill="white"/>
<path d="M357.724 225.242L352.984 224.564C351.998 224.424 351.115 225.189 351.115 226.186C351.115 227.182 351.998 227.948 352.984 227.807L357.724 227.13V225.242Z" fill="white"/>
<path d="M357.724 225.242H387.938V227.13H357.724V225.242Z" fill="#F2F2F2"/>
<path d="M374.719 172.367V194.083L396.436 172.367H374.719Z" fill="#ECC8C2"/>
<path d="M374.719 172.367V194.083L396.436 172.367H374.719Z" fill="#ECC8C2"/>
<path d="M374.719 197.86V219.577L396.436 197.86H374.719Z" fill="#E78680"/>
<path d="M349.226 197.86V219.577L370.943 197.86H349.226Z" fill="#EDB0AE"/>
</g>
<defs>
<linearGradient id="paint0_linear" x1="521.96" y1="110.08" x2="521.96" y2="127.394" gradientUnits="userSpaceOnUse">
<stop stop-color="#5E463C"/>
<stop offset="0.933702" stop-color="#533B31"/>
</linearGradient>
<linearGradient id="paint1_linear" x1="284" y1="169" x2="284" y2="198" gradientUnits="userSpaceOnUse">
<stop stop-color="#B2B2B2"/>
<stop offset="0.563536" stop-color="#DBDBDB"/>
<stop offset="1" stop-color="#959595"/>
</linearGradient>
<linearGradient id="paint2_linear" x1="122" y1="193" x2="122" y2="202" gradientUnits="userSpaceOnUse">
<stop stop-color="#E59C00"/>
<stop offset="1" stop-color="#DB9200"/>
</linearGradient>
<linearGradient id="paint3_linear" x1="116.5" y1="185" x2="116.5" y2="193" gradientUnits="userSpaceOnUse">
<stop stop-color="#E59C00"/>
<stop offset="1" stop-color="#DC9300"/>
</linearGradient>
<linearGradient id="paint4_linear" x1="111" y1="178" x2="111" y2="185" gradientUnits="userSpaceOnUse">
<stop stop-color="#E59C00"/>
<stop offset="1" stop-color="#DB9200"/>
</linearGradient>
<clipPath id="clip0">
<rect width="144" height="128" fill="white" transform="translate(49 44)"/>
</clipPath>
<clipPath id="clip1">
<rect width="106" height="106" fill="white" transform="translate(0 84)"/>
</clipPath>
<clipPath id="clip2">
<rect width="28.4337" height="36.7268" fill="white" transform="translate(507.794 110.08)"/>
</clipPath>
<clipPath id="clip3">
<rect width="34" height="151" fill="white" transform="translate(130 63)"/>
</clipPath>
<clipPath id="clip4">
<rect width="44" height="96" fill="white" transform="translate(384 131)"/>
</clipPath>
<clipPath id="clip5">
<rect width="57" height="79" fill="white" transform="translate(344 154)"/>
</clipPath>
</defs>
</svg>
